<?xml version="1.0" standalone="no"?>
 <!DOCTYPE svg PUBLIC "-//W3C//DTD SVG 1.1//EN" 
 "http://www.w3.org/Graphics/SVG/1.1/DTD/svg11.dtd"> 
<svg
  xmlns:svg="http://www.w3.org/2000/svg"
  xmlns="http://www.w3.org/2000/svg"
  xmlns:xlink="http://www.w3.org/1999/xlink"
  version="1.1"
  width="297.002200mm" height="210.007200mm" viewBox="0.000000 0.000000 297.002200 210.007200">
<title>SVG Image created as zavrsni-F_Mask.svg date 2025/12/05 11:23:45 </title>
  <desc>Image generated by PCBNEW </desc>
<g style="fill:#000000; fill-opacity:1.000000;stroke:#000000; stroke-opacity:1.000000;
stroke-linecap:round; stroke-linejoin:round;"
 transform="translate(0 0) scale(1 1)">
<path style="fill:#000000; fill-opacity:1.000000; stroke:none;fill-rule:evenodd;"
d="M 190.097522,94.709860
190.193193,94.690830
190.274299,94.636637
190.328492,94.555531
190.347522,94.459860
190.347522,93.359860
190.328492,93.264189
190.274299,93.183083
190.193193,93.128890
190.097522,93.109860
188.997522,93.109860
188.901851,93.128890
188.820745,93.183083
188.766552,93.264189
188.747522,93.359860
188.747522,94.459860
188.766552,94.555531
188.820745,94.636637
188.901851,94.690830
188.997522,94.709860
Z" /> 
</g>
<g style="fill:#000000; fill-opacity:1.000000; stroke:none;">
<circle cx="189.547522" cy="91.409860" r="0.800000" /> 
</g>
<g style="fill:#000000; fill-opacity:1.000000; stroke:none;">
<circle cx="249.884200" cy="124.610000" r="0.800000" /> 
</g>
<g style="fill:#000000; fill-opacity:1.000000; stroke:none;">
<circle cx="244.884200" cy="124.610000" r="0.800000" /> 
</g>
<g style="fill:#000000; fill-opacity:1.000000; stroke:none;">
<circle cx="164.906200" cy="134.822000" r="1.000000" /> 
</g>
<g style="fill:#000000; fill-opacity:1.000000; stroke:none;">
<circle cx="164.906200" cy="128.322000" r="1.000000" /> 
</g>
<g style="fill:#000000; fill-opacity:1.000000; stroke:none;">
<circle cx="160.406200" cy="134.822000" r="1.000000" /> 
</g>
<g style="fill:#000000; fill-opacity:1.000000; stroke:none;">
<circle cx="160.406200" cy="128.322000" r="1.000000" /> 
</g>
<g style="fill:#000000; fill-opacity:1.000000; stroke:none;">
<circle cx="225.646126" cy="133.286241" r="0.800000" /> 
</g>
<g style="fill:#000000; fill-opacity:1.000000; stroke:none;">
<circle cx="215.486126" cy="133.286241" r="0.800000" /> 
</g>
<g style="fill:#000000; fill-opacity:1.000000; stroke:none;">
<circle cx="237.224200" cy="124.864000" r="0.800000" /> 
</g>
<g style="fill:#000000; fill-opacity:1.000000; stroke:none;">
<circle cx="242.224200" cy="124.864000" r="0.800000" /> 
</g>
<g style="fill:#000000; fill-opacity:1.000000; stroke:none;">
<circle cx="228.349769" cy="110.709984" r="0.800000" /> 
</g>
<g style="fill:#000000; fill-opacity:1.000000; stroke:none;">
<circle cx="228.349769" cy="100.549984" r="0.800000" /> 
<path style="fill:#000000; fill-opacity:1.000000; stroke:none;fill-rule:evenodd;"
d="M 234.425263,66.910276
234.329592,66.929306
234.248486,66.983499
234.194293,67.064605
234.175263,67.160276
234.175263,68.260276
234.194293,68.355947
234.248486,68.437053
234.329592,68.491246
234.425263,68.510276
235.525263,68.510276
235.620934,68.491246
235.702040,68.437053
235.756233,68.355947
235.775263,68.260276
235.775263,67.160276
235.756233,67.064605
235.702040,66.983499
235.620934,66.929306
235.525263,66.910276
Z" /> 
</g>
<g style="fill:#000000; fill-opacity:1.000000; stroke:none;">
<circle cx="234.975263" cy="70.210276" r="0.800000" /> 
<path style="fill:#000000; fill-opacity:1.000000; stroke:none;fill-rule:evenodd;"
d="M 221.136497,135.119385
220.960077,135.135070
220.765547,135.190732
220.586204,135.284413
220.429390,135.412278
220.301525,135.569092
220.207844,135.748435
220.152182,135.942965
220.136497,136.119385
220.136497,138.119385
220.152182,138.295805
220.207844,138.490335
220.301525,138.669678
220.429390,138.826492
220.586204,138.954357
220.765547,139.048038
220.960077,139.103700
221.136497,139.119385
227.136497,139.119385
227.312917,139.103700
227.507447,139.048038
227.686790,138.954357
227.843604,138.826492
227.971469,138.669678
228.065150,138.490335
228.120812,138.295805
228.136497,138.119385
228.136497,136.119385
228.120812,135.942965
228.065150,135.748435
227.971469,135.569092
227.843604,135.412278
227.686790,135.284413
227.507447,135.190732
227.312917,135.135070
227.136497,135.119385
Z" /> 
<path style="fill:#000000; fill-opacity:1.000000; stroke:none;fill-rule:evenodd;"
d="M 219.014200,109.620000
218.995170,109.524329
218.940977,109.443223
218.859871,109.389030
218.764200,109.370000
217.664200,109.370000
217.568529,109.389030
217.487423,109.443223
217.433230,109.524329
217.414200,109.620000
217.414200,110.720000
217.433230,110.815671
217.487423,110.896777
217.568529,110.950970
217.664200,110.970000
218.764200,110.970000
218.859871,110.950970
218.940977,110.896777
218.995170,110.815671
219.014200,110.720000
Z" /> 
</g>
<g style="fill:#000000; fill-opacity:1.000000; stroke:none;">
<circle cx="210.594200" cy="110.170000" r="0.800000" /> 
</g>
<g style="fill:#000000; fill-opacity:1.000000; stroke:none;">
<circle cx="112.562200" cy="98.032000" r="1.000000" /> 
</g>
<g style="fill:#000000; fill-opacity:1.000000; stroke:none;">
<circle cx="112.562200" cy="91.532000" r="1.000000" /> 
</g>
<g style="fill:#000000; fill-opacity:1.000000; stroke:none;">
<circle cx="108.062200" cy="98.032000" r="1.000000" /> 
</g>
<g style="fill:#000000; fill-opacity:1.000000; stroke:none;">
<circle cx="108.062200" cy="91.532000" r="1.000000" /> 
<path style="fill:#000000; fill-opacity:1.000000; stroke:none;fill-rule:evenodd;"
d="M 236.235088,109.920000
236.254118,110.015671
236.308311,110.096777
236.389417,110.150970
236.485088,110.170000
237.585088,110.170000
237.680759,110.150970
237.761865,110.096777
237.816058,110.015671
237.835088,109.920000
237.835088,108.820000
237.816058,108.724329
237.761865,108.643223
237.680759,108.589030
237.585088,108.570000
236.485088,108.570000
236.389417,108.589030
236.308311,108.643223
236.254118,108.724329
236.235088,108.820000
Z" /> 
</g>
<g style="fill:#000000; fill-opacity:1.000000; stroke:none;">
<circle cx="239.535088" cy="109.370000" r="0.800000" /> 
<path style="fill:#000000; fill-opacity:1.000000; stroke:none;fill-rule:evenodd;"
d="M 230.860200,136.507334
230.879230,136.603005
230.933423,136.684111
231.014529,136.738304
231.110200,136.757334
232.210200,136.757334
232.305871,136.738304
232.386977,136.684111
232.441170,136.603005
232.460200,136.507334
232.460200,135.407334
232.441170,135.311663
232.386977,135.230557
232.305871,135.176364
232.210200,135.157334
231.110200,135.157334
231.014529,135.176364
230.933423,135.230557
230.879230,135.311663
230.860200,135.407334
Z" /> 
</g>
<g style="fill:#000000; fill-opacity:1.000000; stroke:none;">
<circle cx="234.160200" cy="135.957334" r="0.800000" /> 
</g>
<g style="fill:#000000; fill-opacity:1.000000; stroke:none;">
<circle cx="242.598200" cy="82.320000" r="0.800000" /> 
</g>
<g style="fill:#000000; fill-opacity:1.000000; stroke:none;">
<circle cx="242.598200" cy="92.480000" r="0.800000" /> 
<path style="fill:#000000; fill-opacity:1.000000; stroke:none;fill-rule:evenodd;"
d="M 210.554072,114.823236
210.535042,114.727565
210.480849,114.646459
210.399743,114.592266
210.304072,114.573236
209.204072,114.573236
209.108401,114.592266
209.027295,114.646459
208.973102,114.727565
208.954072,114.823236
208.954072,115.923236
208.973102,116.018907
209.027295,116.100013
209.108401,116.154206
209.204072,116.173236
210.304072,116.173236
210.399743,116.154206
210.480849,116.100013
210.535042,116.018907
210.554072,115.923236
Z" /> 
</g>
<g style="fill:#000000; fill-opacity:1.000000; stroke:none;">
<circle cx="207.254072" cy="115.373236" r="0.800000" /> 
<path style="fill:#000000; fill-opacity:1.000000; stroke:none;fill-rule:evenodd;"
d="M 234.652200,104.846000
234.636515,104.669580
234.580853,104.475050
234.487172,104.295707
234.359307,104.138893
234.202493,104.011028
234.023150,103.917347
233.828620,103.861685
233.652200,103.846000
231.652200,103.846000
231.475780,103.861685
231.281250,103.917347
231.101907,104.011028
230.945093,104.138893
230.817228,104.295707
230.723547,104.475050
230.667885,104.669580
230.652200,104.846000
230.652200,110.846000
230.667885,111.022420
230.723547,111.216950
230.817228,111.396293
230.945093,111.553107
231.101907,111.680972
231.281250,111.774653
231.475780,111.830315
231.652200,111.846000
233.652200,111.846000
233.828620,111.830315
234.023150,111.774653
234.202493,111.680972
234.359307,111.553107
234.487172,111.396293
234.580853,111.216950
234.636515,111.022420
234.652200,110.846000
Z" /> 
</g>
<g style="fill:#000000; fill-opacity:1.000000; stroke:none;">
<circle cx="225.284691" cy="110.308924" r="0.800000" /> 
</g>
<g style="fill:#000000; fill-opacity:1.000000; stroke:none;">
<circle cx="225.284691" cy="100.148924" r="0.800000" /> 
</g>
<g style="fill:#000000; fill-opacity:1.000000; stroke:none;">
<circle cx="186.210200" cy="62.214000" r="0.800000" /> 
</g>
<g style="fill:#000000; fill-opacity:1.000000; stroke:none;">
<circle cx="186.210200" cy="57.214000" r="0.800000" /> 
</g>
<g style="fill:#000000; fill-opacity:1.000000; stroke:none;">
<circle cx="212.833973" cy="133.378131" r="0.800000" /> 
</g>
<g style="fill:#000000; fill-opacity:1.000000; stroke:none;">
<circle cx="210.333973" cy="133.378131" r="0.800000" /> 
<path style="fill:#000000; fill-opacity:1.000000; stroke:none;fill-rule:evenodd;"
d="M 232.356200,123.850000
232.260529,123.869030
232.179423,123.923223
232.125230,124.004329
232.106200,124.100000
232.106200,125.200000
232.125230,125.295671
232.179423,125.376777
232.260529,125.430970
232.356200,125.450000
233.456200,125.450000
233.551871,125.430970
233.632977,125.376777
233.687170,125.295671
233.706200,125.200000
233.706200,124.100000
233.687170,124.004329
233.632977,123.923223
233.551871,123.869030
233.456200,123.850000
Z" /> 
</g>
<g style="fill:#000000; fill-opacity:1.000000; stroke:none;">
<circle cx="232.906200" cy="127.150000" r="0.800000" /> 
<path style="fill:#000000; fill-opacity:1.000000; stroke:none;fill-rule:evenodd;"
d="M 230.408200,120.330000
230.503871,120.310970
230.584977,120.256777
230.639170,120.175671
230.658200,120.080000
230.658200,118.980000
230.639170,118.884329
230.584977,118.803223
230.503871,118.749030
230.408200,118.730000
229.308200,118.730000
229.212529,118.749030
229.131423,118.803223
229.077230,118.884329
229.058200,118.980000
229.058200,120.080000
229.077230,120.175671
229.131423,120.256777
229.212529,120.310970
229.308200,120.330000
Z" /> 
</g>
<g style="fill:#000000; fill-opacity:1.000000; stroke:none;">
<circle cx="229.858200" cy="117.030000" r="0.800000" /> 
<path style="fill:#000000; fill-opacity:1.000000; stroke:none;fill-rule:evenodd;"
d="M 223.032200,87.730000
223.013170,87.634329
222.958977,87.553223
222.877871,87.499030
222.782200,87.480000
221.682200,87.480000
221.586529,87.499030
221.505423,87.553223
221.451230,87.634329
221.432200,87.730000
221.432200,88.830000
221.451230,88.925671
221.505423,89.006777
221.586529,89.060970
221.682200,89.080000
222.782200,89.080000
222.877871,89.060970
222.958977,89.006777
223.013170,88.925671
223.032200,88.830000
Z" /> 
</g>
<g style="fill:#000000; fill-opacity:1.000000; stroke:none;">
<circle cx="222.232200" cy="90.820000" r="0.800000" /> 
</g>
<g style="fill:#000000; fill-opacity:1.000000; stroke:none;">
<circle cx="222.232200" cy="93.360000" r="0.800000" /> 
</g>
<g style="fill:#000000; fill-opacity:1.000000; stroke:none;">
<circle cx="222.232200" cy="95.900000" r="0.800000" /> 
</g>
<g style="fill:#000000; fill-opacity:1.000000; stroke:none;">
<circle cx="222.232200" cy="98.440000" r="0.800000" /> 
</g>
<g style="fill:#000000; fill-opacity:1.000000; stroke:none;">
<circle cx="222.232200" cy="100.980000" r="0.800000" /> 
</g>
<g style="fill:#000000; fill-opacity:1.000000; stroke:none;">
<circle cx="222.232200" cy="103.520000" r="0.800000" /> 
</g>
<g style="fill:#000000; fill-opacity:1.000000; stroke:none;">
<circle cx="214.612200" cy="103.520000" r="0.800000" /> 
</g>
<g style="fill:#000000; fill-opacity:1.000000; stroke:none;">
<circle cx="214.612200" cy="100.980000" r="0.800000" /> 
</g>
<g style="fill:#000000; fill-opacity:1.000000; stroke:none;">
<circle cx="214.612200" cy="98.440000" r="0.800000" /> 
</g>
<g style="fill:#000000; fill-opacity:1.000000; stroke:none;">
<circle cx="214.612200" cy="95.900000" r="0.800000" /> 
</g>
<g style="fill:#000000; fill-opacity:1.000000; stroke:none;">
<circle cx="214.612200" cy="93.360000" r="0.800000" /> 
</g>
<g style="fill:#000000; fill-opacity:1.000000; stroke:none;">
<circle cx="214.612200" cy="90.820000" r="0.800000" /> 
</g>
<g style="fill:#000000; fill-opacity:1.000000; stroke:none;">
<circle cx="214.612200" cy="88.280000" r="0.800000" /> 
</g>
<g style="fill:#000000; fill-opacity:1.000000; stroke:none;">
<circle cx="225.872466" cy="119.560118" r="0.800000" /> 
</g>
<g style="fill:#000000; fill-opacity:1.000000; stroke:none;">
<circle cx="215.712466" cy="119.560118" r="0.800000" /> 
</g>
<g style="fill:#000000; fill-opacity:1.000000; stroke:none;">
<circle cx="212.152200" cy="107.170000" r="0.800000" /> 
</g>
<g style="fill:#000000; fill-opacity:1.000000; stroke:none;">
<circle cx="222.312200" cy="107.170000" r="0.800000" /> 
</g>
<g style="fill:#000000; fill-opacity:1.000000; stroke:none;">
<circle cx="237.224200" cy="131.214000" r="0.800000" /> 
</g>
<g style="fill:#000000; fill-opacity:1.000000; stroke:none;">
<circle cx="247.384200" cy="131.214000" r="0.800000" /> 
</g>
<g style="fill:#000000; fill-opacity:1.000000; stroke:none;">
<circle cx="207.086200" cy="138.176000" r="0.800000" /> 
</g>
<g style="fill:#000000; fill-opacity:1.000000; stroke:none;">
<circle cx="207.086200" cy="128.016000" r="0.800000" /> 
</g>
<g style="fill:#000000; fill-opacity:1.000000; stroke:none;">
<circle cx="235.740200" cy="77.176000" r="1.750000" /> 
<path style="fill:#000000; fill-opacity:1.000000; stroke:none;fill-rule:evenodd;"
d="M 239.232700,94.836000
239.232700,92.836000
237.327700,92.836000
237.327700,94.836000
Z" /> 
</g>
<g style="fill:none; 
stroke:#000000; stroke-width:1.905000; stroke-opacity:1; 
stroke-linecap:round; stroke-linejoin:round;">
<path d="M235.740200 93.788500
L235.740200 93.883500
" />
<path d="M233.200200 93.788500
L233.200200 93.883500
" />
<path style="fill:#000000; fill-opacity:1.000000; stroke:none;fill-rule:evenodd;"
d="M 191.078200,63.243112
191.173871,63.224082
191.254977,63.169889
191.309170,63.088783
191.328200,62.993112
191.328200,61.893112
191.309170,61.797441
191.254977,61.716335
191.173871,61.662142
191.078200,61.643112
189.978200,61.643112
189.882529,61.662142
189.801423,61.716335
189.747230,61.797441
189.728200,61.893112
189.728200,62.993112
189.747230,63.088783
189.801423,63.169889
189.882529,63.224082
189.978200,63.243112
Z" /> 
</g>
<g style="fill:#000000; fill-opacity:1.000000; stroke:none;">
<circle cx="190.528200" cy="59.943112" r="0.800000" /> 
</g>
<g style="fill:#000000; fill-opacity:1.000000; stroke:none;">
<circle cx="112.562200" cy="113.032000" r="1.000000" /> 
</g>
<g style="fill:#000000; fill-opacity:1.000000; stroke:none;">
<circle cx="112.562200" cy="106.532000" r="1.000000" /> 
</g>
<g style="fill:#000000; fill-opacity:1.000000; stroke:none;">
<circle cx="108.062200" cy="113.032000" r="1.000000" /> 
</g>
<g style="fill:#000000; fill-opacity:1.000000; stroke:none;">
<circle cx="108.062200" cy="106.532000" r="1.000000" /> 
</g>
<g style="fill:#000000; fill-opacity:1.000000; stroke:none;">
<circle cx="230.891126" cy="98.342831" r="0.800000" /> 
</g>
<g style="fill:#000000; fill-opacity:1.000000; stroke:none;">
<circle cx="235.891126" cy="98.342831" r="0.800000" /> 
<path style="fill:#000000; fill-opacity:1.000000; stroke:none;fill-rule:evenodd;"
d="M 228.757200,130.998000
228.852871,130.978970
228.933977,130.924777
228.988170,130.843671
229.007200,130.748000
229.007200,129.648000
228.988170,129.552329
228.933977,129.471223
228.852871,129.417030
228.757200,129.398000
227.657200,129.398000
227.561529,129.417030
227.480423,129.471223
227.426230,129.552329
227.407200,129.648000
227.407200,130.748000
227.426230,130.843671
227.480423,130.924777
227.561529,130.978970
227.657200,130.998000
Z" /> 
</g>
<g style="fill:#000000; fill-opacity:1.000000; stroke:none;">
<circle cx="225.667200" cy="130.198000" r="0.800000" /> 
</g>
<g style="fill:#000000; fill-opacity:1.000000; stroke:none;">
<circle cx="223.127200" cy="130.198000" r="0.800000" /> 
</g>
<g style="fill:#000000; fill-opacity:1.000000; stroke:none;">
<circle cx="220.587200" cy="130.198000" r="0.800000" /> 
</g>
<g style="fill:#000000; fill-opacity:1.000000; stroke:none;">
<circle cx="220.587200" cy="122.578000" r="0.800000" /> 
</g>
<g style="fill:#000000; fill-opacity:1.000000; stroke:none;">
<circle cx="223.127200" cy="122.578000" r="0.800000" /> 
</g>
<g style="fill:#000000; fill-opacity:1.000000; stroke:none;">
<circle cx="225.667200" cy="122.578000" r="0.800000" /> 
</g>
<g style="fill:#000000; fill-opacity:1.000000; stroke:none;">
<circle cx="228.207200" cy="122.578000" r="0.800000" /> 
</g>
<g style="fill:#000000; fill-opacity:1.000000; stroke:none;">
<circle cx="192.814703" cy="88.385263" r="0.800000" /> 
</g>
<g style="fill:#000000; fill-opacity:1.000000; stroke:none;">
<circle cx="187.814703" cy="88.385263" r="0.800000" /> 
</g>
<g style="fill:#000000; fill-opacity:1.000000; stroke:none;">
<circle cx="217.372200" cy="116.479704" r="0.800000" /> 
</g>
<g style="fill:#000000; fill-opacity:1.000000; stroke:none;">
<circle cx="212.372200" cy="116.479704" r="0.800000" /> 
<path style="fill:#000000; fill-opacity:1.000000; stroke:none;fill-rule:evenodd;"
d="M 216.400200,85.342000
216.419230,85.437671
216.473423,85.518777
216.554529,85.572970
216.650200,85.592000
217.750200,85.592000
217.845871,85.572970
217.926977,85.518777
217.981170,85.437671
218.000200,85.342000
218.000200,84.242000
217.981170,84.146329
217.926977,84.065223
217.845871,84.011030
217.750200,83.992000
216.650200,83.992000
216.554529,84.011030
216.473423,84.065223
216.419230,84.146329
216.400200,84.242000
Z" /> 
</g>
<g style="fill:#000000; fill-opacity:1.000000; stroke:none;">
<circle cx="224.820200" cy="84.792000" r="0.800000" /> 
<path style="fill:#000000; fill-opacity:1.000000; stroke:none;fill-rule:evenodd;"
d="M 246.333349,98.451362
246.352379,98.547033
246.406572,98.628139
246.487678,98.682332
246.583349,98.701362
247.683349,98.701362
247.779020,98.682332
247.860126,98.628139
247.914319,98.547033
247.933349,98.451362
247.933349,97.351362
247.914319,97.255691
247.860126,97.174585
247.779020,97.120392
247.683349,97.101362
246.583349,97.101362
246.487678,97.120392
246.406572,97.174585
246.352379,97.255691
246.333349,97.351362
Z" /> 
</g>
<g style="fill:#000000; fill-opacity:1.000000; stroke:none;">
<circle cx="249.633349" cy="97.901362" r="0.800000" /> 
<path style="fill:#000000; fill-opacity:1.000000; stroke:none;fill-rule:evenodd;"
d="M 213.517200,131.187113
213.612871,131.168083
213.693977,131.113890
213.748170,131.032784
213.767200,130.937113
213.767200,129.837113
213.748170,129.741442
213.693977,129.660336
213.612871,129.606143
213.517200,129.587113
212.417200,129.587113
212.321529,129.606143
212.240423,129.660336
212.186230,129.741442
212.167200,129.837113
212.167200,130.937113
212.186230,131.032784
212.240423,131.113890
212.321529,131.168083
212.417200,131.187113
Z" /> 
</g>
<g style="fill:#000000; fill-opacity:1.000000; stroke:none;">
<circle cx="212.967200" cy="127.887113" r="0.800000" /> 
</g>
<g style="fill:#000000; fill-opacity:1.000000; stroke:none;">
<circle cx="230.660200" cy="67.532000" r="0.800000" /> 
</g>
<g style="fill:#000000; fill-opacity:1.000000; stroke:none;">
<circle cx="230.660200" cy="72.532000" r="0.800000" /> 
<path style="fill:#000000; fill-opacity:1.000000; stroke:none;fill-rule:evenodd;"
d="M 183.947200,63.926000
184.004603,63.914582
184.053266,63.882066
184.085782,63.833403
184.097200,63.776000
184.097200,62.126000
184.085782,62.068597
184.053266,62.019934
184.004603,61.987418
183.947200,61.976000
183.647200,61.976000
183.589797,61.987418
183.541134,62.019934
183.508618,62.068597
183.497200,62.126000
183.497200,63.776000
183.508618,63.833403
183.541134,63.882066
183.589797,63.914582
183.647200,63.926000
Z" /> 
<path style="fill:#000000; fill-opacity:1.000000; stroke:none;fill-rule:evenodd;"
d="M 182.677200,63.926000
182.734603,63.914582
182.783266,63.882066
182.815782,63.833403
182.827200,63.776000
182.827200,62.126000
182.815782,62.068597
182.783266,62.019934
182.734603,61.987418
182.677200,61.976000
182.377200,61.976000
182.319797,61.987418
182.271134,62.019934
182.238618,62.068597
182.227200,62.126000
182.227200,63.776000
182.238618,63.833403
182.271134,63.882066
182.319797,63.914582
182.377200,63.926000
Z" /> 
<path style="fill:#000000; fill-opacity:1.000000; stroke:none;fill-rule:evenodd;"
d="M 181.407200,63.926000
181.464603,63.914582
181.513266,63.882066
181.545782,63.833403
181.557200,63.776000
181.557200,62.126000
181.545782,62.068597
181.513266,62.019934
181.464603,61.987418
181.407200,61.976000
181.107200,61.976000
181.049797,61.987418
181.001134,62.019934
180.968618,62.068597
180.957200,62.126000
180.957200,63.776000
180.968618,63.833403
181.001134,63.882066
181.049797,63.914582
181.107200,63.926000
Z" /> 
<path style="fill:#000000; fill-opacity:1.000000; stroke:none;fill-rule:evenodd;"
d="M 180.137200,63.926000
180.194603,63.914582
180.243266,63.882066
180.275782,63.833403
180.287200,63.776000
180.287200,62.126000
180.275782,62.068597
180.243266,62.019934
180.194603,61.987418
180.137200,61.976000
179.837200,61.976000
179.779797,61.987418
179.731134,62.019934
179.698618,62.068597
179.687200,62.126000
179.687200,63.776000
179.698618,63.833403
179.731134,63.882066
179.779797,63.914582
179.837200,63.926000
Z" /> 
<path style="fill:#000000; fill-opacity:1.000000; stroke:none;fill-rule:evenodd;"
d="M 180.137200,58.976000
180.194603,58.964582
180.243266,58.932066
180.275782,58.883403
180.287200,58.826000
180.287200,57.176000
180.275782,57.118597
180.243266,57.069934
180.194603,57.037418
180.137200,57.026000
179.837200,57.026000
179.779797,57.037418
179.731134,57.069934
179.698618,57.118597
179.687200,57.176000
179.687200,58.826000
179.698618,58.883403
179.731134,58.932066
179.779797,58.964582
179.837200,58.976000
Z" /> 
<path style="fill:#000000; fill-opacity:1.000000; stroke:none;fill-rule:evenodd;"
d="M 181.407200,58.976000
181.464603,58.964582
181.513266,58.932066
181.545782,58.883403
181.557200,58.826000
181.557200,57.176000
181.545782,57.118597
181.513266,57.069934
181.464603,57.037418
181.407200,57.026000
181.107200,57.026000
181.049797,57.037418
181.001134,57.069934
180.968618,57.118597
180.957200,57.176000
180.957200,58.826000
180.968618,58.883403
181.001134,58.932066
181.049797,58.964582
181.107200,58.976000
Z" /> 
<path style="fill:#000000; fill-opacity:1.000000; stroke:none;fill-rule:evenodd;"
d="M 182.677200,58.976000
182.734603,58.964582
182.783266,58.932066
182.815782,58.883403
182.827200,58.826000
182.827200,57.176000
182.815782,57.118597
182.783266,57.069934
182.734603,57.037418
182.677200,57.026000
182.377200,57.026000
182.319797,57.037418
182.271134,57.069934
182.238618,57.118597
182.227200,57.176000
182.227200,58.826000
182.238618,58.883403
182.271134,58.932066
182.319797,58.964582
182.377200,58.976000
Z" /> 
<path style="fill:#000000; fill-opacity:1.000000; stroke:none;fill-rule:evenodd;"
d="M 183.947200,58.976000
184.004603,58.964582
184.053266,58.932066
184.085782,58.883403
184.097200,58.826000
184.097200,57.176000
184.085782,57.118597
184.053266,57.069934
184.004603,57.037418
183.947200,57.026000
183.647200,57.026000
183.589797,57.037418
183.541134,57.069934
183.508618,57.118597
183.497200,57.176000
183.497200,58.826000
183.508618,58.883403
183.541134,58.932066
183.589797,58.964582
183.647200,58.976000
Z" /> 
</g>
<g style="fill:#000000; fill-opacity:1.000000; stroke:none;">
<circle cx="112.308200" cy="134.822000" r="1.000000" /> 
</g>
<g style="fill:#000000; fill-opacity:1.000000; stroke:none;">
<circle cx="112.308200" cy="128.322000" r="1.000000" /> 
</g>
<g style="fill:#000000; fill-opacity:1.000000; stroke:none;">
<circle cx="107.808200" cy="134.822000" r="1.000000" /> 
</g>
<g style="fill:#000000; fill-opacity:1.000000; stroke:none;">
<circle cx="107.808200" cy="128.322000" r="1.000000" /> 
</g>
<g style="fill:#000000; fill-opacity:1.000000; stroke:none;">
<circle cx="110.002200" cy="57.150000" r="3.800000" /> 
</g>
<g style="fill:#000000; fill-opacity:1.000000; stroke:none;">
<circle cx="247.384200" cy="127.912000" r="0.800000" /> 
</g>
<g style="fill:#000000; fill-opacity:1.000000; stroke:none;">
<circle cx="237.224200" cy="127.912000" r="0.800000" /> 
</g>
<g style="fill:#000000; fill-opacity:1.000000; stroke:none;">
<circle cx="213.312200" cy="119.670000" r="0.800000" /> 
</g>
<g style="fill:#000000; fill-opacity:1.000000; stroke:none;">
<circle cx="203.152200" cy="119.670000" r="0.800000" /> 
<path style="fill:#000000; fill-opacity:1.000000; stroke:none;fill-rule:evenodd;"
d="M 243.104200,113.392000
243.085170,113.296329
243.030977,113.215223
242.949871,113.161030
242.854200,113.142000
241.754200,113.142000
241.658529,113.161030
241.577423,113.215223
241.523230,113.296329
241.504200,113.392000
241.504200,114.492000
241.523230,114.587671
241.577423,114.668777
241.658529,114.722970
241.754200,114.742000
242.854200,114.742000
242.949871,114.722970
243.030977,114.668777
243.085170,114.587671
243.104200,114.492000
Z" /> 
</g>
<g style="fill:#000000; fill-opacity:1.000000; stroke:none;">
<circle cx="242.304200" cy="116.482000" r="0.800000" /> 
</g>
<g style="fill:#000000; fill-opacity:1.000000; stroke:none;">
<circle cx="242.304200" cy="119.022000" r="0.800000" /> 
</g>
<g style="fill:#000000; fill-opacity:1.000000; stroke:none;">
<circle cx="242.304200" cy="121.562000" r="0.800000" /> 
</g>
<g style="fill:#000000; fill-opacity:1.000000; stroke:none;">
<circle cx="234.684200" cy="121.562000" r="0.800000" /> 
</g>
<g style="fill:#000000; fill-opacity:1.000000; stroke:none;">
<circle cx="234.684200" cy="119.022000" r="0.800000" /> 
</g>
<g style="fill:#000000; fill-opacity:1.000000; stroke:none;">
<circle cx="234.684200" cy="116.482000" r="0.800000" /> 
</g>
<g style="fill:#000000; fill-opacity:1.000000; stroke:none;">
<circle cx="234.684200" cy="113.942000" r="0.800000" /> 
<path style="fill:#000000; fill-opacity:1.000000; stroke:none;fill-rule:evenodd;"
d="M 178.812200,54.936000
178.796515,54.759580
178.740853,54.565050
178.647172,54.385707
178.519307,54.228893
178.362493,54.101028
178.183150,54.007347
177.988620,53.951685
177.812200,53.936000
175.812200,53.936000
175.635780,53.951685
175.441250,54.007347
175.261907,54.101028
175.105093,54.228893
174.977228,54.385707
174.883547,54.565050
174.827885,54.759580
174.812200,54.936000
174.812200,60.936000
174.827885,61.112420
174.883547,61.306950
174.977228,61.486293
175.105093,61.643107
175.261907,61.770972
175.441250,61.864653
175.635780,61.920315
175.812200,61.936000
177.812200,61.936000
177.988620,61.920315
178.183150,61.864653
178.362493,61.770972
178.519307,61.643107
178.647172,61.486293
178.740853,61.306950
178.796515,61.112420
178.812200,60.936000
Z" /> 
</g>
<g style="fill:#000000; fill-opacity:1.000000; stroke:none;">
<circle cx="217.285200" cy="124.396000" r="0.800000" /> 
</g>
<g style="fill:#000000; fill-opacity:1.000000; stroke:none;">
<circle cx="217.285200" cy="129.396000" r="0.800000" /> 
<path style="fill:#000000; fill-opacity:1.000000; stroke:none;fill-rule:evenodd;"
d="M 232.052200,65.537112
232.147871,65.518082
232.228977,65.463889
232.283170,65.382783
232.302200,65.287112
232.302200,64.187112
232.283170,64.091441
232.228977,64.010335
232.147871,63.956142
232.052200,63.937112
230.952200,63.937112
230.856529,63.956142
230.775423,64.010335
230.721230,64.091441
230.702200,64.187112
230.702200,65.287112
230.721230,65.382783
230.775423,65.463889
230.856529,65.518082
230.952200,65.537112
Z" /> 
</g>
<g style="fill:#000000; fill-opacity:1.000000; stroke:none;">
<circle cx="231.502200" cy="62.237112" r="0.800000" /> 
</g>
<g style="fill:#000000; fill-opacity:1.000000; stroke:none;">
<circle cx="112.562200" cy="72.032000" r="1.000000" /> 
</g>
<g style="fill:#000000; fill-opacity:1.000000; stroke:none;">
<circle cx="112.562200" cy="65.532000" r="1.000000" /> 
</g>
<g style="fill:#000000; fill-opacity:1.000000; stroke:none;">
<circle cx="108.062200" cy="72.032000" r="1.000000" /> 
</g>
<g style="fill:#000000; fill-opacity:1.000000; stroke:none;">
<circle cx="108.062200" cy="65.532000" r="1.000000" /> 
</g>
<g style="fill:#000000; fill-opacity:1.000000; stroke:none;">
<circle cx="245.646200" cy="92.480000" r="0.800000" /> 
</g>
<g style="fill:#000000; fill-opacity:1.000000; stroke:none;">
<circle cx="245.646200" cy="82.320000" r="0.800000" /> 
</g>
<g style="fill:#000000; fill-opacity:1.000000; stroke:none;">
<circle cx="228.329891" cy="98.337650" r="0.800000" /> 
</g>
<g style="fill:#000000; fill-opacity:1.000000; stroke:none;">
<circle cx="228.329891" cy="88.177650" r="0.800000" /> 
</g>
<g style="fill:#000000; fill-opacity:1.000000; stroke:none;">
<circle cx="110.002200" cy="142.500000" r="3.800000" /> 
</g>
<g style="fill:#000000; fill-opacity:1.000000; stroke:none;">
<circle cx="134.906200" cy="134.822000" r="1.000000" /> 
</g>
<g style="fill:#000000; fill-opacity:1.000000; stroke:none;">
<circle cx="134.906200" cy="128.322000" r="1.000000" /> 
</g>
<g style="fill:#000000; fill-opacity:1.000000; stroke:none;">
<circle cx="130.406200" cy="134.822000" r="1.000000" /> 
</g>
<g style="fill:#000000; fill-opacity:1.000000; stroke:none;">
<circle cx="130.406200" cy="128.322000" r="1.000000" /> 
<path style="fill:#000000; fill-opacity:1.000000; stroke:none;fill-rule:evenodd;"
d="M 186.010200,87.382000
186.010200,85.682000
184.310200,85.682000
184.310200,87.382000
Z" /> 
</g>
<g style="fill:#000000; fill-opacity:1.000000; stroke:none;">
<circle cx="185.160200" cy="89.072000" r="0.850000" /> 
</g>
<g style="fill:#000000; fill-opacity:1.000000; stroke:none;">
<circle cx="185.160200" cy="91.612000" r="0.850000" /> 
</g>
<g style="fill:#000000; fill-opacity:1.000000; stroke:none;">
<circle cx="185.160200" cy="94.152000" r="0.850000" /> 
</g>
<g style="fill:#000000; fill-opacity:1.000000; stroke:none;">
<circle cx="185.160200" cy="96.692000" r="0.850000" /> 
</g>
<g style="fill:#000000; fill-opacity:1.000000; stroke:none;">
<circle cx="185.160200" cy="99.232000" r="0.850000" /> 
</g>
<g style="fill:#000000; fill-opacity:1.000000; stroke:none;">
<circle cx="185.160200" cy="101.772000" r="0.850000" /> 
</g>
<g style="fill:#000000; fill-opacity:1.000000; stroke:none;">
<circle cx="185.160200" cy="104.312000" r="0.850000" /> 
</g>
<g style="fill:#000000; fill-opacity:1.000000; stroke:none;">
<circle cx="185.160200" cy="106.852000" r="0.850000" /> 
</g>
<g style="fill:#000000; fill-opacity:1.000000; stroke:none;">
<circle cx="252.552200" cy="142.500000" r="3.800000" /> 
</g>
<g style="fill:#000000; fill-opacity:1.000000; stroke:none;">
<circle cx="194.906200" cy="134.822000" r="1.000000" /> 
</g>
<g style="fill:#000000; fill-opacity:1.000000; stroke:none;">
<circle cx="194.906200" cy="128.322000" r="1.000000" /> 
</g>
<g style="fill:#000000; fill-opacity:1.000000; stroke:none;">
<circle cx="190.406200" cy="134.822000" r="1.000000" /> 
</g>
<g style="fill:#000000; fill-opacity:1.000000; stroke:none;">
<circle cx="190.406200" cy="128.322000" r="1.000000" /> 
<path style="fill:#000000; fill-opacity:1.000000; stroke:none;fill-rule:evenodd;"
d="M 239.050200,133.278000
238.873780,133.293685
238.679250,133.349347
238.499907,133.443028
238.343093,133.570893
238.215228,133.727707
238.121547,133.907050
238.065885,134.101580
238.050200,134.278000
238.050200,136.278000
238.065885,136.454420
238.121547,136.648950
238.215228,136.828293
238.343093,136.985107
238.499907,137.112972
238.679250,137.206653
238.873780,137.262315
239.050200,137.278000
245.050200,137.278000
245.226620,137.262315
245.421150,137.206653
245.600493,137.112972
245.757307,136.985107
245.885172,136.828293
245.978853,136.648950
246.034515,136.454420
246.050200,136.278000
246.050200,134.278000
246.034515,134.101580
245.978853,133.907050
245.885172,133.727707
245.757307,133.570893
245.600493,133.443028
245.421150,133.349347
245.226620,133.293685
245.050200,133.278000
Z" /> 
<path style="fill:#000000; fill-opacity:1.000000; stroke:none;fill-rule:evenodd;"
d="M 178.590200,65.492000
178.494529,65.511030
178.413423,65.565223
178.359230,65.646329
178.340200,65.742000
178.340200,66.842000
178.359230,66.937671
178.413423,67.018777
178.494529,67.072970
178.590200,67.092000
179.690200,67.092000
179.785871,67.072970
179.866977,67.018777
179.921170,66.937671
179.940200,66.842000
179.940200,65.742000
179.921170,65.646329
179.866977,65.565223
179.785871,65.511030
179.690200,65.492000
Z" /> 
</g>
<g style="fill:#000000; fill-opacity:1.000000; stroke:none;">
<circle cx="181.680200" cy="66.292000" r="0.800000" /> 
</g>
<g style="fill:#000000; fill-opacity:1.000000; stroke:none;">
<circle cx="184.220200" cy="66.292000" r="0.800000" /> 
</g>
<g style="fill:#000000; fill-opacity:1.000000; stroke:none;">
<circle cx="186.760200" cy="66.292000" r="0.800000" /> 
</g>
<g style="fill:#000000; fill-opacity:1.000000; stroke:none;">
<circle cx="189.300200" cy="66.292000" r="0.800000" /> 
</g>
<g style="fill:#000000; fill-opacity:1.000000; stroke:none;">
<circle cx="191.840200" cy="66.292000" r="0.800000" /> 
</g>
<g style="fill:#000000; fill-opacity:1.000000; stroke:none;">
<circle cx="194.380200" cy="66.292000" r="0.800000" /> 
</g>
<g style="fill:#000000; fill-opacity:1.000000; stroke:none;">
<circle cx="196.920200" cy="66.292000" r="0.800000" /> 
</g>
<g style="fill:#000000; fill-opacity:1.000000; stroke:none;">
<circle cx="199.460200" cy="66.292000" r="0.800000" /> 
</g>
<g style="fill:#000000; fill-opacity:1.000000; stroke:none;">
<circle cx="202.000200" cy="66.292000" r="0.800000" /> 
</g>
<g style="fill:#000000; fill-opacity:1.000000; stroke:none;">
<circle cx="204.540200" cy="66.292000" r="0.800000" /> 
</g>
<g style="fill:#000000; fill-opacity:1.000000; stroke:none;">
<circle cx="207.080200" cy="66.292000" r="0.800000" /> 
</g>
<g style="fill:#000000; fill-opacity:1.000000; stroke:none;">
<circle cx="209.620200" cy="66.292000" r="0.800000" /> 
</g>
<g style="fill:#000000; fill-opacity:1.000000; stroke:none;">
<circle cx="212.160200" cy="66.292000" r="0.800000" /> 
</g>
<g style="fill:#000000; fill-opacity:1.000000; stroke:none;">
<circle cx="214.700200" cy="66.292000" r="0.800000" /> 
</g>
<g style="fill:#000000; fill-opacity:1.000000; stroke:none;">
<circle cx="217.240200" cy="66.292000" r="0.800000" /> 
</g>
<g style="fill:#000000; fill-opacity:1.000000; stroke:none;">
<circle cx="219.780200" cy="66.292000" r="0.800000" /> 
</g>
<g style="fill:#000000; fill-opacity:1.000000; stroke:none;">
<circle cx="222.320200" cy="66.292000" r="0.800000" /> 
</g>
<g style="fill:#000000; fill-opacity:1.000000; stroke:none;">
<circle cx="224.860200" cy="66.292000" r="0.800000" /> 
</g>
<g style="fill:#000000; fill-opacity:1.000000; stroke:none;">
<circle cx="227.400200" cy="66.292000" r="0.800000" /> 
</g>
<g style="fill:#000000; fill-opacity:1.000000; stroke:none;">
<circle cx="227.400200" cy="81.532000" r="0.800000" /> 
</g>
<g style="fill:#000000; fill-opacity:1.000000; stroke:none;">
<circle cx="224.860200" cy="81.532000" r="0.800000" /> 
</g>
<g style="fill:#000000; fill-opacity:1.000000; stroke:none;">
<circle cx="222.320200" cy="81.532000" r="0.800000" /> 
</g>
<g style="fill:#000000; fill-opacity:1.000000; stroke:none;">
<circle cx="219.780200" cy="81.532000" r="0.800000" /> 
</g>
<g style="fill:#000000; fill-opacity:1.000000; stroke:none;">
<circle cx="217.240200" cy="81.532000" r="0.800000" /> 
</g>
<g style="fill:#000000; fill-opacity:1.000000; stroke:none;">
<circle cx="214.700200" cy="81.532000" r="0.800000" /> 
</g>
<g style="fill:#000000; fill-opacity:1.000000; stroke:none;">
<circle cx="212.160200" cy="81.532000" r="0.800000" /> 
</g>
<g style="fill:#000000; fill-opacity:1.000000; stroke:none;">
<circle cx="209.620200" cy="81.532000" r="0.800000" /> 
</g>
<g style="fill:#000000; fill-opacity:1.000000; stroke:none;">
<circle cx="207.080200" cy="81.532000" r="0.800000" /> 
</g>
<g style="fill:#000000; fill-opacity:1.000000; stroke:none;">
<circle cx="204.540200" cy="81.532000" r="0.800000" /> 
</g>
<g style="fill:#000000; fill-opacity:1.000000; stroke:none;">
<circle cx="202.000200" cy="81.532000" r="0.800000" /> 
</g>
<g style="fill:#000000; fill-opacity:1.000000; stroke:none;">
<circle cx="199.460200" cy="81.532000" r="0.800000" /> 
</g>
<g style="fill:#000000; fill-opacity:1.000000; stroke:none;">
<circle cx="196.920200" cy="81.532000" r="0.800000" /> 
</g>
<g style="fill:#000000; fill-opacity:1.000000; stroke:none;">
<circle cx="194.380200" cy="81.532000" r="0.800000" /> 
</g>
<g style="fill:#000000; fill-opacity:1.000000; stroke:none;">
<circle cx="191.840200" cy="81.532000" r="0.800000" /> 
</g>
<g style="fill:#000000; fill-opacity:1.000000; stroke:none;">
<circle cx="189.300200" cy="81.532000" r="0.800000" /> 
</g>
<g style="fill:#000000; fill-opacity:1.000000; stroke:none;">
<circle cx="186.760200" cy="81.532000" r="0.800000" /> 
</g>
<g style="fill:#000000; fill-opacity:1.000000; stroke:none;">
<circle cx="184.220200" cy="81.532000" r="0.800000" /> 
</g>
<g style="fill:#000000; fill-opacity:1.000000; stroke:none;">
<circle cx="181.680200" cy="81.532000" r="0.800000" /> 
</g>
<g style="fill:#000000; fill-opacity:1.000000; stroke:none;">
<circle cx="179.140200" cy="81.532000" r="0.800000" /> 
<path style="fill:#000000; fill-opacity:1.000000; stroke:none;fill-rule:evenodd;"
d="M 239.762200,100.570000
239.666529,100.589030
239.585423,100.643223
239.531230,100.724329
239.512200,100.820000
239.512200,101.920000
239.531230,102.015671
239.585423,102.096777
239.666529,102.150970
239.762200,102.170000
240.862200,102.170000
240.957871,102.150970
241.038977,102.096777
241.093170,102.015671
241.112200,101.920000
241.112200,100.820000
241.093170,100.724329
241.038977,100.643223
240.957871,100.589030
240.862200,100.570000
Z" /> 
</g>
<g style="fill:#000000; fill-opacity:1.000000; stroke:none;">
<circle cx="240.312200" cy="103.870000" r="0.800000" /> 
</g>
<g style="fill:#000000; fill-opacity:1.000000; stroke:none;">
<circle cx="252.552200" cy="57.150000" r="3.800000" /> 
<path style="fill:#000000; fill-opacity:1.000000; stroke:none;fill-rule:evenodd;"
d="M 245.623200,110.374000
245.623200,108.874000
244.573200,108.874000
244.573200,110.374000
Z" /> 
</g>
<g style="fill:none; 
stroke:#000000; stroke-width:1.050000; stroke-opacity:1; 
stroke-linecap:round; stroke-linejoin:round;">
<path d="M243.828200 109.399000
L243.828200 109.849000
" />
<path d="M242.558200 109.399000
L242.558200 109.849000
" />
</g>
<g style="fill:#000000; fill-opacity:1.000000; stroke:none;">
<circle cx="238.090693" cy="96.576219" r="0.800000" /> 
</g>
<g style="fill:#000000; fill-opacity:1.000000; stroke:none;">
<circle cx="243.090693" cy="96.576219" r="0.800000" /> 
<path style="fill:#000000; fill-opacity:1.000000; stroke:none;fill-rule:evenodd;"
d="M 245.883200,103.414000
245.883200,104.914000
246.933200,104.914000
246.933200,103.414000
Z" /> 
</g>
<g style="fill:none; 
stroke:#000000; stroke-width:1.050000; stroke-opacity:1; 
stroke-linecap:round; stroke-linejoin:round;">
<path d="M247.678200 104.389000
L247.678200 103.939000
" />
<path d="M248.948200 104.389000
L248.948200 103.939000
" />
</g>
<g style="fill:#000000; fill-opacity:1.000000; stroke:none;">
<circle cx="221.732200" cy="113.670000" r="0.800000" /> 
</g>
<g style="fill:#000000; fill-opacity:1.000000; stroke:none;">
<circle cx="231.892200" cy="113.670000" r="0.800000" /> 
</g> 
</svg>
