<?xml version="1.0" standalone="no"?>
 <!DOCTYPE svg PUBLIC "-//W3C//DTD SVG 1.1//EN" 
 "http://www.w3.org/Graphics/SVG/1.1/DTD/svg11.dtd"> 
<svg
  xmlns:svg="http://www.w3.org/2000/svg"
  xmlns="http://www.w3.org/2000/svg"
  xmlns:xlink="http://www.w3.org/1999/xlink"
  version="1.1"
  width="297.002200mm" height="210.007200mm" viewBox="0.000000 0.000000 297.002200 210.007200">
<title>SVG Image created as zavrsni-B_Mask.svg date 2025/12/06 00:42:48 </title>
  <desc>Image generated by PCBNEW </desc>
<g style="fill:#000000; fill-opacity:1.000000;stroke:#000000; stroke-opacity:1.000000;
stroke-linecap:round; stroke-linejoin:round;"
 transform="translate(0 0) scale(1 1)">
<path style="fill:#000000; fill-opacity:1.000000; stroke:none;fill-rule:evenodd;"
d="M 190.097522,94.709860
190.193193,94.690830
190.274299,94.636637
190.328492,94.555531
190.347522,94.459860
190.347522,93.359860
190.328492,93.264189
190.274299,93.183083
190.193193,93.128890
190.097522,93.109860
188.997522,93.109860
188.901851,93.128890
188.820745,93.183083
188.766552,93.264189
188.747522,93.359860
188.747522,94.459860
188.766552,94.555531
188.820745,94.636637
188.901851,94.690830
188.997522,94.709860
Z" /> 
</g>
<g style="fill:#000000; fill-opacity:1.000000; stroke:none;">
<circle cx="189.547522" cy="91.409860" r="0.800000" /> 
</g>
<g style="fill:#000000; fill-opacity:1.000000; stroke:none;">
<circle cx="245.455333" cy="119.500000" r="0.800000" /> 
</g>
<g style="fill:#000000; fill-opacity:1.000000; stroke:none;">
<circle cx="245.455333" cy="124.500000" r="0.800000" /> 
</g>
<g style="fill:#000000; fill-opacity:1.000000; stroke:none;">
<circle cx="175.752200" cy="131.750000" r="1.000000" /> 
</g>
<g style="fill:#000000; fill-opacity:1.000000; stroke:none;">
<circle cx="175.752200" cy="138.250000" r="1.000000" /> 
</g>
<g style="fill:#000000; fill-opacity:1.000000; stroke:none;">
<circle cx="180.252200" cy="131.750000" r="1.000000" /> 
</g>
<g style="fill:#000000; fill-opacity:1.000000; stroke:none;">
<circle cx="180.252200" cy="138.250000" r="1.000000" /> 
</g>
<g style="fill:#000000; fill-opacity:1.000000; stroke:none;">
<circle cx="225.751930" cy="137.456464" r="0.800000" /> 
</g>
<g style="fill:#000000; fill-opacity:1.000000; stroke:none;">
<circle cx="220.671930" cy="137.456464" r="0.800000" /> 
</g>
<g style="fill:#000000; fill-opacity:1.000000; stroke:none;">
<circle cx="237.224200" cy="124.864000" r="0.800000" /> 
</g>
<g style="fill:#000000; fill-opacity:1.000000; stroke:none;">
<circle cx="242.224200" cy="124.864000" r="0.800000" /> 
</g>
<g style="fill:#000000; fill-opacity:1.000000; stroke:none;">
<circle cx="228.329891" cy="103.505000" r="0.800000" /> 
</g>
<g style="fill:#000000; fill-opacity:1.000000; stroke:none;">
<circle cx="228.329891" cy="100.965000" r="0.800000" /> 
<path style="fill:#000000; fill-opacity:1.000000; stroke:none;fill-rule:evenodd;"
d="M 234.425263,66.910276
234.329592,66.929306
234.248486,66.983499
234.194293,67.064605
234.175263,67.160276
234.175263,68.260276
234.194293,68.355947
234.248486,68.437053
234.329592,68.491246
234.425263,68.510276
235.525263,68.510276
235.620934,68.491246
235.702040,68.437053
235.756233,68.355947
235.775263,68.260276
235.775263,67.160276
235.756233,67.064605
235.702040,66.983499
235.620934,66.929306
235.525263,66.910276
Z" /> 
</g>
<g style="fill:#000000; fill-opacity:1.000000; stroke:none;">
<circle cx="234.975263" cy="70.210276" r="0.800000" /> 
<path style="fill:#000000; fill-opacity:1.000000; stroke:none;fill-rule:evenodd;"
d="M 212.347554,104.375538
212.443225,104.356508
212.524331,104.302315
212.578524,104.221209
212.597554,104.125538
212.597554,103.025538
212.578524,102.929867
212.524331,102.848761
212.443225,102.794568
212.347554,102.775538
211.247554,102.775538
211.151883,102.794568
211.070777,102.848761
211.016584,102.929867
210.997554,103.025538
210.997554,104.125538
211.016584,104.221209
211.070777,104.302315
211.151883,104.356508
211.247554,104.375538
Z" /> 
</g>
<g style="fill:#000000; fill-opacity:1.000000; stroke:none;">
<circle cx="211.797554" cy="101.035538" r="0.800000" /> 
</g>
<g style="fill:#000000; fill-opacity:1.000000; stroke:none;">
<circle cx="175.752200" cy="116.000000" r="1.000000" /> 
</g>
<g style="fill:#000000; fill-opacity:1.000000; stroke:none;">
<circle cx="175.752200" cy="122.500000" r="1.000000" /> 
</g>
<g style="fill:#000000; fill-opacity:1.000000; stroke:none;">
<circle cx="180.252200" cy="116.000000" r="1.000000" /> 
</g>
<g style="fill:#000000; fill-opacity:1.000000; stroke:none;">
<circle cx="180.252200" cy="122.500000" r="1.000000" /> 
<path style="fill:#000000; fill-opacity:1.000000; stroke:none;fill-rule:evenodd;"
d="M 236.235088,109.920000
236.254118,110.015671
236.308311,110.096777
236.389417,110.150970
236.485088,110.170000
237.585088,110.170000
237.680759,110.150970
237.761865,110.096777
237.816058,110.015671
237.835088,109.920000
237.835088,108.820000
237.816058,108.724329
237.761865,108.643223
237.680759,108.589030
237.585088,108.570000
236.485088,108.570000
236.389417,108.589030
236.308311,108.643223
236.254118,108.724329
236.235088,108.820000
Z" /> 
</g>
<g style="fill:#000000; fill-opacity:1.000000; stroke:none;">
<circle cx="239.535088" cy="109.370000" r="0.800000" /> 
<path style="fill:#000000; fill-opacity:1.000000; stroke:none;fill-rule:evenodd;"
d="M 230.966004,140.677557
230.985034,140.773228
231.039227,140.854334
231.120333,140.908527
231.216004,140.927557
232.316004,140.927557
232.411675,140.908527
232.492781,140.854334
232.546974,140.773228
232.566004,140.677557
232.566004,139.577557
232.546974,139.481886
232.492781,139.400780
232.411675,139.346587
232.316004,139.327557
231.216004,139.327557
231.120333,139.346587
231.039227,139.400780
230.985034,139.481886
230.966004,139.577557
Z" /> 
</g>
<g style="fill:#000000; fill-opacity:1.000000; stroke:none;">
<circle cx="234.266004" cy="140.127557" r="0.800000" /> 
</g>
<g style="fill:#000000; fill-opacity:1.000000; stroke:none;">
<circle cx="241.172351" cy="91.464260" r="0.800000" /> 
</g>
<g style="fill:#000000; fill-opacity:1.000000; stroke:none;">
<circle cx="241.172351" cy="94.004260" r="0.800000" /> 
</g>
<g style="fill:#000000; fill-opacity:1.000000; stroke:none;">
<circle cx="225.271325" cy="103.498707" r="0.800000" /> 
</g>
<g style="fill:#000000; fill-opacity:1.000000; stroke:none;">
<circle cx="225.271325" cy="100.958707" r="0.800000" /> 
</g>
<g style="fill:#000000; fill-opacity:1.000000; stroke:none;">
<circle cx="186.210200" cy="62.214000" r="0.800000" /> 
</g>
<g style="fill:#000000; fill-opacity:1.000000; stroke:none;">
<circle cx="186.210200" cy="57.214000" r="0.800000" /> 
</g>
<g style="fill:#000000; fill-opacity:1.000000; stroke:none;">
<circle cx="218.143507" cy="140.454880" r="0.800000" /> 
</g>
<g style="fill:#000000; fill-opacity:1.000000; stroke:none;">
<circle cx="218.143507" cy="142.954880" r="0.800000" /> 
<path style="fill:#000000; fill-opacity:1.000000; stroke:none;fill-rule:evenodd;"
d="M 232.462004,128.020223
232.366333,128.039253
232.285227,128.093446
232.231034,128.174552
232.212004,128.270223
232.212004,129.370223
232.231034,129.465894
232.285227,129.547000
232.366333,129.601193
232.462004,129.620223
233.562004,129.620223
233.657675,129.601193
233.738781,129.547000
233.792974,129.465894
233.812004,129.370223
233.812004,128.270223
233.792974,128.174552
233.738781,128.093446
233.657675,128.039253
233.562004,128.020223
Z" /> 
</g>
<g style="fill:#000000; fill-opacity:1.000000; stroke:none;">
<circle cx="233.012004" cy="131.320223" r="0.800000" /> 
<path style="fill:#000000; fill-opacity:1.000000; stroke:none;fill-rule:evenodd;"
d="M 214.921704,121.717682
215.017375,121.698652
215.098481,121.644459
215.152674,121.563353
215.171704,121.467682
215.171704,120.367682
215.152674,120.272011
215.098481,120.190905
215.017375,120.136712
214.921704,120.117682
213.821704,120.117682
213.726033,120.136712
213.644927,120.190905
213.590734,120.272011
213.571704,120.367682
213.571704,121.467682
213.590734,121.563353
213.644927,121.644459
213.726033,121.698652
213.821704,121.717682
Z" /> 
</g>
<g style="fill:#000000; fill-opacity:1.000000; stroke:none;">
<circle cx="214.371704" cy="118.417682" r="0.800000" /> 
<path style="fill:#000000; fill-opacity:1.000000; stroke:none;fill-rule:evenodd;"
d="M 223.032200,87.730000
223.013170,87.634329
222.958977,87.553223
222.877871,87.499030
222.782200,87.480000
221.682200,87.480000
221.586529,87.499030
221.505423,87.553223
221.451230,87.634329
221.432200,87.730000
221.432200,88.830000
221.451230,88.925671
221.505423,89.006777
221.586529,89.060970
221.682200,89.080000
222.782200,89.080000
222.877871,89.060970
222.958977,89.006777
223.013170,88.925671
223.032200,88.830000
Z" /> 
</g>
<g style="fill:#000000; fill-opacity:1.000000; stroke:none;">
<circle cx="222.232200" cy="90.820000" r="0.800000" /> 
</g>
<g style="fill:#000000; fill-opacity:1.000000; stroke:none;">
<circle cx="222.232200" cy="93.360000" r="0.800000" /> 
</g>
<g style="fill:#000000; fill-opacity:1.000000; stroke:none;">
<circle cx="222.232200" cy="95.900000" r="0.800000" /> 
</g>
<g style="fill:#000000; fill-opacity:1.000000; stroke:none;">
<circle cx="222.232200" cy="98.440000" r="0.800000" /> 
</g>
<g style="fill:#000000; fill-opacity:1.000000; stroke:none;">
<circle cx="222.232200" cy="100.980000" r="0.800000" /> 
</g>
<g style="fill:#000000; fill-opacity:1.000000; stroke:none;">
<circle cx="222.232200" cy="103.520000" r="0.800000" /> 
</g>
<g style="fill:#000000; fill-opacity:1.000000; stroke:none;">
<circle cx="214.612200" cy="103.520000" r="0.800000" /> 
</g>
<g style="fill:#000000; fill-opacity:1.000000; stroke:none;">
<circle cx="214.612200" cy="100.980000" r="0.800000" /> 
</g>
<g style="fill:#000000; fill-opacity:1.000000; stroke:none;">
<circle cx="214.612200" cy="98.440000" r="0.800000" /> 
</g>
<g style="fill:#000000; fill-opacity:1.000000; stroke:none;">
<circle cx="214.612200" cy="95.900000" r="0.800000" /> 
</g>
<g style="fill:#000000; fill-opacity:1.000000; stroke:none;">
<circle cx="214.612200" cy="93.360000" r="0.800000" /> 
</g>
<g style="fill:#000000; fill-opacity:1.000000; stroke:none;">
<circle cx="214.612200" cy="90.820000" r="0.800000" /> 
</g>
<g style="fill:#000000; fill-opacity:1.000000; stroke:none;">
<circle cx="214.612200" cy="88.280000" r="0.800000" /> 
</g>
<g style="fill:#000000; fill-opacity:1.000000; stroke:none;">
<circle cx="217.232200" cy="106.642585" r="0.800000" /> 
</g>
<g style="fill:#000000; fill-opacity:1.000000; stroke:none;">
<circle cx="222.312200" cy="106.642585" r="0.800000" /> 
</g>
<g style="fill:#000000; fill-opacity:1.000000; stroke:none;">
<circle cx="237.224200" cy="131.214000" r="0.800000" /> 
</g>
<g style="fill:#000000; fill-opacity:1.000000; stroke:none;">
<circle cx="247.384200" cy="131.214000" r="0.800000" /> 
</g>
<g style="fill:#000000; fill-opacity:1.000000; stroke:none;">
<circle cx="215.040593" cy="142.206470" r="0.800000" /> 
</g>
<g style="fill:#000000; fill-opacity:1.000000; stroke:none;">
<circle cx="212.500593" cy="142.206470" r="0.800000" /> 
</g>
<g style="fill:#000000; fill-opacity:1.000000; stroke:none;">
<circle cx="235.744305" cy="76.859423" r="1.750000" /> 
<path style="fill:#000000; fill-opacity:1.000000; stroke:none;fill-rule:evenodd;"
d="M 239.236805,94.519423
239.236805,92.519423
237.331805,92.519423
237.331805,94.519423
Z" /> 
</g>
<g style="fill:none; 
stroke:#000000; stroke-width:1.905000; stroke-opacity:1; 
stroke-linecap:round; stroke-linejoin:round;">
<path d="M235.744305 93.471923
L235.744305 93.566923
" />
<path d="M233.204305 93.471923
L233.204305 93.566923
" />
<path style="fill:#000000; fill-opacity:1.000000; stroke:none;fill-rule:evenodd;"
d="M 191.078200,63.243112
191.173871,63.224082
191.254977,63.169889
191.309170,63.088783
191.328200,62.993112
191.328200,61.893112
191.309170,61.797441
191.254977,61.716335
191.173871,61.662142
191.078200,61.643112
189.978200,61.643112
189.882529,61.662142
189.801423,61.716335
189.747230,61.797441
189.728200,61.893112
189.728200,62.993112
189.747230,63.088783
189.801423,63.169889
189.882529,63.224082
189.978200,63.243112
Z" /> 
</g>
<g style="fill:#000000; fill-opacity:1.000000; stroke:none;">
<circle cx="190.528200" cy="59.943112" r="0.800000" /> 
</g>
<g style="fill:#000000; fill-opacity:1.000000; stroke:none;">
<circle cx="154.252200" cy="122.500000" r="1.000000" /> 
</g>
<g style="fill:#000000; fill-opacity:1.000000; stroke:none;">
<circle cx="154.252200" cy="116.000000" r="1.000000" /> 
</g>
<g style="fill:#000000; fill-opacity:1.000000; stroke:none;">
<circle cx="149.752200" cy="122.500000" r="1.000000" /> 
</g>
<g style="fill:#000000; fill-opacity:1.000000; stroke:none;">
<circle cx="149.752200" cy="116.000000" r="1.000000" /> 
</g>
<g style="fill:#000000; fill-opacity:1.000000; stroke:none;">
<circle cx="230.891126" cy="98.342831" r="0.800000" /> 
</g>
<g style="fill:#000000; fill-opacity:1.000000; stroke:none;">
<circle cx="235.891126" cy="98.342831" r="0.800000" /> 
<path style="fill:#000000; fill-opacity:1.000000; stroke:none;fill-rule:evenodd;"
d="M 229.098472,135.152813
229.194143,135.133783
229.275249,135.079590
229.329442,134.998484
229.348472,134.902813
229.348472,133.802813
229.329442,133.707142
229.275249,133.626036
229.194143,133.571843
229.098472,133.552813
227.998472,133.552813
227.902801,133.571843
227.821695,133.626036
227.767502,133.707142
227.748472,133.802813
227.748472,134.902813
227.767502,134.998484
227.821695,135.079590
227.902801,135.133783
227.998472,135.152813
Z" /> 
</g>
<g style="fill:#000000; fill-opacity:1.000000; stroke:none;">
<circle cx="226.008472" cy="134.352813" r="0.800000" /> 
</g>
<g style="fill:#000000; fill-opacity:1.000000; stroke:none;">
<circle cx="223.468472" cy="134.352813" r="0.800000" /> 
</g>
<g style="fill:#000000; fill-opacity:1.000000; stroke:none;">
<circle cx="220.928472" cy="134.352813" r="0.800000" /> 
</g>
<g style="fill:#000000; fill-opacity:1.000000; stroke:none;">
<circle cx="220.928472" cy="126.732813" r="0.800000" /> 
</g>
<g style="fill:#000000; fill-opacity:1.000000; stroke:none;">
<circle cx="223.468472" cy="126.732813" r="0.800000" /> 
</g>
<g style="fill:#000000; fill-opacity:1.000000; stroke:none;">
<circle cx="226.008472" cy="126.732813" r="0.800000" /> 
</g>
<g style="fill:#000000; fill-opacity:1.000000; stroke:none;">
<circle cx="228.548472" cy="126.732813" r="0.800000" /> 
</g>
<g style="fill:#000000; fill-opacity:1.000000; stroke:none;">
<circle cx="192.814703" cy="85.725000" r="0.800000" /> 
</g>
<g style="fill:#000000; fill-opacity:1.000000; stroke:none;">
<circle cx="187.814703" cy="85.725000" r="0.800000" /> 
<path style="fill:#000000; fill-opacity:1.000000; stroke:none;fill-rule:evenodd;"
d="M 217.462200,85.867774
217.481230,85.963445
217.535423,86.044551
217.616529,86.098744
217.712200,86.117774
218.812200,86.117774
218.907871,86.098744
218.988977,86.044551
219.043170,85.963445
219.062200,85.867774
219.062200,84.767774
219.043170,84.672103
218.988977,84.590997
218.907871,84.536804
218.812200,84.517774
217.712200,84.517774
217.616529,84.536804
217.535423,84.590997
217.481230,84.672103
217.462200,84.767774
Z" /> 
</g>
<g style="fill:#000000; fill-opacity:1.000000; stroke:none;">
<circle cx="220.802200" cy="85.317774" r="0.800000" /> 
<path style="fill:#000000; fill-opacity:1.000000; stroke:none;fill-rule:evenodd;"
d="M 246.333349,98.451362
246.352379,98.547033
246.406572,98.628139
246.487678,98.682332
246.583349,98.701362
247.683349,98.701362
247.779020,98.682332
247.860126,98.628139
247.914319,98.547033
247.933349,98.451362
247.933349,97.351362
247.914319,97.255691
247.860126,97.174585
247.779020,97.120392
247.683349,97.101362
246.583349,97.101362
246.487678,97.120392
246.406572,97.174585
246.352379,97.255691
246.333349,97.351362
Z" /> 
</g>
<g style="fill:#000000; fill-opacity:1.000000; stroke:none;">
<circle cx="249.633349" cy="97.901362" r="0.800000" /> 
<path style="fill:#000000; fill-opacity:1.000000; stroke:none;fill-rule:evenodd;"
d="M 216.104550,137.310664
216.085520,137.214993
216.031327,137.133887
215.950221,137.079694
215.854550,137.060664
214.754550,137.060664
214.658879,137.079694
214.577773,137.133887
214.523580,137.214993
214.504550,137.310664
214.504550,138.410664
214.523580,138.506335
214.577773,138.587441
214.658879,138.641634
214.754550,138.660664
215.854550,138.660664
215.950221,138.641634
216.031327,138.587441
216.085520,138.506335
216.104550,138.410664
Z" /> 
</g>
<g style="fill:#000000; fill-opacity:1.000000; stroke:none;">
<circle cx="212.804550" cy="137.860664" r="0.800000" /> 
</g>
<g style="fill:#000000; fill-opacity:1.000000; stroke:none;">
<circle cx="230.660200" cy="67.532000" r="0.800000" /> 
</g>
<g style="fill:#000000; fill-opacity:1.000000; stroke:none;">
<circle cx="230.660200" cy="72.532000" r="0.800000" /> 
</g>
<g style="fill:#000000; fill-opacity:1.000000; stroke:none;">
<circle cx="128.252200" cy="138.250000" r="1.000000" /> 
</g>
<g style="fill:#000000; fill-opacity:1.000000; stroke:none;">
<circle cx="128.252200" cy="131.750000" r="1.000000" /> 
</g>
<g style="fill:#000000; fill-opacity:1.000000; stroke:none;">
<circle cx="123.752200" cy="138.250000" r="1.000000" /> 
</g>
<g style="fill:#000000; fill-opacity:1.000000; stroke:none;">
<circle cx="123.752200" cy="131.750000" r="1.000000" /> 
</g>
<g style="fill:#000000; fill-opacity:1.000000; stroke:none;">
<circle cx="116.662200" cy="60.000000" r="3.800000" /> 
</g>
<g style="fill:#000000; fill-opacity:1.000000; stroke:none;">
<circle cx="247.384200" cy="127.912000" r="0.800000" /> 
</g>
<g style="fill:#000000; fill-opacity:1.000000; stroke:none;">
<circle cx="237.224200" cy="127.912000" r="0.800000" /> 
</g>
<g style="fill:#000000; fill-opacity:1.000000; stroke:none;">
<circle cx="221.379616" cy="123.682417" r="0.800000" /> 
</g>
<g style="fill:#000000; fill-opacity:1.000000; stroke:none;">
<circle cx="218.839616" cy="123.682417" r="0.800000" /> 
<path style="fill:#000000; fill-opacity:1.000000; stroke:none;fill-rule:evenodd;"
d="M 225.210430,120.011944
225.210430,121.811944
227.010430,121.811944
227.010430,120.011944
Z" /> 
</g>
<g style="fill:#000000; fill-opacity:1.000000; stroke:none;">
<circle cx="223.610430" cy="120.911944" r="0.900000" /> 
</g>
<g style="fill:#000000; fill-opacity:1.000000; stroke:none;">
<circle cx="221.110430" cy="120.911944" r="0.900000" /> 
</g>
<g style="fill:none; 
stroke:#000000; stroke-width:2.720000; stroke-opacity:1; 
stroke-linecap:round; stroke-linejoin:round;">
<path d="M228.410430 113.671944
L228.410430 113.151944
" />
<path d="M218.810430 113.671944
L218.810430 113.151944
" />
<path style="fill:#000000; fill-opacity:1.000000; stroke:none;fill-rule:evenodd;"
d="M 243.104200,113.392000
243.085170,113.296329
243.030977,113.215223
242.949871,113.161030
242.854200,113.142000
241.754200,113.142000
241.658529,113.161030
241.577423,113.215223
241.523230,113.296329
241.504200,113.392000
241.504200,114.492000
241.523230,114.587671
241.577423,114.668777
241.658529,114.722970
241.754200,114.742000
242.854200,114.742000
242.949871,114.722970
243.030977,114.668777
243.085170,114.587671
243.104200,114.492000
Z" /> 
</g>
<g style="fill:#000000; fill-opacity:1.000000; stroke:none;">
<circle cx="242.304200" cy="116.482000" r="0.800000" /> 
</g>
<g style="fill:#000000; fill-opacity:1.000000; stroke:none;">
<circle cx="242.304200" cy="119.022000" r="0.800000" /> 
</g>
<g style="fill:#000000; fill-opacity:1.000000; stroke:none;">
<circle cx="242.304200" cy="121.562000" r="0.800000" /> 
</g>
<g style="fill:#000000; fill-opacity:1.000000; stroke:none;">
<circle cx="234.684200" cy="121.562000" r="0.800000" /> 
</g>
<g style="fill:#000000; fill-opacity:1.000000; stroke:none;">
<circle cx="234.684200" cy="119.022000" r="0.800000" /> 
</g>
<g style="fill:#000000; fill-opacity:1.000000; stroke:none;">
<circle cx="234.684200" cy="116.482000" r="0.800000" /> 
</g>
<g style="fill:#000000; fill-opacity:1.000000; stroke:none;">
<circle cx="234.684200" cy="113.942000" r="0.800000" /> 
</g>
<g style="fill:#000000; fill-opacity:1.000000; stroke:none;">
<circle cx="217.472006" cy="129.770172" r="0.800000" /> 
</g>
<g style="fill:#000000; fill-opacity:1.000000; stroke:none;">
<circle cx="217.472006" cy="134.770172" r="0.800000" /> 
<path style="fill:#000000; fill-opacity:1.000000; stroke:none;fill-rule:evenodd;"
d="M 232.210200,65.537112
232.305871,65.518082
232.386977,65.463889
232.441170,65.382783
232.460200,65.287112
232.460200,64.187112
232.441170,64.091441
232.386977,64.010335
232.305871,63.956142
232.210200,63.937112
231.110200,63.937112
231.014529,63.956142
230.933423,64.010335
230.879230,64.091441
230.860200,64.187112
230.860200,65.287112
230.879230,65.382783
230.933423,65.463889
231.014529,65.518082
231.110200,65.537112
Z" /> 
</g>
<g style="fill:#000000; fill-opacity:1.000000; stroke:none;">
<circle cx="231.660200" cy="62.237112" r="0.800000" /> 
</g>
<g style="fill:#000000; fill-opacity:1.000000; stroke:none;">
<circle cx="128.252200" cy="122.500000" r="1.000000" /> 
</g>
<g style="fill:#000000; fill-opacity:1.000000; stroke:none;">
<circle cx="128.252200" cy="116.000000" r="1.000000" /> 
</g>
<g style="fill:#000000; fill-opacity:1.000000; stroke:none;">
<circle cx="123.752200" cy="122.500000" r="1.000000" /> 
</g>
<g style="fill:#000000; fill-opacity:1.000000; stroke:none;">
<circle cx="123.752200" cy="116.000000" r="1.000000" /> 
</g>
<g style="fill:#000000; fill-opacity:1.000000; stroke:none;">
<circle cx="201.752200" cy="116.000000" r="1.000000" /> 
</g>
<g style="fill:#000000; fill-opacity:1.000000; stroke:none;">
<circle cx="201.752200" cy="122.500000" r="1.000000" /> 
</g>
<g style="fill:#000000; fill-opacity:1.000000; stroke:none;">
<circle cx="206.252200" cy="116.000000" r="1.000000" /> 
</g>
<g style="fill:#000000; fill-opacity:1.000000; stroke:none;">
<circle cx="206.252200" cy="122.500000" r="1.000000" /> 
</g>
<g style="fill:#000000; fill-opacity:1.000000; stroke:none;">
<circle cx="244.198004" cy="93.092580" r="0.800000" /> 
</g>
<g style="fill:#000000; fill-opacity:1.000000; stroke:none;">
<circle cx="244.198004" cy="90.552580" r="0.800000" /> 
</g>
<g style="fill:#000000; fill-opacity:1.000000; stroke:none;">
<circle cx="228.329891" cy="98.337650" r="0.800000" /> 
</g>
<g style="fill:#000000; fill-opacity:1.000000; stroke:none;">
<circle cx="228.329891" cy="93.257650" r="0.800000" /> 
</g>
<g style="fill:#000000; fill-opacity:1.000000; stroke:none;">
<circle cx="116.662200" cy="142.500000" r="3.800000" /> 
</g>
<g style="fill:#000000; fill-opacity:1.000000; stroke:none;">
<circle cx="154.252200" cy="138.250000" r="1.000000" /> 
</g>
<g style="fill:#000000; fill-opacity:1.000000; stroke:none;">
<circle cx="154.252200" cy="131.750000" r="1.000000" /> 
</g>
<g style="fill:#000000; fill-opacity:1.000000; stroke:none;">
<circle cx="149.752200" cy="138.250000" r="1.000000" /> 
</g>
<g style="fill:#000000; fill-opacity:1.000000; stroke:none;">
<circle cx="149.752200" cy="131.750000" r="1.000000" /> 
<path style="fill:#000000; fill-opacity:1.000000; stroke:none;fill-rule:evenodd;"
d="M 186.017060,86.561103
186.017060,84.861103
184.317060,84.861103
184.317060,86.561103
Z" /> 
</g>
<g style="fill:#000000; fill-opacity:1.000000; stroke:none;">
<circle cx="185.167060" cy="88.251103" r="0.850000" /> 
</g>
<g style="fill:#000000; fill-opacity:1.000000; stroke:none;">
<circle cx="185.167060" cy="90.791103" r="0.850000" /> 
</g>
<g style="fill:#000000; fill-opacity:1.000000; stroke:none;">
<circle cx="185.167060" cy="93.331103" r="0.850000" /> 
</g>
<g style="fill:#000000; fill-opacity:1.000000; stroke:none;">
<circle cx="185.167060" cy="95.871103" r="0.850000" /> 
</g>
<g style="fill:#000000; fill-opacity:1.000000; stroke:none;">
<circle cx="185.167060" cy="98.411103" r="0.850000" /> 
</g>
<g style="fill:#000000; fill-opacity:1.000000; stroke:none;">
<circle cx="185.167060" cy="100.951103" r="0.850000" /> 
</g>
<g style="fill:#000000; fill-opacity:1.000000; stroke:none;">
<circle cx="185.167060" cy="103.491103" r="0.850000" /> 
</g>
<g style="fill:#000000; fill-opacity:1.000000; stroke:none;">
<circle cx="185.167060" cy="106.031103" r="0.850000" /> 
</g>
<g style="fill:#000000; fill-opacity:1.000000; stroke:none;">
<circle cx="252.552200" cy="142.500000" r="3.800000" /> 
</g>
<g style="fill:#000000; fill-opacity:1.000000; stroke:none;">
<circle cx="201.752200" cy="131.750000" r="1.000000" /> 
</g>
<g style="fill:#000000; fill-opacity:1.000000; stroke:none;">
<circle cx="201.752200" cy="138.250000" r="1.000000" /> 
</g>
<g style="fill:#000000; fill-opacity:1.000000; stroke:none;">
<circle cx="206.252200" cy="131.750000" r="1.000000" /> 
</g>
<g style="fill:#000000; fill-opacity:1.000000; stroke:none;">
<circle cx="206.252200" cy="138.250000" r="1.000000" /> 
<path style="fill:#000000; fill-opacity:1.000000; stroke:none;fill-rule:evenodd;"
d="M 178.590200,65.492000
178.494529,65.511030
178.413423,65.565223
178.359230,65.646329
178.340200,65.742000
178.340200,66.842000
178.359230,66.937671
178.413423,67.018777
178.494529,67.072970
178.590200,67.092000
179.690200,67.092000
179.785871,67.072970
179.866977,67.018777
179.921170,66.937671
179.940200,66.842000
179.940200,65.742000
179.921170,65.646329
179.866977,65.565223
179.785871,65.511030
179.690200,65.492000
Z" /> 
</g>
<g style="fill:#000000; fill-opacity:1.000000; stroke:none;">
<circle cx="181.680200" cy="66.292000" r="0.800000" /> 
</g>
<g style="fill:#000000; fill-opacity:1.000000; stroke:none;">
<circle cx="184.220200" cy="66.292000" r="0.800000" /> 
</g>
<g style="fill:#000000; fill-opacity:1.000000; stroke:none;">
<circle cx="186.760200" cy="66.292000" r="0.800000" /> 
</g>
<g style="fill:#000000; fill-opacity:1.000000; stroke:none;">
<circle cx="189.300200" cy="66.292000" r="0.800000" /> 
</g>
<g style="fill:#000000; fill-opacity:1.000000; stroke:none;">
<circle cx="191.840200" cy="66.292000" r="0.800000" /> 
</g>
<g style="fill:#000000; fill-opacity:1.000000; stroke:none;">
<circle cx="194.380200" cy="66.292000" r="0.800000" /> 
</g>
<g style="fill:#000000; fill-opacity:1.000000; stroke:none;">
<circle cx="196.920200" cy="66.292000" r="0.800000" /> 
</g>
<g style="fill:#000000; fill-opacity:1.000000; stroke:none;">
<circle cx="199.460200" cy="66.292000" r="0.800000" /> 
</g>
<g style="fill:#000000; fill-opacity:1.000000; stroke:none;">
<circle cx="202.000200" cy="66.292000" r="0.800000" /> 
</g>
<g style="fill:#000000; fill-opacity:1.000000; stroke:none;">
<circle cx="204.540200" cy="66.292000" r="0.800000" /> 
</g>
<g style="fill:#000000; fill-opacity:1.000000; stroke:none;">
<circle cx="207.080200" cy="66.292000" r="0.800000" /> 
</g>
<g style="fill:#000000; fill-opacity:1.000000; stroke:none;">
<circle cx="209.620200" cy="66.292000" r="0.800000" /> 
</g>
<g style="fill:#000000; fill-opacity:1.000000; stroke:none;">
<circle cx="212.160200" cy="66.292000" r="0.800000" /> 
</g>
<g style="fill:#000000; fill-opacity:1.000000; stroke:none;">
<circle cx="214.700200" cy="66.292000" r="0.800000" /> 
</g>
<g style="fill:#000000; fill-opacity:1.000000; stroke:none;">
<circle cx="217.240200" cy="66.292000" r="0.800000" /> 
</g>
<g style="fill:#000000; fill-opacity:1.000000; stroke:none;">
<circle cx="219.780200" cy="66.292000" r="0.800000" /> 
</g>
<g style="fill:#000000; fill-opacity:1.000000; stroke:none;">
<circle cx="222.320200" cy="66.292000" r="0.800000" /> 
</g>
<g style="fill:#000000; fill-opacity:1.000000; stroke:none;">
<circle cx="224.860200" cy="66.292000" r="0.800000" /> 
</g>
<g style="fill:#000000; fill-opacity:1.000000; stroke:none;">
<circle cx="227.400200" cy="66.292000" r="0.800000" /> 
</g>
<g style="fill:#000000; fill-opacity:1.000000; stroke:none;">
<circle cx="227.400200" cy="81.532000" r="0.800000" /> 
</g>
<g style="fill:#000000; fill-opacity:1.000000; stroke:none;">
<circle cx="224.860200" cy="81.532000" r="0.800000" /> 
</g>
<g style="fill:#000000; fill-opacity:1.000000; stroke:none;">
<circle cx="222.320200" cy="81.532000" r="0.800000" /> 
</g>
<g style="fill:#000000; fill-opacity:1.000000; stroke:none;">
<circle cx="219.780200" cy="81.532000" r="0.800000" /> 
</g>
<g style="fill:#000000; fill-opacity:1.000000; stroke:none;">
<circle cx="217.240200" cy="81.532000" r="0.800000" /> 
</g>
<g style="fill:#000000; fill-opacity:1.000000; stroke:none;">
<circle cx="214.700200" cy="81.532000" r="0.800000" /> 
</g>
<g style="fill:#000000; fill-opacity:1.000000; stroke:none;">
<circle cx="212.160200" cy="81.532000" r="0.800000" /> 
</g>
<g style="fill:#000000; fill-opacity:1.000000; stroke:none;">
<circle cx="209.620200" cy="81.532000" r="0.800000" /> 
</g>
<g style="fill:#000000; fill-opacity:1.000000; stroke:none;">
<circle cx="207.080200" cy="81.532000" r="0.800000" /> 
</g>
<g style="fill:#000000; fill-opacity:1.000000; stroke:none;">
<circle cx="204.540200" cy="81.532000" r="0.800000" /> 
</g>
<g style="fill:#000000; fill-opacity:1.000000; stroke:none;">
<circle cx="202.000200" cy="81.532000" r="0.800000" /> 
</g>
<g style="fill:#000000; fill-opacity:1.000000; stroke:none;">
<circle cx="199.460200" cy="81.532000" r="0.800000" /> 
</g>
<g style="fill:#000000; fill-opacity:1.000000; stroke:none;">
<circle cx="196.920200" cy="81.532000" r="0.800000" /> 
</g>
<g style="fill:#000000; fill-opacity:1.000000; stroke:none;">
<circle cx="194.380200" cy="81.532000" r="0.800000" /> 
</g>
<g style="fill:#000000; fill-opacity:1.000000; stroke:none;">
<circle cx="191.840200" cy="81.532000" r="0.800000" /> 
</g>
<g style="fill:#000000; fill-opacity:1.000000; stroke:none;">
<circle cx="189.300200" cy="81.532000" r="0.800000" /> 
</g>
<g style="fill:#000000; fill-opacity:1.000000; stroke:none;">
<circle cx="186.760200" cy="81.532000" r="0.800000" /> 
</g>
<g style="fill:#000000; fill-opacity:1.000000; stroke:none;">
<circle cx="184.220200" cy="81.532000" r="0.800000" /> 
</g>
<g style="fill:#000000; fill-opacity:1.000000; stroke:none;">
<circle cx="181.680200" cy="81.532000" r="0.800000" /> 
</g>
<g style="fill:#000000; fill-opacity:1.000000; stroke:none;">
<circle cx="179.140200" cy="81.532000" r="0.800000" /> 
<path style="fill:#000000; fill-opacity:1.000000; stroke:none;fill-rule:evenodd;"
d="M 239.762200,100.570000
239.666529,100.589030
239.585423,100.643223
239.531230,100.724329
239.512200,100.820000
239.512200,101.920000
239.531230,102.015671
239.585423,102.096777
239.666529,102.150970
239.762200,102.170000
240.862200,102.170000
240.957871,102.150970
241.038977,102.096777
241.093170,102.015671
241.112200,101.920000
241.112200,100.820000
241.093170,100.724329
241.038977,100.643223
240.957871,100.589030
240.862200,100.570000
Z" /> 
</g>
<g style="fill:#000000; fill-opacity:1.000000; stroke:none;">
<circle cx="240.312200" cy="103.870000" r="0.800000" /> 
</g>
<g style="fill:#000000; fill-opacity:1.000000; stroke:none;">
<circle cx="252.552200" cy="60.000000" r="3.800000" /> 
<path style="fill:#000000; fill-opacity:1.000000; stroke:none;fill-rule:evenodd;"
d="M 242.033200,108.857587
242.033200,110.357587
243.083200,110.357587
243.083200,108.857587
Z" /> 
</g>
<g style="fill:none; 
stroke:#000000; stroke-width:1.050000; stroke-opacity:1; 
stroke-linecap:round; stroke-linejoin:round;">
<path d="M243.828200 109.832587
L243.828200 109.382587
" />
<path d="M245.098200 109.832587
L245.098200 109.382587
" />
</g>
<g style="fill:#000000; fill-opacity:1.000000; stroke:none;">
<circle cx="238.018696" cy="96.612986" r="0.800000" /> 
</g>
<g style="fill:#000000; fill-opacity:1.000000; stroke:none;">
<circle cx="243.018696" cy="96.612986" r="0.800000" /> 
<path style="fill:#000000; fill-opacity:1.000000; stroke:none;fill-rule:evenodd;"
d="M 245.883200,103.414000
245.883200,104.914000
246.933200,104.914000
246.933200,103.414000
Z" /> 
</g>
<g style="fill:none; 
stroke:#000000; stroke-width:1.050000; stroke-opacity:1; 
stroke-linecap:round; stroke-linejoin:round;">
<path d="M247.678200 104.389000
L247.678200 103.939000
" />
<path d="M248.948200 104.389000
L248.948200 103.939000
" />
</g>
<g style="fill:#000000; fill-opacity:1.000000; stroke:none;">
<circle cx="215.507993" cy="109.682403" r="0.800000" /> 
</g>
<g style="fill:#000000; fill-opacity:1.000000; stroke:none;">
<circle cx="215.507993" cy="114.762403" r="0.800000" /> 
</g> 
</svg>
