<?xml version="1.0" standalone="no"?>
 <!DOCTYPE svg PUBLIC "-//W3C//DTD SVG 1.1//EN" 
 "http://www.w3.org/Graphics/SVG/1.1/DTD/svg11.dtd"> 
<svg
  xmlns:svg="http://www.w3.org/2000/svg"
  xmlns="http://www.w3.org/2000/svg"
  xmlns:xlink="http://www.w3.org/1999/xlink"
  version="1.1"
  width="297.002200mm" height="210.007200mm" viewBox="0.000000 0.000000 297.002200 210.007200">
<title>SVG Image created as zavrsni-F_Mask.svg date 2025/12/19 09:24:23 </title>
  <desc>Image generated by PCBNEW </desc>
<g style="fill:#000000; fill-opacity:1.000000;stroke:#000000; stroke-opacity:1.000000;
stroke-linecap:round; stroke-linejoin:round;"
 transform="translate(0 0) scale(1 1)">
</g>
<g style="fill:#000000; fill-opacity:1.000000; stroke:none;">
<circle cx="214.612200" cy="88.280000" r="0.800000" /> 
</g>
<g style="fill:#000000; fill-opacity:1.000000; stroke:none;">
<circle cx="214.612200" cy="90.820000" r="0.800000" /> 
</g>
<g style="fill:#000000; fill-opacity:1.000000; stroke:none;">
<circle cx="214.612200" cy="93.360000" r="0.800000" /> 
</g>
<g style="fill:#000000; fill-opacity:1.000000; stroke:none;">
<circle cx="214.612200" cy="95.900000" r="0.800000" /> 
</g>
<g style="fill:#000000; fill-opacity:1.000000; stroke:none;">
<circle cx="214.612200" cy="98.440000" r="0.800000" /> 
</g>
<g style="fill:#000000; fill-opacity:1.000000; stroke:none;">
<circle cx="214.612200" cy="100.980000" r="0.800000" /> 
</g>
<g style="fill:#000000; fill-opacity:1.000000; stroke:none;">
<circle cx="214.612200" cy="103.520000" r="0.800000" /> 
</g>
<g style="fill:#000000; fill-opacity:1.000000; stroke:none;">
<circle cx="222.232200" cy="103.520000" r="0.800000" /> 
</g>
<g style="fill:#000000; fill-opacity:1.000000; stroke:none;">
<circle cx="222.232200" cy="100.980000" r="0.800000" /> 
</g>
<g style="fill:#000000; fill-opacity:1.000000; stroke:none;">
<circle cx="222.232200" cy="98.440000" r="0.800000" /> 
</g>
<g style="fill:#000000; fill-opacity:1.000000; stroke:none;">
<circle cx="222.232200" cy="95.900000" r="0.800000" /> 
</g>
<g style="fill:#000000; fill-opacity:1.000000; stroke:none;">
<circle cx="222.232200" cy="93.360000" r="0.800000" /> 
</g>
<g style="fill:#000000; fill-opacity:1.000000; stroke:none;">
<circle cx="222.232200" cy="90.820000" r="0.800000" /> 
<path style="fill:#000000; fill-opacity:1.000000; stroke:none;fill-rule:evenodd;"
d="M 223.032200,87.730000
223.013170,87.634329
222.958977,87.553223
222.877871,87.499030
222.782200,87.480000
221.682200,87.480000
221.586529,87.499030
221.505423,87.553223
221.451230,87.634329
221.432200,87.730000
221.432200,88.830000
221.451230,88.925671
221.505423,89.006777
221.586529,89.060970
221.682200,89.080000
222.782200,89.080000
222.877871,89.060970
222.958977,89.006777
223.013170,88.925671
223.032200,88.830000
Z" /> 
<path style="fill:#000000; fill-opacity:1.000000; stroke:none;fill-rule:evenodd;"
d="M 190.097522,94.709860
190.193193,94.690830
190.274299,94.636637
190.328492,94.555531
190.347522,94.459860
190.347522,93.359860
190.328492,93.264189
190.274299,93.183083
190.193193,93.128890
190.097522,93.109860
188.997522,93.109860
188.901851,93.128890
188.820745,93.183083
188.766552,93.264189
188.747522,93.359860
188.747522,94.459860
188.766552,94.555531
188.820745,94.636637
188.901851,94.690830
188.997522,94.709860
Z" /> 
</g>
<g style="fill:#000000; fill-opacity:1.000000; stroke:none;">
<circle cx="189.547522" cy="91.409860" r="0.800000" /> 
</g>
<g style="fill:#000000; fill-opacity:1.000000; stroke:none;">
<circle cx="245.455333" cy="119.500000" r="0.800000" /> 
</g>
<g style="fill:#000000; fill-opacity:1.000000; stroke:none;">
<circle cx="245.455333" cy="124.500000" r="0.800000" /> 
</g>
<g style="fill:#000000; fill-opacity:1.000000; stroke:none;">
<circle cx="175.752200" cy="131.750000" r="1.000000" /> 
</g>
<g style="fill:#000000; fill-opacity:1.000000; stroke:none;">
<circle cx="175.752200" cy="138.250000" r="1.000000" /> 
</g>
<g style="fill:#000000; fill-opacity:1.000000; stroke:none;">
<circle cx="180.252200" cy="131.750000" r="1.000000" /> 
</g>
<g style="fill:#000000; fill-opacity:1.000000; stroke:none;">
<circle cx="180.252200" cy="138.250000" r="1.000000" /> 
</g>
<g style="fill:#000000; fill-opacity:1.000000; stroke:none;">
<circle cx="225.751930" cy="137.456464" r="0.800000" /> 
</g>
<g style="fill:#000000; fill-opacity:1.000000; stroke:none;">
<circle cx="220.671930" cy="137.456464" r="0.800000" /> 
</g>
<g style="fill:#000000; fill-opacity:1.000000; stroke:none;">
<circle cx="237.224200" cy="124.864000" r="0.800000" /> 
</g>
<g style="fill:#000000; fill-opacity:1.000000; stroke:none;">
<circle cx="242.224200" cy="124.864000" r="0.800000" /> 
</g>
<g style="fill:#000000; fill-opacity:1.000000; stroke:none;">
<circle cx="228.329891" cy="103.505000" r="0.800000" /> 
</g>
<g style="fill:#000000; fill-opacity:1.000000; stroke:none;">
<circle cx="228.329891" cy="100.965000" r="0.800000" /> 
<path style="fill:#000000; fill-opacity:1.000000; stroke:none;fill-rule:evenodd;"
d="M 234.425263,66.910276
234.329592,66.929306
234.248486,66.983499
234.194293,67.064605
234.175263,67.160276
234.175263,68.260276
234.194293,68.355947
234.248486,68.437053
234.329592,68.491246
234.425263,68.510276
235.525263,68.510276
235.620934,68.491246
235.702040,68.437053
235.756233,68.355947
235.775263,68.260276
235.775263,67.160276
235.756233,67.064605
235.702040,66.983499
235.620934,66.929306
235.525263,66.910276
Z" /> 
</g>
<g style="fill:#000000; fill-opacity:1.000000; stroke:none;">
<circle cx="234.975263" cy="70.210276" r="0.800000" /> 
<path style="fill:#000000; fill-opacity:1.000000; stroke:none;fill-rule:evenodd;"
d="M 221.242301,139.289608
221.065881,139.305293
220.871351,139.360955
220.692008,139.454636
220.535194,139.582501
220.407329,139.739315
220.313648,139.918658
220.257986,140.113188
220.242301,140.289608
220.242301,142.289608
220.257986,142.466028
220.313648,142.660558
220.407329,142.839901
220.535194,142.996715
220.692008,143.124580
220.871351,143.218261
221.065881,143.273923
221.242301,143.289608
227.242301,143.289608
227.418721,143.273923
227.613251,143.218261
227.792594,143.124580
227.949408,142.996715
228.077273,142.839901
228.170954,142.660558
228.226616,142.466028
228.242301,142.289608
228.242301,140.289608
228.226616,140.113188
228.170954,139.918658
228.077273,139.739315
227.949408,139.582501
227.792594,139.454636
227.613251,139.360955
227.418721,139.305293
227.242301,139.289608
Z" /> 
<path style="fill:#000000; fill-opacity:1.000000; stroke:none;fill-rule:evenodd;"
d="M 211.247554,100.200000
211.151883,100.219030
211.070777,100.273223
211.016584,100.354329
210.997554,100.450000
210.997554,101.550000
211.016584,101.645671
211.070777,101.726777
211.151883,101.780970
211.247554,101.800000
212.347554,101.800000
212.443225,101.780970
212.524331,101.726777
212.578524,101.645671
212.597554,101.550000
212.597554,100.450000
212.578524,100.354329
212.524331,100.273223
212.443225,100.219030
212.347554,100.200000
Z" /> 
</g>
<g style="fill:#000000; fill-opacity:1.000000; stroke:none;">
<circle cx="211.797554" cy="103.540000" r="0.800000" /> 
</g>
<g style="fill:#000000; fill-opacity:1.000000; stroke:none;">
<circle cx="175.752200" cy="116.000000" r="1.000000" /> 
</g>
<g style="fill:#000000; fill-opacity:1.000000; stroke:none;">
<circle cx="175.752200" cy="122.500000" r="1.000000" /> 
</g>
<g style="fill:#000000; fill-opacity:1.000000; stroke:none;">
<circle cx="180.252200" cy="116.000000" r="1.000000" /> 
</g>
<g style="fill:#000000; fill-opacity:1.000000; stroke:none;">
<circle cx="180.252200" cy="122.500000" r="1.000000" /> 
<path style="fill:#000000; fill-opacity:1.000000; stroke:none;fill-rule:evenodd;"
d="M 236.235088,109.920000
236.254118,110.015671
236.308311,110.096777
236.389417,110.150970
236.485088,110.170000
237.585088,110.170000
237.680759,110.150970
237.761865,110.096777
237.816058,110.015671
237.835088,109.920000
237.835088,108.820000
237.816058,108.724329
237.761865,108.643223
237.680759,108.589030
237.585088,108.570000
236.485088,108.570000
236.389417,108.589030
236.308311,108.643223
236.254118,108.724329
236.235088,108.820000
Z" /> 
</g>
<g style="fill:#000000; fill-opacity:1.000000; stroke:none;">
<circle cx="239.535088" cy="109.370000" r="0.800000" /> 
<path style="fill:#000000; fill-opacity:1.000000; stroke:none;fill-rule:evenodd;"
d="M 230.966004,140.677557
230.985034,140.773228
231.039227,140.854334
231.120333,140.908527
231.216004,140.927557
232.316004,140.927557
232.411675,140.908527
232.492781,140.854334
232.546974,140.773228
232.566004,140.677557
232.566004,139.577557
232.546974,139.481886
232.492781,139.400780
232.411675,139.346587
232.316004,139.327557
231.216004,139.327557
231.120333,139.346587
231.039227,139.400780
230.985034,139.481886
230.966004,139.577557
Z" /> 
</g>
<g style="fill:#000000; fill-opacity:1.000000; stroke:none;">
<circle cx="234.266004" cy="140.127557" r="0.800000" /> 
</g>
<g style="fill:#000000; fill-opacity:1.000000; stroke:none;">
<circle cx="241.172351" cy="91.464260" r="0.800000" /> 
</g>
<g style="fill:#000000; fill-opacity:1.000000; stroke:none;">
<circle cx="241.172351" cy="94.004260" r="0.800000" /> 
<path style="fill:#000000; fill-opacity:1.000000; stroke:none;fill-rule:evenodd;"
d="M 234.652200,104.846000
234.636515,104.669580
234.580853,104.475050
234.487172,104.295707
234.359307,104.138893
234.202493,104.011028
234.023150,103.917347
233.828620,103.861685
233.652200,103.846000
231.652200,103.846000
231.475780,103.861685
231.281250,103.917347
231.101907,104.011028
230.945093,104.138893
230.817228,104.295707
230.723547,104.475050
230.667885,104.669580
230.652200,104.846000
230.652200,110.846000
230.667885,111.022420
230.723547,111.216950
230.817228,111.396293
230.945093,111.553107
231.101907,111.680972
231.281250,111.774653
231.475780,111.830315
231.652200,111.846000
233.652200,111.846000
233.828620,111.830315
234.023150,111.774653
234.202493,111.680972
234.359307,111.553107
234.487172,111.396293
234.580853,111.216950
234.636515,111.022420
234.652200,110.846000
Z" /> 
</g>
<g style="fill:#000000; fill-opacity:1.000000; stroke:none;">
<circle cx="225.271325" cy="103.498707" r="0.800000" /> 
</g>
<g style="fill:#000000; fill-opacity:1.000000; stroke:none;">
<circle cx="225.271325" cy="100.958707" r="0.800000" /> 
</g>
<g style="fill:#000000; fill-opacity:1.000000; stroke:none;">
<circle cx="186.210200" cy="62.214000" r="0.800000" /> 
</g>
<g style="fill:#000000; fill-opacity:1.000000; stroke:none;">
<circle cx="186.210200" cy="57.214000" r="0.800000" /> 
</g>
<g style="fill:#000000; fill-opacity:1.000000; stroke:none;">
<circle cx="218.143507" cy="140.454880" r="0.800000" /> 
</g>
<g style="fill:#000000; fill-opacity:1.000000; stroke:none;">
<circle cx="218.143507" cy="142.954880" r="0.800000" /> 
<path style="fill:#000000; fill-opacity:1.000000; stroke:none;fill-rule:evenodd;"
d="M 232.462004,128.020223
232.366333,128.039253
232.285227,128.093446
232.231034,128.174552
232.212004,128.270223
232.212004,129.370223
232.231034,129.465894
232.285227,129.547000
232.366333,129.601193
232.462004,129.620223
233.562004,129.620223
233.657675,129.601193
233.738781,129.547000
233.792974,129.465894
233.812004,129.370223
233.812004,128.270223
233.792974,128.174552
233.738781,128.093446
233.657675,128.039253
233.562004,128.020223
Z" /> 
</g>
<g style="fill:#000000; fill-opacity:1.000000; stroke:none;">
<circle cx="233.012004" cy="131.320223" r="0.800000" /> 
<path style="fill:#000000; fill-opacity:1.000000; stroke:none;fill-rule:evenodd;"
d="M 214.921704,121.717682
215.017375,121.698652
215.098481,121.644459
215.152674,121.563353
215.171704,121.467682
215.171704,120.367682
215.152674,120.272011
215.098481,120.190905
215.017375,120.136712
214.921704,120.117682
213.821704,120.117682
213.726033,120.136712
213.644927,120.190905
213.590734,120.272011
213.571704,120.367682
213.571704,121.467682
213.590734,121.563353
213.644927,121.644459
213.726033,121.698652
213.821704,121.717682
Z" /> 
</g>
<g style="fill:#000000; fill-opacity:1.000000; stroke:none;">
<circle cx="214.371704" cy="118.417682" r="0.800000" /> 
</g>
<g style="fill:#000000; fill-opacity:1.000000; stroke:none;">
<circle cx="217.232200" cy="106.642585" r="0.800000" /> 
</g>
<g style="fill:#000000; fill-opacity:1.000000; stroke:none;">
<circle cx="222.312200" cy="106.642585" r="0.800000" /> 
</g>
<g style="fill:#000000; fill-opacity:1.000000; stroke:none;">
<circle cx="237.224200" cy="131.214000" r="0.800000" /> 
</g>
<g style="fill:#000000; fill-opacity:1.000000; stroke:none;">
<circle cx="247.384200" cy="131.214000" r="0.800000" /> 
</g>
<g style="fill:#000000; fill-opacity:1.000000; stroke:none;">
<circle cx="215.040593" cy="142.206470" r="0.800000" /> 
</g>
<g style="fill:#000000; fill-opacity:1.000000; stroke:none;">
<circle cx="212.500593" cy="142.206470" r="0.800000" /> 
</g>
<g style="fill:#000000; fill-opacity:1.000000; stroke:none;">
<circle cx="235.744305" cy="76.859423" r="1.750000" /> 
<path style="fill:#000000; fill-opacity:1.000000; stroke:none;fill-rule:evenodd;"
d="M 239.236805,94.519423
239.236805,92.519423
237.331805,92.519423
237.331805,94.519423
Z" /> 
</g>
<g style="fill:none; 
stroke:#000000; stroke-width:1.905000; stroke-opacity:1; 
stroke-linecap:round; stroke-linejoin:round;">
<path d="M235.744305 93.471923
L235.744305 93.566923
" />
<path d="M233.204305 93.471923
L233.204305 93.566923
" />
<path style="fill:#000000; fill-opacity:1.000000; stroke:none;fill-rule:evenodd;"
d="M 191.078200,63.243112
191.173871,63.224082
191.254977,63.169889
191.309170,63.088783
191.328200,62.993112
191.328200,61.893112
191.309170,61.797441
191.254977,61.716335
191.173871,61.662142
191.078200,61.643112
189.978200,61.643112
189.882529,61.662142
189.801423,61.716335
189.747230,61.797441
189.728200,61.893112
189.728200,62.993112
189.747230,63.088783
189.801423,63.169889
189.882529,63.224082
189.978200,63.243112
Z" /> 
</g>
<g style="fill:#000000; fill-opacity:1.000000; stroke:none;">
<circle cx="190.528200" cy="59.943112" r="0.800000" /> 
</g>
<g style="fill:#000000; fill-opacity:1.000000; stroke:none;">
<circle cx="154.252200" cy="122.500000" r="1.000000" /> 
</g>
<g style="fill:#000000; fill-opacity:1.000000; stroke:none;">
<circle cx="154.252200" cy="116.000000" r="1.000000" /> 
</g>
<g style="fill:#000000; fill-opacity:1.000000; stroke:none;">
<circle cx="149.752200" cy="122.500000" r="1.000000" /> 
</g>
<g style="fill:#000000; fill-opacity:1.000000; stroke:none;">
<circle cx="149.752200" cy="116.000000" r="1.000000" /> 
</g>
<g style="fill:#000000; fill-opacity:1.000000; stroke:none;">
<circle cx="230.891126" cy="98.342831" r="0.800000" /> 
</g>
<g style="fill:#000000; fill-opacity:1.000000; stroke:none;">
<circle cx="235.891126" cy="98.342831" r="0.800000" /> 
<path style="fill:#000000; fill-opacity:1.000000; stroke:none;fill-rule:evenodd;"
d="M 229.098472,135.152813
229.194143,135.133783
229.275249,135.079590
229.329442,134.998484
229.348472,134.902813
229.348472,133.802813
229.329442,133.707142
229.275249,133.626036
229.194143,133.571843
229.098472,133.552813
227.998472,133.552813
227.902801,133.571843
227.821695,133.626036
227.767502,133.707142
227.748472,133.802813
227.748472,134.902813
227.767502,134.998484
227.821695,135.079590
227.902801,135.133783
227.998472,135.152813
Z" /> 
</g>
<g style="fill:#000000; fill-opacity:1.000000; stroke:none;">
<circle cx="226.008472" cy="134.352813" r="0.800000" /> 
</g>
<g style="fill:#000000; fill-opacity:1.000000; stroke:none;">
<circle cx="223.468472" cy="134.352813" r="0.800000" /> 
</g>
<g style="fill:#000000; fill-opacity:1.000000; stroke:none;">
<circle cx="220.928472" cy="134.352813" r="0.800000" /> 
</g>
<g style="fill:#000000; fill-opacity:1.000000; stroke:none;">
<circle cx="220.928472" cy="126.732813" r="0.800000" /> 
</g>
<g style="fill:#000000; fill-opacity:1.000000; stroke:none;">
<circle cx="223.468472" cy="126.732813" r="0.800000" /> 
</g>
<g style="fill:#000000; fill-opacity:1.000000; stroke:none;">
<circle cx="226.008472" cy="126.732813" r="0.800000" /> 
</g>
<g style="fill:#000000; fill-opacity:1.000000; stroke:none;">
<circle cx="228.548472" cy="126.732813" r="0.800000" /> 
</g>
<g style="fill:#000000; fill-opacity:1.000000; stroke:none;">
<circle cx="192.814703" cy="85.725000" r="0.800000" /> 
</g>
<g style="fill:#000000; fill-opacity:1.000000; stroke:none;">
<circle cx="187.814703" cy="85.725000" r="0.800000" /> 
<path style="fill:#000000; fill-opacity:1.000000; stroke:none;fill-rule:evenodd;"
d="M 221.416514,84.767774
221.397484,84.672103
221.343291,84.590997
221.262185,84.536804
221.166514,84.517774
220.066514,84.517774
219.970843,84.536804
219.889737,84.590997
219.835544,84.672103
219.816514,84.767774
219.816514,85.867774
219.835544,85.963445
219.889737,86.044551
219.970843,86.098744
220.066514,86.117774
221.166514,86.117774
221.262185,86.098744
221.343291,86.044551
221.397484,85.963445
221.416514,85.867774
Z" /> 
</g>
<g style="fill:#000000; fill-opacity:1.000000; stroke:none;">
<circle cx="218.076514" cy="85.317774" r="0.800000" /> 
<path style="fill:#000000; fill-opacity:1.000000; stroke:none;fill-rule:evenodd;"
d="M 246.333349,98.451362
246.352379,98.547033
246.406572,98.628139
246.487678,98.682332
246.583349,98.701362
247.683349,98.701362
247.779020,98.682332
247.860126,98.628139
247.914319,98.547033
247.933349,98.451362
247.933349,97.351362
247.914319,97.255691
247.860126,97.174585
247.779020,97.120392
247.683349,97.101362
246.583349,97.101362
246.487678,97.120392
246.406572,97.174585
246.352379,97.255691
246.333349,97.351362
Z" /> 
</g>
<g style="fill:#000000; fill-opacity:1.000000; stroke:none;">
<circle cx="249.633349" cy="97.901362" r="0.800000" /> 
<path style="fill:#000000; fill-opacity:1.000000; stroke:none;fill-rule:evenodd;"
d="M 216.104550,137.310664
216.085520,137.214993
216.031327,137.133887
215.950221,137.079694
215.854550,137.060664
214.754550,137.060664
214.658879,137.079694
214.577773,137.133887
214.523580,137.214993
214.504550,137.310664
214.504550,138.410664
214.523580,138.506335
214.577773,138.587441
214.658879,138.641634
214.754550,138.660664
215.854550,138.660664
215.950221,138.641634
216.031327,138.587441
216.085520,138.506335
216.104550,138.410664
Z" /> 
</g>
<g style="fill:#000000; fill-opacity:1.000000; stroke:none;">
<circle cx="212.804550" cy="137.860664" r="0.800000" /> 
</g>
<g style="fill:#000000; fill-opacity:1.000000; stroke:none;">
<circle cx="230.660200" cy="67.532000" r="0.800000" /> 
</g>
<g style="fill:#000000; fill-opacity:1.000000; stroke:none;">
<circle cx="230.660200" cy="72.532000" r="0.800000" /> 
<path style="fill:#000000; fill-opacity:1.000000; stroke:none;fill-rule:evenodd;"
d="M 183.947200,63.926000
184.004603,63.914582
184.053266,63.882066
184.085782,63.833403
184.097200,63.776000
184.097200,62.126000
184.085782,62.068597
184.053266,62.019934
184.004603,61.987418
183.947200,61.976000
183.647200,61.976000
183.589797,61.987418
183.541134,62.019934
183.508618,62.068597
183.497200,62.126000
183.497200,63.776000
183.508618,63.833403
183.541134,63.882066
183.589797,63.914582
183.647200,63.926000
Z" /> 
<path style="fill:#000000; fill-opacity:1.000000; stroke:none;fill-rule:evenodd;"
d="M 182.677200,63.926000
182.734603,63.914582
182.783266,63.882066
182.815782,63.833403
182.827200,63.776000
182.827200,62.126000
182.815782,62.068597
182.783266,62.019934
182.734603,61.987418
182.677200,61.976000
182.377200,61.976000
182.319797,61.987418
182.271134,62.019934
182.238618,62.068597
182.227200,62.126000
182.227200,63.776000
182.238618,63.833403
182.271134,63.882066
182.319797,63.914582
182.377200,63.926000
Z" /> 
<path style="fill:#000000; fill-opacity:1.000000; stroke:none;fill-rule:evenodd;"
d="M 181.407200,63.926000
181.464603,63.914582
181.513266,63.882066
181.545782,63.833403
181.557200,63.776000
181.557200,62.126000
181.545782,62.068597
181.513266,62.019934
181.464603,61.987418
181.407200,61.976000
181.107200,61.976000
181.049797,61.987418
181.001134,62.019934
180.968618,62.068597
180.957200,62.126000
180.957200,63.776000
180.968618,63.833403
181.001134,63.882066
181.049797,63.914582
181.107200,63.926000
Z" /> 
<path style="fill:#000000; fill-opacity:1.000000; stroke:none;fill-rule:evenodd;"
d="M 180.137200,63.926000
180.194603,63.914582
180.243266,63.882066
180.275782,63.833403
180.287200,63.776000
180.287200,62.126000
180.275782,62.068597
180.243266,62.019934
180.194603,61.987418
180.137200,61.976000
179.837200,61.976000
179.779797,61.987418
179.731134,62.019934
179.698618,62.068597
179.687200,62.126000
179.687200,63.776000
179.698618,63.833403
179.731134,63.882066
179.779797,63.914582
179.837200,63.926000
Z" /> 
<path style="fill:#000000; fill-opacity:1.000000; stroke:none;fill-rule:evenodd;"
d="M 180.137200,58.976000
180.194603,58.964582
180.243266,58.932066
180.275782,58.883403
180.287200,58.826000
180.287200,57.176000
180.275782,57.118597
180.243266,57.069934
180.194603,57.037418
180.137200,57.026000
179.837200,57.026000
179.779797,57.037418
179.731134,57.069934
179.698618,57.118597
179.687200,57.176000
179.687200,58.826000
179.698618,58.883403
179.731134,58.932066
179.779797,58.964582
179.837200,58.976000
Z" /> 
<path style="fill:#000000; fill-opacity:1.000000; stroke:none;fill-rule:evenodd;"
d="M 181.407200,58.976000
181.464603,58.964582
181.513266,58.932066
181.545782,58.883403
181.557200,58.826000
181.557200,57.176000
181.545782,57.118597
181.513266,57.069934
181.464603,57.037418
181.407200,57.026000
181.107200,57.026000
181.049797,57.037418
181.001134,57.069934
180.968618,57.118597
180.957200,57.176000
180.957200,58.826000
180.968618,58.883403
181.001134,58.932066
181.049797,58.964582
181.107200,58.976000
Z" /> 
<path style="fill:#000000; fill-opacity:1.000000; stroke:none;fill-rule:evenodd;"
d="M 182.677200,58.976000
182.734603,58.964582
182.783266,58.932066
182.815782,58.883403
182.827200,58.826000
182.827200,57.176000
182.815782,57.118597
182.783266,57.069934
182.734603,57.037418
182.677200,57.026000
182.377200,57.026000
182.319797,57.037418
182.271134,57.069934
182.238618,57.118597
182.227200,57.176000
182.227200,58.826000
182.238618,58.883403
182.271134,58.932066
182.319797,58.964582
182.377200,58.976000
Z" /> 
<path style="fill:#000000; fill-opacity:1.000000; stroke:none;fill-rule:evenodd;"
d="M 183.947200,58.976000
184.004603,58.964582
184.053266,58.932066
184.085782,58.883403
184.097200,58.826000
184.097200,57.176000
184.085782,57.118597
184.053266,57.069934
184.004603,57.037418
183.947200,57.026000
183.647200,57.026000
183.589797,57.037418
183.541134,57.069934
183.508618,57.118597
183.497200,57.176000
183.497200,58.826000
183.508618,58.883403
183.541134,58.932066
183.589797,58.964582
183.647200,58.976000
Z" /> 
</g>
<g style="fill:#000000; fill-opacity:1.000000; stroke:none;">
<circle cx="128.252200" cy="138.250000" r="1.000000" /> 
</g>
<g style="fill:#000000; fill-opacity:1.000000; stroke:none;">
<circle cx="128.252200" cy="131.750000" r="1.000000" /> 
</g>
<g style="fill:#000000; fill-opacity:1.000000; stroke:none;">
<circle cx="123.752200" cy="138.250000" r="1.000000" /> 
</g>
<g style="fill:#000000; fill-opacity:1.000000; stroke:none;">
<circle cx="123.752200" cy="131.750000" r="1.000000" /> 
</g>
<g style="fill:#000000; fill-opacity:1.000000; stroke:none;">
<circle cx="116.662200" cy="60.000000" r="3.800000" /> 
</g>
<g style="fill:#000000; fill-opacity:1.000000; stroke:none;">
<circle cx="247.384200" cy="127.912000" r="0.800000" /> 
</g>
<g style="fill:#000000; fill-opacity:1.000000; stroke:none;">
<circle cx="237.224200" cy="127.912000" r="0.800000" /> 
</g>
<g style="fill:#000000; fill-opacity:1.000000; stroke:none;">
<circle cx="221.379616" cy="123.682417" r="0.800000" /> 
</g>
<g style="fill:#000000; fill-opacity:1.000000; stroke:none;">
<circle cx="218.839616" cy="123.682417" r="0.800000" /> 
<path style="fill:#000000; fill-opacity:1.000000; stroke:none;fill-rule:evenodd;"
d="M 225.210430,120.011944
225.210430,121.811944
227.010430,121.811944
227.010430,120.011944
Z" /> 
</g>
<g style="fill:#000000; fill-opacity:1.000000; stroke:none;">
<circle cx="223.610430" cy="120.911944" r="0.900000" /> 
</g>
<g style="fill:#000000; fill-opacity:1.000000; stroke:none;">
<circle cx="221.110430" cy="120.911944" r="0.900000" /> 
</g>
<g style="fill:none; 
stroke:#000000; stroke-width:2.720000; stroke-opacity:1; 
stroke-linecap:round; stroke-linejoin:round;">
<path d="M228.410430 113.671944
L228.410430 113.151944
" />
<path d="M218.810430 113.671944
L218.810430 113.151944
" />
<path style="fill:#000000; fill-opacity:1.000000; stroke:none;fill-rule:evenodd;"
d="M 243.104200,113.392000
243.085170,113.296329
243.030977,113.215223
242.949871,113.161030
242.854200,113.142000
241.754200,113.142000
241.658529,113.161030
241.577423,113.215223
241.523230,113.296329
241.504200,113.392000
241.504200,114.492000
241.523230,114.587671
241.577423,114.668777
241.658529,114.722970
241.754200,114.742000
242.854200,114.742000
242.949871,114.722970
243.030977,114.668777
243.085170,114.587671
243.104200,114.492000
Z" /> 
</g>
<g style="fill:#000000; fill-opacity:1.000000; stroke:none;">
<circle cx="242.304200" cy="116.482000" r="0.800000" /> 
</g>
<g style="fill:#000000; fill-opacity:1.000000; stroke:none;">
<circle cx="242.304200" cy="119.022000" r="0.800000" /> 
</g>
<g style="fill:#000000; fill-opacity:1.000000; stroke:none;">
<circle cx="242.304200" cy="121.562000" r="0.800000" /> 
</g>
<g style="fill:#000000; fill-opacity:1.000000; stroke:none;">
<circle cx="234.684200" cy="121.562000" r="0.800000" /> 
</g>
<g style="fill:#000000; fill-opacity:1.000000; stroke:none;">
<circle cx="234.684200" cy="119.022000" r="0.800000" /> 
</g>
<g style="fill:#000000; fill-opacity:1.000000; stroke:none;">
<circle cx="234.684200" cy="116.482000" r="0.800000" /> 
</g>
<g style="fill:#000000; fill-opacity:1.000000; stroke:none;">
<circle cx="234.684200" cy="113.942000" r="0.800000" /> 
<path style="fill:#000000; fill-opacity:1.000000; stroke:none;fill-rule:evenodd;"
d="M 177.446557,61.895388
177.622977,61.879703
177.817507,61.824041
177.996850,61.730360
178.153664,61.602495
178.281529,61.445681
178.375210,61.266338
178.430872,61.071808
178.446557,60.895388
178.446557,58.895388
178.430872,58.718968
178.375210,58.524438
178.281529,58.345095
178.153664,58.188281
177.996850,58.060416
177.817507,57.966735
177.622977,57.911073
177.446557,57.895388
171.446557,57.895388
171.270137,57.911073
171.075607,57.966735
170.896264,58.060416
170.739450,58.188281
170.611585,58.345095
170.517904,58.524438
170.462242,58.718968
170.446557,58.895388
170.446557,60.895388
170.462242,61.071808
170.517904,61.266338
170.611585,61.445681
170.739450,61.602495
170.896264,61.730360
171.075607,61.824041
171.270137,61.879703
171.446557,61.895388
Z" /> 
</g>
<g style="fill:#000000; fill-opacity:1.000000; stroke:none;">
<circle cx="217.472006" cy="129.770172" r="0.800000" /> 
</g>
<g style="fill:#000000; fill-opacity:1.000000; stroke:none;">
<circle cx="217.472006" cy="134.770172" r="0.800000" /> 
<path style="fill:#000000; fill-opacity:1.000000; stroke:none;fill-rule:evenodd;"
d="M 232.210200,65.537112
232.305871,65.518082
232.386977,65.463889
232.441170,65.382783
232.460200,65.287112
232.460200,64.187112
232.441170,64.091441
232.386977,64.010335
232.305871,63.956142
232.210200,63.937112
231.110200,63.937112
231.014529,63.956142
230.933423,64.010335
230.879230,64.091441
230.860200,64.187112
230.860200,65.287112
230.879230,65.382783
230.933423,65.463889
231.014529,65.518082
231.110200,65.537112
Z" /> 
</g>
<g style="fill:#000000; fill-opacity:1.000000; stroke:none;">
<circle cx="231.660200" cy="62.237112" r="0.800000" /> 
</g>
<g style="fill:#000000; fill-opacity:1.000000; stroke:none;">
<circle cx="128.252200" cy="122.500000" r="1.000000" /> 
</g>
<g style="fill:#000000; fill-opacity:1.000000; stroke:none;">
<circle cx="128.252200" cy="116.000000" r="1.000000" /> 
</g>
<g style="fill:#000000; fill-opacity:1.000000; stroke:none;">
<circle cx="123.752200" cy="122.500000" r="1.000000" /> 
</g>
<g style="fill:#000000; fill-opacity:1.000000; stroke:none;">
<circle cx="123.752200" cy="116.000000" r="1.000000" /> 
</g>
<g style="fill:#000000; fill-opacity:1.000000; stroke:none;">
<circle cx="201.752200" cy="116.000000" r="1.000000" /> 
</g>
<g style="fill:#000000; fill-opacity:1.000000; stroke:none;">
<circle cx="201.752200" cy="122.500000" r="1.000000" /> 
</g>
<g style="fill:#000000; fill-opacity:1.000000; stroke:none;">
<circle cx="206.252200" cy="116.000000" r="1.000000" /> 
</g>
<g style="fill:#000000; fill-opacity:1.000000; stroke:none;">
<circle cx="206.252200" cy="122.500000" r="1.000000" /> 
</g>
<g style="fill:#000000; fill-opacity:1.000000; stroke:none;">
<circle cx="244.198004" cy="93.092580" r="0.800000" /> 
</g>
<g style="fill:#000000; fill-opacity:1.000000; stroke:none;">
<circle cx="244.198004" cy="90.552580" r="0.800000" /> 
</g>
<g style="fill:#000000; fill-opacity:1.000000; stroke:none;">
<circle cx="228.329891" cy="98.337650" r="0.800000" /> 
</g>
<g style="fill:#000000; fill-opacity:1.000000; stroke:none;">
<circle cx="228.329891" cy="93.257650" r="0.800000" /> 
</g>
<g style="fill:#000000; fill-opacity:1.000000; stroke:none;">
<circle cx="116.662200" cy="142.500000" r="3.800000" /> 
</g>
<g style="fill:#000000; fill-opacity:1.000000; stroke:none;">
<circle cx="154.252200" cy="138.250000" r="1.000000" /> 
</g>
<g style="fill:#000000; fill-opacity:1.000000; stroke:none;">
<circle cx="154.252200" cy="131.750000" r="1.000000" /> 
</g>
<g style="fill:#000000; fill-opacity:1.000000; stroke:none;">
<circle cx="149.752200" cy="138.250000" r="1.000000" /> 
</g>
<g style="fill:#000000; fill-opacity:1.000000; stroke:none;">
<circle cx="149.752200" cy="131.750000" r="1.000000" /> 
<path style="fill:#000000; fill-opacity:1.000000; stroke:none;fill-rule:evenodd;"
d="M 186.017060,86.561103
186.017060,84.861103
184.317060,84.861103
184.317060,86.561103
Z" /> 
</g>
<g style="fill:#000000; fill-opacity:1.000000; stroke:none;">
<circle cx="185.167060" cy="88.251103" r="0.850000" /> 
</g>
<g style="fill:#000000; fill-opacity:1.000000; stroke:none;">
<circle cx="185.167060" cy="90.791103" r="0.850000" /> 
</g>
<g style="fill:#000000; fill-opacity:1.000000; stroke:none;">
<circle cx="185.167060" cy="93.331103" r="0.850000" /> 
</g>
<g style="fill:#000000; fill-opacity:1.000000; stroke:none;">
<circle cx="185.167060" cy="95.871103" r="0.850000" /> 
</g>
<g style="fill:#000000; fill-opacity:1.000000; stroke:none;">
<circle cx="185.167060" cy="98.411103" r="0.850000" /> 
</g>
<g style="fill:#000000; fill-opacity:1.000000; stroke:none;">
<circle cx="185.167060" cy="100.951103" r="0.850000" /> 
</g>
<g style="fill:#000000; fill-opacity:1.000000; stroke:none;">
<circle cx="185.167060" cy="103.491103" r="0.850000" /> 
</g>
<g style="fill:#000000; fill-opacity:1.000000; stroke:none;">
<circle cx="185.167060" cy="106.031103" r="0.850000" /> 
</g>
<g style="fill:#000000; fill-opacity:1.000000; stroke:none;">
<circle cx="252.552200" cy="142.500000" r="3.800000" /> 
</g>
<g style="fill:#000000; fill-opacity:1.000000; stroke:none;">
<circle cx="201.752200" cy="131.750000" r="1.000000" /> 
</g>
<g style="fill:#000000; fill-opacity:1.000000; stroke:none;">
<circle cx="201.752200" cy="138.250000" r="1.000000" /> 
</g>
<g style="fill:#000000; fill-opacity:1.000000; stroke:none;">
<circle cx="206.252200" cy="131.750000" r="1.000000" /> 
</g>
<g style="fill:#000000; fill-opacity:1.000000; stroke:none;">
<circle cx="206.252200" cy="138.250000" r="1.000000" /> 
<path style="fill:#000000; fill-opacity:1.000000; stroke:none;fill-rule:evenodd;"
d="M 239.050200,133.278000
238.873780,133.293685
238.679250,133.349347
238.499907,133.443028
238.343093,133.570893
238.215228,133.727707
238.121547,133.907050
238.065885,134.101580
238.050200,134.278000
238.050200,136.278000
238.065885,136.454420
238.121547,136.648950
238.215228,136.828293
238.343093,136.985107
238.499907,137.112972
238.679250,137.206653
238.873780,137.262315
239.050200,137.278000
245.050200,137.278000
245.226620,137.262315
245.421150,137.206653
245.600493,137.112972
245.757307,136.985107
245.885172,136.828293
245.978853,136.648950
246.034515,136.454420
246.050200,136.278000
246.050200,134.278000
246.034515,134.101580
245.978853,133.907050
245.885172,133.727707
245.757307,133.570893
245.600493,133.443028
245.421150,133.349347
245.226620,133.293685
245.050200,133.278000
Z" /> 
<path style="fill:#000000; fill-opacity:1.000000; stroke:none;fill-rule:evenodd;"
d="M 178.590200,65.492000
178.494529,65.511030
178.413423,65.565223
178.359230,65.646329
178.340200,65.742000
178.340200,66.842000
178.359230,66.937671
178.413423,67.018777
178.494529,67.072970
178.590200,67.092000
179.690200,67.092000
179.785871,67.072970
179.866977,67.018777
179.921170,66.937671
179.940200,66.842000
179.940200,65.742000
179.921170,65.646329
179.866977,65.565223
179.785871,65.511030
179.690200,65.492000
Z" /> 
</g>
<g style="fill:#000000; fill-opacity:1.000000; stroke:none;">
<circle cx="181.680200" cy="66.292000" r="0.800000" /> 
</g>
<g style="fill:#000000; fill-opacity:1.000000; stroke:none;">
<circle cx="184.220200" cy="66.292000" r="0.800000" /> 
</g>
<g style="fill:#000000; fill-opacity:1.000000; stroke:none;">
<circle cx="186.760200" cy="66.292000" r="0.800000" /> 
</g>
<g style="fill:#000000; fill-opacity:1.000000; stroke:none;">
<circle cx="189.300200" cy="66.292000" r="0.800000" /> 
</g>
<g style="fill:#000000; fill-opacity:1.000000; stroke:none;">
<circle cx="191.840200" cy="66.292000" r="0.800000" /> 
</g>
<g style="fill:#000000; fill-opacity:1.000000; stroke:none;">
<circle cx="194.380200" cy="66.292000" r="0.800000" /> 
</g>
<g style="fill:#000000; fill-opacity:1.000000; stroke:none;">
<circle cx="196.920200" cy="66.292000" r="0.800000" /> 
</g>
<g style="fill:#000000; fill-opacity:1.000000; stroke:none;">
<circle cx="199.460200" cy="66.292000" r="0.800000" /> 
</g>
<g style="fill:#000000; fill-opacity:1.000000; stroke:none;">
<circle cx="202.000200" cy="66.292000" r="0.800000" /> 
</g>
<g style="fill:#000000; fill-opacity:1.000000; stroke:none;">
<circle cx="204.540200" cy="66.292000" r="0.800000" /> 
</g>
<g style="fill:#000000; fill-opacity:1.000000; stroke:none;">
<circle cx="207.080200" cy="66.292000" r="0.800000" /> 
</g>
<g style="fill:#000000; fill-opacity:1.000000; stroke:none;">
<circle cx="209.620200" cy="66.292000" r="0.800000" /> 
</g>
<g style="fill:#000000; fill-opacity:1.000000; stroke:none;">
<circle cx="212.160200" cy="66.292000" r="0.800000" /> 
</g>
<g style="fill:#000000; fill-opacity:1.000000; stroke:none;">
<circle cx="214.700200" cy="66.292000" r="0.800000" /> 
</g>
<g style="fill:#000000; fill-opacity:1.000000; stroke:none;">
<circle cx="217.240200" cy="66.292000" r="0.800000" /> 
</g>
<g style="fill:#000000; fill-opacity:1.000000; stroke:none;">
<circle cx="219.780200" cy="66.292000" r="0.800000" /> 
</g>
<g style="fill:#000000; fill-opacity:1.000000; stroke:none;">
<circle cx="222.320200" cy="66.292000" r="0.800000" /> 
</g>
<g style="fill:#000000; fill-opacity:1.000000; stroke:none;">
<circle cx="224.860200" cy="66.292000" r="0.800000" /> 
</g>
<g style="fill:#000000; fill-opacity:1.000000; stroke:none;">
<circle cx="227.400200" cy="66.292000" r="0.800000" /> 
</g>
<g style="fill:#000000; fill-opacity:1.000000; stroke:none;">
<circle cx="227.400200" cy="81.532000" r="0.800000" /> 
</g>
<g style="fill:#000000; fill-opacity:1.000000; stroke:none;">
<circle cx="224.860200" cy="81.532000" r="0.800000" /> 
</g>
<g style="fill:#000000; fill-opacity:1.000000; stroke:none;">
<circle cx="222.320200" cy="81.532000" r="0.800000" /> 
</g>
<g style="fill:#000000; fill-opacity:1.000000; stroke:none;">
<circle cx="219.780200" cy="81.532000" r="0.800000" /> 
</g>
<g style="fill:#000000; fill-opacity:1.000000; stroke:none;">
<circle cx="217.240200" cy="81.532000" r="0.800000" /> 
</g>
<g style="fill:#000000; fill-opacity:1.000000; stroke:none;">
<circle cx="214.700200" cy="81.532000" r="0.800000" /> 
</g>
<g style="fill:#000000; fill-opacity:1.000000; stroke:none;">
<circle cx="212.160200" cy="81.532000" r="0.800000" /> 
</g>
<g style="fill:#000000; fill-opacity:1.000000; stroke:none;">
<circle cx="209.620200" cy="81.532000" r="0.800000" /> 
</g>
<g style="fill:#000000; fill-opacity:1.000000; stroke:none;">
<circle cx="207.080200" cy="81.532000" r="0.800000" /> 
</g>
<g style="fill:#000000; fill-opacity:1.000000; stroke:none;">
<circle cx="204.540200" cy="81.532000" r="0.800000" /> 
</g>
<g style="fill:#000000; fill-opacity:1.000000; stroke:none;">
<circle cx="202.000200" cy="81.532000" r="0.800000" /> 
</g>
<g style="fill:#000000; fill-opacity:1.000000; stroke:none;">
<circle cx="199.460200" cy="81.532000" r="0.800000" /> 
</g>
<g style="fill:#000000; fill-opacity:1.000000; stroke:none;">
<circle cx="196.920200" cy="81.532000" r="0.800000" /> 
</g>
<g style="fill:#000000; fill-opacity:1.000000; stroke:none;">
<circle cx="194.380200" cy="81.532000" r="0.800000" /> 
</g>
<g style="fill:#000000; fill-opacity:1.000000; stroke:none;">
<circle cx="191.840200" cy="81.532000" r="0.800000" /> 
</g>
<g style="fill:#000000; fill-opacity:1.000000; stroke:none;">
<circle cx="189.300200" cy="81.532000" r="0.800000" /> 
</g>
<g style="fill:#000000; fill-opacity:1.000000; stroke:none;">
<circle cx="186.760200" cy="81.532000" r="0.800000" /> 
</g>
<g style="fill:#000000; fill-opacity:1.000000; stroke:none;">
<circle cx="184.220200" cy="81.532000" r="0.800000" /> 
</g>
<g style="fill:#000000; fill-opacity:1.000000; stroke:none;">
<circle cx="181.680200" cy="81.532000" r="0.800000" /> 
</g>
<g style="fill:#000000; fill-opacity:1.000000; stroke:none;">
<circle cx="179.140200" cy="81.532000" r="0.800000" /> 
<path style="fill:#000000; fill-opacity:1.000000; stroke:none;fill-rule:evenodd;"
d="M 239.762200,100.570000
239.666529,100.589030
239.585423,100.643223
239.531230,100.724329
239.512200,100.820000
239.512200,101.920000
239.531230,102.015671
239.585423,102.096777
239.666529,102.150970
239.762200,102.170000
240.862200,102.170000
240.957871,102.150970
241.038977,102.096777
241.093170,102.015671
241.112200,101.920000
241.112200,100.820000
241.093170,100.724329
241.038977,100.643223
240.957871,100.589030
240.862200,100.570000
Z" /> 
</g>
<g style="fill:#000000; fill-opacity:1.000000; stroke:none;">
<circle cx="240.312200" cy="103.870000" r="0.800000" /> 
</g>
<g style="fill:#000000; fill-opacity:1.000000; stroke:none;">
<circle cx="252.552200" cy="60.000000" r="3.800000" /> 
<path style="fill:#000000; fill-opacity:1.000000; stroke:none;fill-rule:evenodd;"
d="M 242.033200,108.857587
242.033200,110.357587
243.083200,110.357587
243.083200,108.857587
Z" /> 
</g>
<g style="fill:none; 
stroke:#000000; stroke-width:1.050000; stroke-opacity:1; 
stroke-linecap:round; stroke-linejoin:round;">
<path d="M243.828200 109.832587
L243.828200 109.382587
" />
<path d="M245.098200 109.832587
L245.098200 109.382587
" />
</g>
<g style="fill:#000000; fill-opacity:1.000000; stroke:none;">
<circle cx="238.018696" cy="96.612986" r="0.800000" /> 
</g>
<g style="fill:#000000; fill-opacity:1.000000; stroke:none;">
<circle cx="243.018696" cy="96.612986" r="0.800000" /> 
<path style="fill:#000000; fill-opacity:1.000000; stroke:none;fill-rule:evenodd;"
d="M 245.883200,103.414000
245.883200,104.914000
246.933200,104.914000
246.933200,103.414000
Z" /> 
</g>
<g style="fill:none; 
stroke:#000000; stroke-width:1.050000; stroke-opacity:1; 
stroke-linecap:round; stroke-linejoin:round;">
<path d="M247.678200 104.389000
L247.678200 103.939000
" />
<path d="M248.948200 104.389000
L248.948200 103.939000
" />
</g>
<g style="fill:#000000; fill-opacity:1.000000; stroke:none;">
<circle cx="215.507993" cy="109.682403" r="0.800000" /> 
</g>
<g style="fill:#000000; fill-opacity:1.000000; stroke:none;">
<circle cx="215.507993" cy="114.762403" r="0.800000" /> 
</g> 
</svg>
