%TF.GenerationSoftware,KiCad,Pcbnew,9.0.6*%
%TF.CreationDate,2025-12-13T15:11:02+01:00*%
%TF.ProjectId,zavrsni,7a617672-736e-4692-9e6b-696361645f70,rev?*%
%TF.SameCoordinates,Original*%
%TF.FileFunction,Copper,L2,Bot*%
%TF.FilePolarity,Positive*%
%FSLAX46Y46*%
G04 Gerber Fmt 4.6, Leading zero omitted, Abs format (unit mm)*
G04 Created by KiCad (PCBNEW 9.0.6) date 2025-12-13 15:11:02*
%MOMM*%
%LPD*%
G01*
G04 APERTURE LIST*
G04 Aperture macros list*
%AMRoundRect*
0 Rectangle with rounded corners*
0 $1 Rounding radius*
0 $2 $3 $4 $5 $6 $7 $8 $9 X,Y pos of 4 corners*
0 Add a 4 corners polygon primitive as box body*
4,1,4,$2,$3,$4,$5,$6,$7,$8,$9,$2,$3,0*
0 Add four circle primitives for the rounded corners*
1,1,$1+$1,$2,$3*
1,1,$1+$1,$4,$5*
1,1,$1+$1,$6,$7*
1,1,$1+$1,$8,$9*
0 Add four rect primitives between the rounded corners*
20,1,$1+$1,$2,$3,$4,$5,0*
20,1,$1+$1,$4,$5,$6,$7,0*
20,1,$1+$1,$6,$7,$8,$9,0*
20,1,$1+$1,$8,$9,$2,$3,0*%
G04 Aperture macros list end*
%TA.AperFunction,ComponentPad*%
%ADD10RoundRect,0.250000X0.550000X-0.550000X0.550000X0.550000X-0.550000X0.550000X-0.550000X-0.550000X0*%
%TD*%
%TA.AperFunction,ComponentPad*%
%ADD11C,1.600000*%
%TD*%
%TA.AperFunction,ComponentPad*%
%ADD12C,2.000000*%
%TD*%
%TA.AperFunction,ComponentPad*%
%ADD13RoundRect,0.250000X-0.550000X0.550000X-0.550000X-0.550000X0.550000X-0.550000X0.550000X0.550000X0*%
%TD*%
%TA.AperFunction,ComponentPad*%
%ADD14RoundRect,0.250000X0.550000X0.550000X-0.550000X0.550000X-0.550000X-0.550000X0.550000X-0.550000X0*%
%TD*%
%TA.AperFunction,ComponentPad*%
%ADD15RoundRect,0.250000X-0.550000X-0.550000X0.550000X-0.550000X0.550000X0.550000X-0.550000X0.550000X0*%
%TD*%
%TA.AperFunction,ComponentPad*%
%ADD16R,1.905000X2.000000*%
%TD*%
%TA.AperFunction,ComponentPad*%
%ADD17O,1.905000X2.000000*%
%TD*%
%TA.AperFunction,ComponentPad*%
%ADD18C,7.600000*%
%TD*%
%TA.AperFunction,ComponentPad*%
%ADD19R,1.800000X1.800000*%
%TD*%
%TA.AperFunction,ComponentPad*%
%ADD20C,1.800000*%
%TD*%
%TA.AperFunction,ComponentPad*%
%ADD21O,2.720000X3.240000*%
%TD*%
%TA.AperFunction,ComponentPad*%
%ADD22R,1.700000X1.700000*%
%TD*%
%TA.AperFunction,ComponentPad*%
%ADD23C,1.700000*%
%TD*%
%TA.AperFunction,ComponentPad*%
%ADD24R,1.050000X1.500000*%
%TD*%
%TA.AperFunction,ComponentPad*%
%ADD25O,1.050000X1.500000*%
%TD*%
%TA.AperFunction,ViaPad*%
%ADD26C,0.800000*%
%TD*%
%TA.AperFunction,Conductor*%
%ADD27C,0.600000*%
%TD*%
G04 APERTURE END LIST*
D10*
%TO.P,C13,1*%
%TO.N,/LCD_VCC*%
X107454678Y-93909860D03*
D11*
%TO.P,C13,2*%
%TO.N,GNDREF*%
X107454678Y-91409860D03*
%TD*%
%TO.P,C21,1*%
%TO.N,Net-(U5A-+)*%
X51546867Y-119500000D03*
%TO.P,C21,2*%
%TO.N,+0V*%
X51546867Y-124500000D03*
%TD*%
D12*
%TO.P,SW_PRESET_1,1,1*%
%TO.N,/BTN_PRESET1*%
X121250000Y-131750000D03*
X121250000Y-138250000D03*
%TO.P,SW_PRESET_1,2,2*%
%TO.N,GNDREF*%
X116750000Y-131750000D03*
X116750000Y-138250000D03*
%TD*%
D11*
%TO.P,R1,1*%
%TO.N,Net-(U3A--)*%
X71250270Y-137456464D03*
%TO.P,R1,2*%
%TO.N,Net-(C1-Pad1)*%
X76330270Y-137456464D03*
%TD*%
%TO.P,C11,1*%
%TO.N,+12V*%
X59778000Y-124864000D03*
%TO.P,C11,2*%
%TO.N,+0V*%
X54778000Y-124864000D03*
%TD*%
%TO.P,R11,1*%
%TO.N,GNDREF*%
X68672309Y-103505000D03*
%TO.P,R11,2*%
%TO.N,Net-(U4B-+)*%
X68672309Y-100965000D03*
%TD*%
D13*
%TO.P,C19,1*%
%TO.N,+3V3*%
X62026937Y-67710276D03*
D11*
%TO.P,C19,2*%
%TO.N,GNDREF*%
X62026937Y-70210276D03*
%TD*%
D10*
%TO.P,D1,1,K*%
%TO.N,Net-(D1-K)*%
X85204646Y-103575538D03*
D11*
%TO.P,D1,2,A*%
%TO.N,Net-(D1-A)*%
X85204646Y-101035538D03*
%TD*%
D12*
%TO.P,SW_UP1,1,1*%
%TO.N,/BTN_UP*%
X121250000Y-116000000D03*
X121250000Y-122500000D03*
%TO.P,SW_UP1,2,2*%
%TO.N,GNDREF*%
X116750000Y-116000000D03*
X116750000Y-122500000D03*
%TD*%
D14*
%TO.P,C24,1*%
%TO.N,+12V*%
X59967112Y-109370000D03*
D11*
%TO.P,C24,2*%
%TO.N,+0V*%
X57467112Y-109370000D03*
%TD*%
D14*
%TO.P,C6,1*%
%TO.N,GNDREF*%
X65236196Y-140127557D03*
D11*
%TO.P,C6,2*%
%TO.N,+0V*%
X62736196Y-140127557D03*
%TD*%
%TO.P,R7,1*%
%TO.N,+5V*%
X55829849Y-91464260D03*
%TO.P,R7,2*%
%TO.N,Net-(U6-ADJ)*%
X55829849Y-94004260D03*
%TD*%
%TO.P,R13,1*%
%TO.N,Net-(R13-Pad1)*%
X71730875Y-103498707D03*
%TO.P,R13,2*%
%TO.N,Net-(U4B--)*%
X71730875Y-100958707D03*
%TD*%
%TO.P,C3,1*%
%TO.N,+5V*%
X110792000Y-62214000D03*
%TO.P,C3,2*%
%TO.N,GNDREF*%
X110792000Y-57214000D03*
%TD*%
%TO.P,C1,1*%
%TO.N,Net-(C1-Pad1)*%
X78858693Y-140454880D03*
%TO.P,C1,2*%
%TO.N,GNDREF*%
X78858693Y-142954880D03*
%TD*%
D13*
%TO.P,C22,1*%
%TO.N,+12V*%
X63990196Y-128820223D03*
D11*
%TO.P,C22,2*%
%TO.N,+0V*%
X63990196Y-131320223D03*
%TD*%
D10*
%TO.P,C7,1*%
%TO.N,Net-(C7-Pad1)*%
X82630496Y-120917682D03*
D11*
%TO.P,C7,2*%
%TO.N,Net-(C7-Pad2)*%
X82630496Y-118417682D03*
%TD*%
D15*
%TO.P,U4,1*%
%TO.N,Net-(D2-A)*%
X74770000Y-88280000D03*
D11*
%TO.P,U4,2,-*%
%TO.N,Net-(D1-A)*%
X74770000Y-90820000D03*
%TO.P,U4,3,+*%
%TO.N,+3V3*%
X74770000Y-93360000D03*
%TO.P,U4,4,V+*%
%TO.N,+12V*%
X74770000Y-95900000D03*
%TO.P,U4,5,+*%
%TO.N,Net-(U4B-+)*%
X74770000Y-98440000D03*
%TO.P,U4,6,-*%
%TO.N,Net-(U4B--)*%
X74770000Y-100980000D03*
%TO.P,U4,7*%
%TO.N,Net-(R13-Pad1)*%
X74770000Y-103520000D03*
%TO.P,U4,8*%
%TO.N,Net-(D1-K)*%
X82390000Y-103520000D03*
%TO.P,U4,9,-*%
%TO.N,Net-(D1-A)*%
X82390000Y-100980000D03*
%TO.P,U4,10,+*%
%TO.N,GNDREF*%
X82390000Y-98440000D03*
%TO.P,U4,11,V-*%
%TO.N,+0V*%
X82390000Y-95900000D03*
%TO.P,U4,12,+*%
%TO.N,Net-(D1-A)*%
X82390000Y-93360000D03*
%TO.P,U4,13,-*%
%TO.N,/ADC_IN*%
X82390000Y-90820000D03*
%TO.P,U4,14*%
X82390000Y-88280000D03*
%TD*%
%TO.P,R9,1*%
%TO.N,Net-(D1-A)*%
X79770000Y-106642585D03*
%TO.P,R9,2*%
%TO.N,Net-(R13-Pad1)*%
X74690000Y-106642585D03*
%TD*%
%TO.P,R4,1*%
%TO.N,+0V*%
X59778000Y-131214000D03*
%TO.P,R4,2*%
%TO.N,Net-(U5A-+)*%
X49618000Y-131214000D03*
%TD*%
%TO.P,R2,1*%
%TO.N,GNDREF*%
X81961607Y-142206470D03*
%TO.P,R2,2*%
%TO.N,Net-(U3B-+)*%
X84501607Y-142206470D03*
%TD*%
D16*
%TO.P,U6,1,ADJ*%
%TO.N,Net-(U6-ADJ)*%
X58717895Y-93519423D03*
D17*
%TO.P,U6,2,VO*%
%TO.N,+5V*%
X61257895Y-93519423D03*
%TO.P,U6,3,VI*%
%TO.N,+12V*%
X63797895Y-93519423D03*
%TD*%
D10*
%TO.P,C4,1*%
%TO.N,+5V*%
X106474000Y-62443112D03*
D11*
%TO.P,C4,2*%
%TO.N,GNDREF*%
X106474000Y-59943112D03*
%TD*%
D12*
%TO.P,SW_DOWN1,1,1*%
%TO.N,/BTN_DOWN*%
X142750000Y-122500000D03*
X142750000Y-116000000D03*
%TO.P,SW_DOWN1,2,2*%
%TO.N,GNDREF*%
X147250000Y-122500000D03*
X147250000Y-116000000D03*
%TD*%
D11*
%TO.P,C15,1*%
%TO.N,Net-(U4B-+)*%
X66111074Y-98342831D03*
%TO.P,C15,2*%
%TO.N,GNDREF*%
X61111074Y-98342831D03*
%TD*%
D10*
%TO.P,U3,1*%
%TO.N,Net-(U3A--)*%
X68453728Y-134352813D03*
D11*
%TO.P,U3,2,-*%
X70993728Y-134352813D03*
%TO.P,U3,3,+*%
%TO.N,/IN*%
X73533728Y-134352813D03*
%TO.P,U3,4,V-*%
%TO.N,+0V*%
X76073728Y-134352813D03*
%TO.P,U3,5,+*%
%TO.N,Net-(U3B-+)*%
X76073728Y-126732813D03*
%TO.P,U3,6,-*%
%TO.N,Net-(U3B--)*%
X73533728Y-126732813D03*
%TO.P,U3,7*%
%TO.N,Net-(C7-Pad1)*%
X70993728Y-126732813D03*
%TO.P,U3,8,V+*%
%TO.N,+12V*%
X68453728Y-126732813D03*
%TD*%
%TO.P,C12,1*%
%TO.N,/LCD_VCC*%
X104187497Y-85725000D03*
%TO.P,C12,2*%
%TO.N,GNDREF*%
X109187497Y-85725000D03*
%TD*%
D14*
%TO.P,D2,1,K*%
%TO.N,Net-(D1-A)*%
X78740000Y-85317774D03*
D11*
%TO.P,D2,2,A*%
%TO.N,Net-(D2-A)*%
X76200000Y-85317774D03*
%TD*%
D14*
%TO.P,C5,1*%
%TO.N,+12V*%
X49868851Y-97901362D03*
D11*
%TO.P,C5,2*%
%TO.N,GNDREF*%
X47368851Y-97901362D03*
%TD*%
D15*
%TO.P,C2,1*%
%TO.N,Net-(C1-Pad1)*%
X81697650Y-137860664D03*
D11*
%TO.P,C2,2*%
%TO.N,Net-(U3B-+)*%
X84197650Y-137860664D03*
%TD*%
%TO.P,C18,1*%
%TO.N,+3V3*%
X69304084Y-63235120D03*
%TO.P,C18,2*%
%TO.N,GNDREF*%
X74304084Y-63235120D03*
%TD*%
D12*
%TO.P,SW_PRESET_3,1,1*%
%TO.N,/BTN_PRESET3*%
X168750000Y-138250000D03*
X168750000Y-131750000D03*
%TO.P,SW_PRESET_3,2,2*%
%TO.N,GNDREF*%
X173250000Y-138250000D03*
X173250000Y-131750000D03*
%TD*%
D18*
%TO.P,H4,1,1*%
%TO.N,GNDREF*%
X180340000Y-60000000D03*
%TD*%
D11*
%TO.P,R3,1*%
%TO.N,Net-(U5A-+)*%
X49618000Y-127912000D03*
%TO.P,R3,2*%
%TO.N,+12V*%
X59778000Y-127912000D03*
%TD*%
%TO.P,R6,1*%
%TO.N,Net-(U3B--)*%
X75622584Y-123682417D03*
%TO.P,R6,2*%
%TO.N,GNDREF*%
X78162584Y-123682417D03*
%TD*%
D19*
%TO.P,R_GAIN1,1,1*%
%TO.N,Net-(C7-Pad1)*%
X70891770Y-120911944D03*
D20*
%TO.P,R_GAIN1,2,2*%
%TO.N,Net-(U3B--)*%
X73391770Y-120911944D03*
%TO.P,R_GAIN1,3,3*%
X75891770Y-120911944D03*
D21*
%TO.P,R_GAIN1,MP,MountPin*%
%TO.N,GNDREF*%
X68591770Y-113411944D03*
X78191770Y-113411944D03*
%TD*%
D15*
%TO.P,U5,1*%
%TO.N,Net-(Q1-B)*%
X54698000Y-113942000D03*
D11*
%TO.P,U5,2,-*%
X54698000Y-116482000D03*
%TO.P,U5,3,+*%
%TO.N,Net-(U5A-+)*%
X54698000Y-119022000D03*
%TO.P,U5,4,V-*%
%TO.N,+0V*%
X54698000Y-121562000D03*
%TO.P,U5,5*%
%TO.N,N/C*%
X62318000Y-121562000D03*
%TO.P,U5,6*%
X62318000Y-119022000D03*
%TO.P,U5,7*%
X62318000Y-116482000D03*
%TO.P,U5,8,V+*%
%TO.N,+12V*%
X62318000Y-113942000D03*
%TD*%
%TO.P,C8,1*%
%TO.N,+12V*%
X79530194Y-129770172D03*
%TO.P,C8,2*%
%TO.N,+0V*%
X79530194Y-134770172D03*
%TD*%
D10*
%TO.P,C20,1*%
%TO.N,+3V3*%
X65342000Y-64737112D03*
D11*
%TO.P,C20,2*%
%TO.N,GNDREF*%
X65342000Y-62237112D03*
%TD*%
D12*
%TO.P,SW_OK1,1,1*%
%TO.N,/BTN_OK*%
X168750000Y-122500000D03*
X168750000Y-116000000D03*
%TO.P,SW_OK1,2,2*%
%TO.N,GNDREF*%
X173250000Y-122500000D03*
X173250000Y-116000000D03*
%TD*%
%TO.P,SW_TUNER1,1,1*%
%TO.N,/BTN_TUNER*%
X95250000Y-116000000D03*
X95250000Y-122500000D03*
%TO.P,SW_TUNER1,2,2*%
%TO.N,GNDREF*%
X90750000Y-116000000D03*
X90750000Y-122500000D03*
%TD*%
D11*
%TO.P,R8,1*%
%TO.N,Net-(U6-ADJ)*%
X52804196Y-93092580D03*
%TO.P,R8,2*%
%TO.N,GNDREF*%
X52804196Y-90552580D03*
%TD*%
%TO.P,R10,1*%
%TO.N,Net-(U4B-+)*%
X68672309Y-98337650D03*
%TO.P,R10,2*%
%TO.N,+3V3*%
X68672309Y-93257650D03*
%TD*%
D18*
%TO.P,H3,1,1*%
%TO.N,GNDREF*%
X180340000Y-142500000D03*
%TD*%
D12*
%TO.P,SW_PRESET_2,1,1*%
%TO.N,/BTN_PRESET2*%
X142750000Y-138250000D03*
X142750000Y-131750000D03*
%TO.P,SW_PRESET_2,2,2*%
%TO.N,GNDREF*%
X147250000Y-138250000D03*
X147250000Y-131750000D03*
%TD*%
D22*
%TO.P,U7,1,K*%
%TO.N,GNDREF*%
X111835140Y-85711103D03*
D23*
%TO.P,U7,2,A*%
%TO.N,+3V3*%
X111835140Y-88251103D03*
%TO.P,U7,3,GND*%
%TO.N,GNDREF*%
X111835140Y-90791103D03*
%TO.P,U7,4,VDD*%
%TO.N,/LCD_VCC*%
X111835140Y-93331103D03*
%TO.P,U7,5,SCK*%
%TO.N,/LCD_SCK*%
X111835140Y-95871103D03*
%TO.P,U7,6,SDA*%
%TO.N,/LCD_SDA*%
X111835140Y-98411103D03*
%TO.P,U7,7,RST*%
%TO.N,/LCD_RST*%
X111835140Y-100951103D03*
%TO.P,U7,8,CD*%
%TO.N,/LCD_CD*%
X111835140Y-103491103D03*
%TO.P,U7,9,CS*%
%TO.N,/LCD_CS*%
X111835140Y-106031103D03*
%TD*%
D18*
%TO.P,H2,1,1*%
%TO.N,GNDREF*%
X44450000Y-142500000D03*
%TD*%
D12*
%TO.P,SW_PRESET_0,1,1*%
%TO.N,/BTN_PRESET0*%
X95250000Y-131750000D03*
X95250000Y-138250000D03*
%TO.P,SW_PRESET_0,2,2*%
%TO.N,GNDREF*%
X90750000Y-131750000D03*
X90750000Y-138250000D03*
%TD*%
D13*
%TO.P,U2,1,B12*%
%TO.N,/DAC_LRCLK*%
X117862000Y-66292000D03*
D11*
%TO.P,U2,2,B13*%
%TO.N,/DAC_BCLK*%
X115322000Y-66292000D03*
%TO.P,U2,3,B14*%
%TO.N,unconnected-(U2-B14-Pad3)*%
X112782000Y-66292000D03*
%TO.P,U2,4,B15*%
%TO.N,/DAC_DAT*%
X110242000Y-66292000D03*
%TO.P,U2,5,A8*%
%TO.N,unconnected-(U2-A8-Pad5)*%
X107702000Y-66292000D03*
%TO.P,U2,6,A9*%
%TO.N,unconnected-(U2-A9-Pad6)*%
X105162000Y-66292000D03*
%TO.P,U2,7,A10*%
%TO.N,unconnected-(U2-A10-Pad7)*%
X102622000Y-66292000D03*
%TO.P,U2,8,A11*%
%TO.N,unconnected-(U2-A11-Pad8)*%
X100082000Y-66292000D03*
%TO.P,U2,9,A12*%
%TO.N,unconnected-(U2-A12-Pad9)*%
X97542000Y-66292000D03*
%TO.P,U2,10,A15*%
%TO.N,/BTN_OK*%
X95002000Y-66292000D03*
%TO.P,U2,11,B3*%
%TO.N,/BTN_DOWN*%
X92462000Y-66292000D03*
%TO.P,U2,12,B4*%
%TO.N,/BTN_PRESET3*%
X89922000Y-66292000D03*
%TO.P,U2,13,B5*%
%TO.N,/BTN_PRESET2*%
X87382000Y-66292000D03*
%TO.P,U2,14,B6*%
%TO.N,/BTN_PRESET1*%
X84842000Y-66292000D03*
%TO.P,U2,15,B7*%
%TO.N,/BTN_PRESET0*%
X82302000Y-66292000D03*
%TO.P,U2,16,B8*%
%TO.N,/BTN_UP*%
X79762000Y-66292000D03*
%TO.P,U2,17,B9*%
%TO.N,/BTN_TUNER*%
X77222000Y-66292000D03*
%TO.P,U2,18,5V*%
%TO.N,+5V*%
X74682000Y-66292000D03*
%TO.P,U2,19,GND*%
%TO.N,GNDREF*%
X72142000Y-66292000D03*
%TO.P,U2,20,3V3*%
%TO.N,+3V3*%
X69602000Y-66292000D03*
%TO.P,U2,21,VB*%
%TO.N,unconnected-(U2-VB-Pad21)*%
X69602000Y-81532000D03*
%TO.P,U2,22,C13*%
%TO.N,unconnected-(U2-C13-Pad22)*%
X72142000Y-81532000D03*
%TO.P,U2,23,C14*%
%TO.N,unconnected-(U2-C14-Pad23)*%
X74682000Y-81532000D03*
%TO.P,U2,24,C15*%
%TO.N,unconnected-(U2-C15-Pad24)*%
X77222000Y-81532000D03*
%TO.P,U2,25,RESET*%
%TO.N,unconnected-(U2-RESET-Pad25)*%
X79762000Y-81532000D03*
%TO.P,U2,26,A0*%
%TO.N,/ADC_IN*%
X82302000Y-81532000D03*
%TO.P,U2,27,A1*%
%TO.N,unconnected-(U2-A1-Pad27)*%
X84842000Y-81532000D03*
%TO.P,U2,28,A2*%
%TO.N,unconnected-(U2-A2-Pad28)*%
X87382000Y-81532000D03*
%TO.P,U2,29,A3*%
%TO.N,/DAC_MCLK*%
X89922000Y-81532000D03*
%TO.P,U2,30,A4*%
%TO.N,unconnected-(U2-A4-Pad30)*%
X92462000Y-81532000D03*
%TO.P,U2,31,A5*%
%TO.N,/LCD_SCK*%
X95002000Y-81532000D03*
%TO.P,U2,32,A6*%
%TO.N,/LCD_RST*%
X97542000Y-81532000D03*
%TO.P,U2,33,A7*%
%TO.N,/LCD_SDA*%
X100082000Y-81532000D03*
%TO.P,U2,34,B0*%
%TO.N,/LCD_CS*%
X102622000Y-81532000D03*
%TO.P,U2,35,B1*%
%TO.N,/LCD_CD*%
X105162000Y-81532000D03*
%TO.P,U2,36,B2*%
%TO.N,/LCD_VCC*%
X107702000Y-81532000D03*
%TO.P,U2,37,B10*%
%TO.N,unconnected-(U2-B10-Pad37)*%
X110242000Y-81532000D03*
%TO.P,U2,38,3V3*%
%TO.N,+3V3*%
X112782000Y-81532000D03*
%TO.P,U2,39,GND*%
%TO.N,GNDREF*%
X115322000Y-81532000D03*
%TO.P,U2,40,5V*%
%TO.N,unconnected-(U2-5V-Pad40)*%
X117862000Y-81532000D03*
%TD*%
D13*
%TO.P,C9,1*%
%TO.N,+12V*%
X56690000Y-101370000D03*
D11*
%TO.P,C9,2*%
%TO.N,+0V*%
X56690000Y-103870000D03*
%TD*%
D18*
%TO.P,H1,1,1*%
%TO.N,GNDREF*%
X44450000Y-60000000D03*
%TD*%
D24*
%TO.P,Q2,1,C*%
%TO.N,+0V*%
X54444000Y-109607587D03*
D25*
%TO.P,Q2,2,B*%
%TO.N,Net-(Q1-B)*%
X53174000Y-109607587D03*
%TO.P,Q2,3,E*%
%TO.N,GNDREF*%
X51904000Y-109607587D03*
%TD*%
D11*
%TO.P,C14,1*%
%TO.N,+12V*%
X58983504Y-96612986D03*
%TO.P,C14,2*%
%TO.N,GNDREF*%
X53983504Y-96612986D03*
%TD*%
D24*
%TO.P,Q1,1,C*%
%TO.N,+12V*%
X50594000Y-104164000D03*
D25*
%TO.P,Q1,2,B*%
%TO.N,Net-(Q1-B)*%
X49324000Y-104164000D03*
%TO.P,Q1,3,E*%
%TO.N,GNDREF*%
X48054000Y-104164000D03*
%TD*%
D11*
%TO.P,R12,1*%
%TO.N,Net-(U4B--)*%
X81494207Y-109682403D03*
%TO.P,R12,2*%
%TO.N,Net-(C7-Pad2)*%
X81494207Y-114762403D03*
%TD*%
D26*
%TO.N,/BTN_PRESET0*%
X121412000Y-76200000D03*
X97790000Y-131445000D03*
%TO.N,/BTN_PRESET1*%
X120396000Y-74930000D03*
X123825000Y-131375551D03*
%TO.N,/BTN_PRESET2*%
X121412000Y-73660000D03*
X139700000Y-131445000D03*
%TO.N,GNDREF*%
X66342000Y-101878000D03*
X62278000Y-101878000D03*
%TO.N,+0V*%
X82000000Y-132300366D03*
X85250000Y-97500000D03*
%TO.N,/DAC_MCLK*%
X120952000Y-67310000D03*
%TO.N,/LCD_RST*%
X103680000Y-96532000D03*
X95806000Y-96544000D03*
%TO.N,+3V3*%
X67564000Y-69088000D03*
X67564000Y-91440000D03*
%TO.N,/BTN_PRESET3*%
X122428000Y-72390000D03*
X166370000Y-131445000D03*
%TO.N,/BTN_UP*%
X123825000Y-115570000D03*
X122428000Y-77500000D03*
%TO.N,/BTN_DOWN*%
X140335000Y-115570000D03*
X123444000Y-71120000D03*
%TO.N,/BTN_OK*%
X124405000Y-69905000D03*
X166370000Y-115570000D03*
%TO.N,/BTN_TUNER*%
X97790000Y-115570000D03*
X123444000Y-78740000D03*
%TD*%
D27*
%TO.N,/BTN_PRESET0*%
X100965000Y-129540000D02*
X99060000Y-131445000D01*
X121412000Y-76200000D02*
X125781256Y-76200000D01*
X125781256Y-76200000D02*
X129502000Y-79920744D01*
X128759372Y-129540000D02*
X100965000Y-129540000D01*
X129502000Y-79920744D02*
X129502000Y-128797372D01*
X129502000Y-128797372D02*
X128759372Y-129540000D01*
X99060000Y-131445000D02*
X97790000Y-131445000D01*
%TO.N,/BTN_PRESET1*%
X120396000Y-74930000D02*
X125926884Y-74930000D01*
X130503000Y-129212000D02*
X128339449Y-131375551D01*
X128339449Y-131375551D02*
X123825000Y-131375551D01*
X125926884Y-74930000D02*
X130503000Y-79506116D01*
X130503000Y-79506116D02*
X130503000Y-129212000D01*
%TO.N,/BTN_PRESET2*%
X131504000Y-79091488D02*
X131504000Y-129200402D01*
X121412000Y-73660000D02*
X126072512Y-73660000D01*
X131504000Y-129200402D02*
X133748598Y-131445000D01*
X126072512Y-73660000D02*
X131504000Y-79091488D01*
X133748598Y-131445000D02*
X139700000Y-131445000D01*
%TO.N,GNDREF*%
X66342000Y-101878000D02*
X62278000Y-101878000D01*
%TO.N,+0V*%
X88000000Y-126300366D02*
X82000000Y-132300366D01*
X88000000Y-100250000D02*
X88000000Y-126300366D01*
X85250000Y-97500000D02*
X88000000Y-100250000D01*
%TO.N,/DAC_MCLK*%
X120952000Y-67310000D02*
X120952000Y-70636000D01*
X113483000Y-78105000D02*
X93349000Y-78105000D01*
X93349000Y-78105000D02*
X89922000Y-81532000D01*
X120952000Y-70636000D02*
X113483000Y-78105000D01*
%TO.N,/LCD_RST*%
X95842000Y-96532000D02*
X103592000Y-96532000D01*
%TO.N,+3V3*%
X67564000Y-69088000D02*
X67564000Y-91440000D01*
%TO.N,/BTN_PRESET3*%
X163195000Y-129540000D02*
X165100000Y-131445000D01*
X126218140Y-72390000D02*
X132505000Y-78676860D01*
X165100000Y-131445000D02*
X166370000Y-131445000D01*
X122428000Y-72390000D02*
X126218140Y-72390000D01*
X132505000Y-128785774D02*
X133259226Y-129540000D01*
X132505000Y-78676860D02*
X132505000Y-128785774D01*
X133259226Y-129540000D02*
X163195000Y-129540000D01*
%TO.N,/BTN_UP*%
X128501000Y-112799000D02*
X125730000Y-115570000D01*
X128501000Y-80335372D02*
X128501000Y-112799000D01*
X122428000Y-77500000D02*
X125665628Y-77500000D01*
X125665628Y-77500000D02*
X128501000Y-80335372D01*
X125730000Y-115570000D02*
X123825000Y-115570000D01*
%TO.N,/BTN_DOWN*%
X133506000Y-112868500D02*
X136207500Y-115570000D01*
X136207500Y-115570000D02*
X140335000Y-115570000D01*
X123444000Y-71120000D02*
X126363768Y-71120000D01*
X126363768Y-71120000D02*
X133506000Y-78262232D01*
X133506000Y-78262232D02*
X133506000Y-112868500D01*
%TO.N,/BTN_OK*%
X163195000Y-113665000D02*
X135890000Y-113665000D01*
X134507000Y-112282000D02*
X134507000Y-77847604D01*
X166370000Y-115570000D02*
X165100000Y-115570000D01*
X126564396Y-69905000D02*
X124405000Y-69905000D01*
X165100000Y-115570000D02*
X163195000Y-113665000D01*
X135890000Y-113665000D02*
X134507000Y-112282000D01*
X134507000Y-77847604D02*
X126564396Y-69905000D01*
%TO.N,/BTN_TUNER*%
X99060000Y-115570000D02*
X97790000Y-115570000D01*
X125490000Y-78740000D02*
X127500000Y-80750000D01*
X127500000Y-112384372D02*
X126219372Y-113665000D01*
X127500000Y-80750000D02*
X127500000Y-112384372D01*
X126219372Y-113665000D02*
X100965000Y-113665000D01*
X100965000Y-113665000D02*
X99060000Y-115570000D01*
X123444000Y-78740000D02*
X125490000Y-78740000D01*
%TD*%
M02*
