<?xml version="1.0" standalone="no"?>
 <!DOCTYPE svg PUBLIC "-//W3C//DTD SVG 1.1//EN" 
 "http://www.w3.org/Graphics/SVG/1.1/DTD/svg11.dtd"> 
<svg
  xmlns:svg="http://www.w3.org/2000/svg"
  xmlns="http://www.w3.org/2000/svg"
  xmlns:xlink="http://www.w3.org/1999/xlink"
  version="1.1"
  width="297.002200mm" height="210.007200mm" viewBox="0.000000 0.000000 297.002200 210.007200">
<title>SVG Image created as zavrsni-F_Paste.svg date 2025/12/05 11:23:45 </title>
  <desc>Image generated by PCBNEW </desc>
<g style="fill:#000000; fill-opacity:1.000000;stroke:#000000; stroke-opacity:1.000000;
stroke-linecap:round; stroke-linejoin:round;"
 transform="translate(0 0) scale(1 1)">
<path style="fill:#000000; fill-opacity:1.000000; stroke:none;fill-rule:evenodd;"
d="M 183.947200,63.926000
184.004603,63.914582
184.053266,63.882066
184.085782,63.833403
184.097200,63.776000
184.097200,62.126000
184.085782,62.068597
184.053266,62.019934
184.004603,61.987418
183.947200,61.976000
183.647200,61.976000
183.589797,61.987418
183.541134,62.019934
183.508618,62.068597
183.497200,62.126000
183.497200,63.776000
183.508618,63.833403
183.541134,63.882066
183.589797,63.914582
183.647200,63.926000
Z" /> 
<path style="fill:#000000; fill-opacity:1.000000; stroke:none;fill-rule:evenodd;"
d="M 182.677200,63.926000
182.734603,63.914582
182.783266,63.882066
182.815782,63.833403
182.827200,63.776000
182.827200,62.126000
182.815782,62.068597
182.783266,62.019934
182.734603,61.987418
182.677200,61.976000
182.377200,61.976000
182.319797,61.987418
182.271134,62.019934
182.238618,62.068597
182.227200,62.126000
182.227200,63.776000
182.238618,63.833403
182.271134,63.882066
182.319797,63.914582
182.377200,63.926000
Z" /> 
<path style="fill:#000000; fill-opacity:1.000000; stroke:none;fill-rule:evenodd;"
d="M 181.407200,63.926000
181.464603,63.914582
181.513266,63.882066
181.545782,63.833403
181.557200,63.776000
181.557200,62.126000
181.545782,62.068597
181.513266,62.019934
181.464603,61.987418
181.407200,61.976000
181.107200,61.976000
181.049797,61.987418
181.001134,62.019934
180.968618,62.068597
180.957200,62.126000
180.957200,63.776000
180.968618,63.833403
181.001134,63.882066
181.049797,63.914582
181.107200,63.926000
Z" /> 
<path style="fill:#000000; fill-opacity:1.000000; stroke:none;fill-rule:evenodd;"
d="M 180.137200,63.926000
180.194603,63.914582
180.243266,63.882066
180.275782,63.833403
180.287200,63.776000
180.287200,62.126000
180.275782,62.068597
180.243266,62.019934
180.194603,61.987418
180.137200,61.976000
179.837200,61.976000
179.779797,61.987418
179.731134,62.019934
179.698618,62.068597
179.687200,62.126000
179.687200,63.776000
179.698618,63.833403
179.731134,63.882066
179.779797,63.914582
179.837200,63.926000
Z" /> 
<path style="fill:#000000; fill-opacity:1.000000; stroke:none;fill-rule:evenodd;"
d="M 180.137200,58.976000
180.194603,58.964582
180.243266,58.932066
180.275782,58.883403
180.287200,58.826000
180.287200,57.176000
180.275782,57.118597
180.243266,57.069934
180.194603,57.037418
180.137200,57.026000
179.837200,57.026000
179.779797,57.037418
179.731134,57.069934
179.698618,57.118597
179.687200,57.176000
179.687200,58.826000
179.698618,58.883403
179.731134,58.932066
179.779797,58.964582
179.837200,58.976000
Z" /> 
<path style="fill:#000000; fill-opacity:1.000000; stroke:none;fill-rule:evenodd;"
d="M 181.407200,58.976000
181.464603,58.964582
181.513266,58.932066
181.545782,58.883403
181.557200,58.826000
181.557200,57.176000
181.545782,57.118597
181.513266,57.069934
181.464603,57.037418
181.407200,57.026000
181.107200,57.026000
181.049797,57.037418
181.001134,57.069934
180.968618,57.118597
180.957200,57.176000
180.957200,58.826000
180.968618,58.883403
181.001134,58.932066
181.049797,58.964582
181.107200,58.976000
Z" /> 
<path style="fill:#000000; fill-opacity:1.000000; stroke:none;fill-rule:evenodd;"
d="M 182.677200,58.976000
182.734603,58.964582
182.783266,58.932066
182.815782,58.883403
182.827200,58.826000
182.827200,57.176000
182.815782,57.118597
182.783266,57.069934
182.734603,57.037418
182.677200,57.026000
182.377200,57.026000
182.319797,57.037418
182.271134,57.069934
182.238618,57.118597
182.227200,57.176000
182.227200,58.826000
182.238618,58.883403
182.271134,58.932066
182.319797,58.964582
182.377200,58.976000
Z" /> 
<path style="fill:#000000; fill-opacity:1.000000; stroke:none;fill-rule:evenodd;"
d="M 183.947200,58.976000
184.004603,58.964582
184.053266,58.932066
184.085782,58.883403
184.097200,58.826000
184.097200,57.176000
184.085782,57.118597
184.053266,57.069934
184.004603,57.037418
183.947200,57.026000
183.647200,57.026000
183.589797,57.037418
183.541134,57.069934
183.508618,57.118597
183.497200,57.176000
183.497200,58.826000
183.508618,58.883403
183.541134,58.932066
183.589797,58.964582
183.647200,58.976000
Z" /> 
</g> 
</svg>
