%TF.GenerationSoftware,KiCad,Pcbnew,9.0.6*%
%TF.CreationDate,2025-12-13T15:11:02+01:00*%
%TF.ProjectId,zavrsni,7a617672-736e-4692-9e6b-696361645f70,rev?*%
%TF.SameCoordinates,Original*%
%TF.FileFunction,Soldermask,Top*%
%TF.FilePolarity,Negative*%
%FSLAX46Y46*%
G04 Gerber Fmt 4.6, Leading zero omitted, Abs format (unit mm)*
G04 Created by KiCad (PCBNEW 9.0.6) date 2025-12-13 15:11:02*
%MOMM*%
%LPD*%
G01*
G04 APERTURE LIST*
G04 Aperture macros list*
%AMRoundRect*
0 Rectangle with rounded corners*
0 $1 Rounding radius*
0 $2 $3 $4 $5 $6 $7 $8 $9 X,Y pos of 4 corners*
0 Add a 4 corners polygon primitive as box body*
4,1,4,$2,$3,$4,$5,$6,$7,$8,$9,$2,$3,0*
0 Add four circle primitives for the rounded corners*
1,1,$1+$1,$2,$3*
1,1,$1+$1,$4,$5*
1,1,$1+$1,$6,$7*
1,1,$1+$1,$8,$9*
0 Add four rect primitives between the rounded corners*
20,1,$1+$1,$2,$3,$4,$5,0*
20,1,$1+$1,$4,$5,$6,$7,0*
20,1,$1+$1,$6,$7,$8,$9,0*
20,1,$1+$1,$8,$9,$2,$3,0*%
G04 Aperture macros list end*
%ADD10RoundRect,0.150000X0.150000X-0.825000X0.150000X0.825000X-0.150000X0.825000X-0.150000X-0.825000X0*%
%ADD11RoundRect,0.250000X0.550000X-0.550000X0.550000X0.550000X-0.550000X0.550000X-0.550000X-0.550000X0*%
%ADD12C,1.600000*%
%ADD13C,2.000000*%
%ADD14RoundRect,0.250000X-0.550000X0.550000X-0.550000X-0.550000X0.550000X-0.550000X0.550000X0.550000X0*%
%ADD15RoundRect,1.000000X-3.000000X1.000000X-3.000000X-1.000000X3.000000X-1.000000X3.000000X1.000000X0*%
%ADD16RoundRect,0.250000X0.550000X0.550000X-0.550000X0.550000X-0.550000X-0.550000X0.550000X-0.550000X0*%
%ADD17RoundRect,1.000000X-1.000000X-3.000000X1.000000X-3.000000X1.000000X3.000000X-1.000000X3.000000X0*%
%ADD18RoundRect,0.250000X-0.550000X-0.550000X0.550000X-0.550000X0.550000X0.550000X-0.550000X0.550000X0*%
%ADD19C,3.500000*%
%ADD20R,1.905000X2.000000*%
%ADD21O,1.905000X2.000000*%
%ADD22C,7.600000*%
%ADD23R,1.800000X1.800000*%
%ADD24C,1.800000*%
%ADD25O,2.720000X3.240000*%
%ADD26RoundRect,1.000000X3.000000X-1.000000X3.000000X1.000000X-3.000000X1.000000X-3.000000X-1.000000X0*%
%ADD27R,1.700000X1.700000*%
%ADD28C,1.700000*%
%ADD29R,1.050000X1.500000*%
%ADD30O,1.050000X1.500000*%
G04 APERTURE END LIST*
D10*
%TO.C,U1*%
X113205000Y-62951000D03*
X114475000Y-62951000D03*
X115745000Y-62951000D03*
X117015000Y-62951000D03*
X117015000Y-58001000D03*
X115745000Y-58001000D03*
X114475000Y-58001000D03*
X113205000Y-58001000D03*
%TD*%
D11*
%TO.C,C13*%
X107454678Y-93909860D03*
D12*
X107454678Y-91409860D03*
%TD*%
%TO.C,C21*%
X51546867Y-119500000D03*
X51546867Y-124500000D03*
%TD*%
D13*
%TO.C,SW_PRESET_1*%
X121250000Y-131750000D03*
X121250000Y-138250000D03*
X116750000Y-131750000D03*
X116750000Y-138250000D03*
%TD*%
D12*
%TO.C,R1*%
X71250270Y-137456464D03*
X76330270Y-137456464D03*
%TD*%
%TO.C,C11*%
X59778000Y-124864000D03*
X54778000Y-124864000D03*
%TD*%
%TO.C,R11*%
X68672309Y-103505000D03*
X68672309Y-100965000D03*
%TD*%
D14*
%TO.C,C19*%
X62026937Y-67710276D03*
D12*
X62026937Y-70210276D03*
%TD*%
D15*
%TO.C,Jin1*%
X72759899Y-141289608D03*
%TD*%
D11*
%TO.C,D1*%
X85204646Y-103575538D03*
D12*
X85204646Y-101035538D03*
%TD*%
D13*
%TO.C,SW_UP1*%
X121250000Y-116000000D03*
X121250000Y-122500000D03*
X116750000Y-116000000D03*
X116750000Y-122500000D03*
%TD*%
D16*
%TO.C,C24*%
X59967112Y-109370000D03*
D12*
X57467112Y-109370000D03*
%TD*%
D16*
%TO.C,C6*%
X65236196Y-140127557D03*
D12*
X62736196Y-140127557D03*
%TD*%
%TO.C,R7*%
X55829849Y-91464260D03*
X55829849Y-94004260D03*
%TD*%
D17*
%TO.C,Jvcc1*%
X64350000Y-107846000D03*
%TD*%
D12*
%TO.C,R13*%
X71730875Y-103498707D03*
X71730875Y-100958707D03*
%TD*%
%TO.C,C3*%
X110792000Y-62214000D03*
X110792000Y-57214000D03*
%TD*%
%TO.C,C1*%
X78858693Y-140454880D03*
X78858693Y-142954880D03*
%TD*%
D14*
%TO.C,C22*%
X63990196Y-128820223D03*
D12*
X63990196Y-131320223D03*
%TD*%
D11*
%TO.C,C7*%
X82630496Y-120917682D03*
D12*
X82630496Y-118417682D03*
%TD*%
D18*
%TO.C,U4*%
X74770000Y-88280000D03*
D12*
X74770000Y-90820000D03*
X74770000Y-93360000D03*
X74770000Y-95900000D03*
X74770000Y-98440000D03*
X74770000Y-100980000D03*
X74770000Y-103520000D03*
X82390000Y-103520000D03*
X82390000Y-100980000D03*
X82390000Y-98440000D03*
X82390000Y-95900000D03*
X82390000Y-93360000D03*
X82390000Y-90820000D03*
X82390000Y-88280000D03*
%TD*%
%TO.C,R9*%
X79770000Y-106642585D03*
X74690000Y-106642585D03*
%TD*%
%TO.C,R4*%
X59778000Y-131214000D03*
X49618000Y-131214000D03*
%TD*%
%TO.C,R2*%
X81961607Y-142206470D03*
X84501607Y-142206470D03*
%TD*%
D19*
%TO.C,U6*%
X61257895Y-76859423D03*
D20*
X58717895Y-93519423D03*
D21*
X61257895Y-93519423D03*
X63797895Y-93519423D03*
%TD*%
D11*
%TO.C,C4*%
X106474000Y-62443112D03*
D12*
X106474000Y-59943112D03*
%TD*%
D13*
%TO.C,SW_DOWN1*%
X142750000Y-122500000D03*
X142750000Y-116000000D03*
X147250000Y-122500000D03*
X147250000Y-116000000D03*
%TD*%
D12*
%TO.C,C15*%
X66111074Y-98342831D03*
X61111074Y-98342831D03*
%TD*%
D11*
%TO.C,U3*%
X68453728Y-134352813D03*
D12*
X70993728Y-134352813D03*
X73533728Y-134352813D03*
X76073728Y-134352813D03*
X76073728Y-126732813D03*
X73533728Y-126732813D03*
X70993728Y-126732813D03*
X68453728Y-126732813D03*
%TD*%
%TO.C,C12*%
X104187497Y-85725000D03*
X109187497Y-85725000D03*
%TD*%
D16*
%TO.C,D2*%
X78740000Y-85317774D03*
D12*
X76200000Y-85317774D03*
%TD*%
D16*
%TO.C,C5*%
X49868851Y-97901362D03*
D12*
X47368851Y-97901362D03*
%TD*%
D18*
%TO.C,C2*%
X81697650Y-137860664D03*
D12*
X84197650Y-137860664D03*
%TD*%
%TO.C,C18*%
X69304084Y-63235120D03*
X74304084Y-63235120D03*
%TD*%
D13*
%TO.C,SW_PRESET_3*%
X168750000Y-138250000D03*
X168750000Y-131750000D03*
X173250000Y-138250000D03*
X173250000Y-131750000D03*
%TD*%
D22*
%TO.C,H4*%
X180340000Y-60000000D03*
%TD*%
D12*
%TO.C,R3*%
X49618000Y-127912000D03*
X59778000Y-127912000D03*
%TD*%
%TO.C,R6*%
X75622584Y-123682417D03*
X78162584Y-123682417D03*
%TD*%
D23*
%TO.C,R_GAIN1*%
X70891770Y-120911944D03*
D24*
X73391770Y-120911944D03*
X75891770Y-120911944D03*
D25*
X68591770Y-113411944D03*
X78191770Y-113411944D03*
%TD*%
D18*
%TO.C,U5*%
X54698000Y-113942000D03*
D12*
X54698000Y-116482000D03*
X54698000Y-119022000D03*
X54698000Y-121562000D03*
X62318000Y-121562000D03*
X62318000Y-119022000D03*
X62318000Y-116482000D03*
X62318000Y-113942000D03*
%TD*%
D26*
%TO.C,Jout1*%
X122555643Y-59895388D03*
%TD*%
D12*
%TO.C,C8*%
X79530194Y-129770172D03*
X79530194Y-134770172D03*
%TD*%
D11*
%TO.C,C20*%
X65342000Y-64737112D03*
D12*
X65342000Y-62237112D03*
%TD*%
D13*
%TO.C,SW_OK1*%
X168750000Y-122500000D03*
X168750000Y-116000000D03*
X173250000Y-122500000D03*
X173250000Y-116000000D03*
%TD*%
%TO.C,SW_TUNER1*%
X95250000Y-116000000D03*
X95250000Y-122500000D03*
X90750000Y-116000000D03*
X90750000Y-122500000D03*
%TD*%
D12*
%TO.C,R8*%
X52804196Y-93092580D03*
X52804196Y-90552580D03*
%TD*%
%TO.C,R10*%
X68672309Y-98337650D03*
X68672309Y-93257650D03*
%TD*%
D22*
%TO.C,H3*%
X180340000Y-142500000D03*
%TD*%
D13*
%TO.C,SW_PRESET_2*%
X142750000Y-138250000D03*
X142750000Y-131750000D03*
X147250000Y-138250000D03*
X147250000Y-131750000D03*
%TD*%
D27*
%TO.C,U7*%
X111835140Y-85711103D03*
D28*
X111835140Y-88251103D03*
X111835140Y-90791103D03*
X111835140Y-93331103D03*
X111835140Y-95871103D03*
X111835140Y-98411103D03*
X111835140Y-100951103D03*
X111835140Y-103491103D03*
X111835140Y-106031103D03*
%TD*%
D22*
%TO.C,H2*%
X44450000Y-142500000D03*
%TD*%
D13*
%TO.C,SW_PRESET_0*%
X95250000Y-131750000D03*
X95250000Y-138250000D03*
X90750000Y-131750000D03*
X90750000Y-138250000D03*
%TD*%
D15*
%TO.C,Jvss1*%
X54952000Y-135278000D03*
%TD*%
D14*
%TO.C,U2*%
X117862000Y-66292000D03*
D12*
X115322000Y-66292000D03*
X112782000Y-66292000D03*
X110242000Y-66292000D03*
X107702000Y-66292000D03*
X105162000Y-66292000D03*
X102622000Y-66292000D03*
X100082000Y-66292000D03*
X97542000Y-66292000D03*
X95002000Y-66292000D03*
X92462000Y-66292000D03*
X89922000Y-66292000D03*
X87382000Y-66292000D03*
X84842000Y-66292000D03*
X82302000Y-66292000D03*
X79762000Y-66292000D03*
X77222000Y-66292000D03*
X74682000Y-66292000D03*
X72142000Y-66292000D03*
X69602000Y-66292000D03*
X69602000Y-81532000D03*
X72142000Y-81532000D03*
X74682000Y-81532000D03*
X77222000Y-81532000D03*
X79762000Y-81532000D03*
X82302000Y-81532000D03*
X84842000Y-81532000D03*
X87382000Y-81532000D03*
X89922000Y-81532000D03*
X92462000Y-81532000D03*
X95002000Y-81532000D03*
X97542000Y-81532000D03*
X100082000Y-81532000D03*
X102622000Y-81532000D03*
X105162000Y-81532000D03*
X107702000Y-81532000D03*
X110242000Y-81532000D03*
X112782000Y-81532000D03*
X115322000Y-81532000D03*
X117862000Y-81532000D03*
%TD*%
D14*
%TO.C,C9*%
X56690000Y-101370000D03*
D12*
X56690000Y-103870000D03*
%TD*%
D22*
%TO.C,H1*%
X44450000Y-60000000D03*
%TD*%
D29*
%TO.C,Q2*%
X54444000Y-109607587D03*
D30*
X53174000Y-109607587D03*
X51904000Y-109607587D03*
%TD*%
D12*
%TO.C,C14*%
X58983504Y-96612986D03*
X53983504Y-96612986D03*
%TD*%
D29*
%TO.C,Q1*%
X50594000Y-104164000D03*
D30*
X49324000Y-104164000D03*
X48054000Y-104164000D03*
%TD*%
D12*
%TO.C,R12*%
X81494207Y-109682403D03*
X81494207Y-114762403D03*
%TD*%
M02*
