%TF.GenerationSoftware,KiCad,Pcbnew,10.0.0*%
%TF.CreationDate,2026-07-01T16:49:52+02:00*%
%TF.ProjectId,zavrsni-h7-kicad,7a617672-736e-4692-9d68-372d6b696361,rev?*%
%TF.SameCoordinates,Original*%
%TF.FileFunction,Copper,L2,Bot*%
%TF.FilePolarity,Positive*%
%FSLAX46Y46*%
G04 Gerber Fmt 4.6, Leading zero omitted, Abs format (unit mm)*
G04 Created by KiCad (PCBNEW 10.0.0) date 2026-07-01 16:49:52*
%MOMM*%
%LPD*%
G01*
G04 APERTURE LIST*
G04 Aperture macros list*
%AMRoundRect*
0 Rectangle with rounded corners*
0 $1 Rounding radius*
0 $2 $3 $4 $5 $6 $7 $8 $9 X,Y pos of 4 corners*
0 Add a 4 corners polygon primitive as box body*
4,1,4,$2,$3,$4,$5,$6,$7,$8,$9,$2,$3,0*
0 Add four circle primitives for the rounded corners*
1,1,$1+$1,$2,$3*
1,1,$1+$1,$4,$5*
1,1,$1+$1,$6,$7*
1,1,$1+$1,$8,$9*
0 Add four rect primitives between the rounded corners*
20,1,$1+$1,$2,$3,$4,$5,0*
20,1,$1+$1,$4,$5,$6,$7,0*
20,1,$1+$1,$6,$7,$8,$9,0*
20,1,$1+$1,$8,$9,$2,$3,0*%
G04 Aperture macros list end*
%TA.AperFunction,ComponentPad*%
%ADD10RoundRect,0.250000X-0.550000X0.950000X-0.550000X-0.950000X0.550000X-0.950000X0.550000X0.950000X0*%
%TD*%
%TA.AperFunction,ComponentPad*%
%ADD11O,1.600000X2.400000*%
%TD*%
%TA.AperFunction,ComponentPad*%
%ADD12O,3.016000X1.508000*%
%TD*%
%TA.AperFunction,ComponentPad*%
%ADD13R,1.700000X1.700000*%
%TD*%
%TA.AperFunction,ComponentPad*%
%ADD14C,1.700000*%
%TD*%
%TA.AperFunction,ComponentPad*%
%ADD15RoundRect,0.250000X0.350000X0.350000X-0.350000X0.350000X-0.350000X-0.350000X0.350000X-0.350000X0*%
%TD*%
%TA.AperFunction,ComponentPad*%
%ADD16C,1.200000*%
%TD*%
%TA.AperFunction,ComponentPad*%
%ADD17R,2.000000X2.000000*%
%TD*%
%TA.AperFunction,ComponentPad*%
%ADD18C,2.000000*%
%TD*%
%TA.AperFunction,ComponentPad*%
%ADD19R,2.000000X3.200000*%
%TD*%
%TA.AperFunction,ComponentPad*%
%ADD20RoundRect,0.250000X0.550000X-0.550000X0.550000X0.550000X-0.550000X0.550000X-0.550000X-0.550000X0*%
%TD*%
%TA.AperFunction,ComponentPad*%
%ADD21C,1.600000*%
%TD*%
%TA.AperFunction,ComponentPad*%
%ADD22RoundRect,0.250000X-0.550000X-0.550000X0.550000X-0.550000X0.550000X0.550000X-0.550000X0.550000X0*%
%TD*%
%TA.AperFunction,ComponentPad*%
%ADD23RoundRect,0.250000X-0.600000X0.600000X-0.600000X-0.600000X0.600000X-0.600000X0.600000X0.600000X0*%
%TD*%
%TA.AperFunction,ComponentPad*%
%ADD24C,3.500000*%
%TD*%
%TA.AperFunction,ComponentPad*%
%ADD25RoundRect,0.250000X0.550000X-0.950000X0.550000X0.950000X-0.550000X0.950000X-0.550000X-0.950000X0*%
%TD*%
%TA.AperFunction,ComponentPad*%
%ADD26RoundRect,0.250000X-0.350000X0.350000X-0.350000X-0.350000X0.350000X-0.350000X0.350000X0.350000X0*%
%TD*%
%TA.AperFunction,ComponentPad*%
%ADD27R,1.905000X2.000000*%
%TD*%
%TA.AperFunction,ComponentPad*%
%ADD28O,1.905000X2.000000*%
%TD*%
%TA.AperFunction,ComponentPad*%
%ADD29R,3.500000X3.500000*%
%TD*%
%TA.AperFunction,ComponentPad*%
%ADD30RoundRect,0.750000X0.750000X1.000000X-0.750000X1.000000X-0.750000X-1.000000X0.750000X-1.000000X0*%
%TD*%
%TA.AperFunction,ComponentPad*%
%ADD31RoundRect,0.875000X0.875000X0.875000X-0.875000X0.875000X-0.875000X-0.875000X0.875000X-0.875000X0*%
%TD*%
%TA.AperFunction,ViaPad*%
%ADD32C,0.850000*%
%TD*%
G04 APERTURE END LIST*
D10*
%TO.P,U5,1*%
%TO.N,Net-(U5A--)*%
X128960000Y-123840000D03*
D11*
%TO.P,U5,2,-_2*%
X126420000Y-123840000D03*
%TO.P,U5,3,+_3*%
%TO.N,Net-(U5A-+)*%
X123880000Y-123840000D03*
%TO.P,U5,4,V-_4*%
%TO.N,GNDPWR*%
X121340000Y-123840000D03*
%TO.P,U5,5,+_5*%
%TO.N,Net-(U5B-+)*%
X121340000Y-131460000D03*
%TO.P,U5,6,-_6*%
%TO.N,Net-(JP1-A)*%
X123880000Y-131460000D03*
%TO.P,U5,7*%
%TO.N,Net-(JP1-B)*%
X126420000Y-131460000D03*
%TO.P,U5,8,V+_8*%
%TO.N,+12V*%
X128960000Y-131460000D03*
%TD*%
D10*
%TO.P,U7,1*%
%TO.N,Net-(C30-Pad1)*%
X145670000Y-132300000D03*
D11*
%TO.P,U7,2,-_2*%
%TO.N,Net-(U7A--)*%
X143130000Y-132300000D03*
%TO.P,U7,3,+_3*%
%TO.N,Net-(U7A-+)*%
X140590000Y-132300000D03*
%TO.P,U7,4,V-_4*%
%TO.N,GNDPWR*%
X138050000Y-132300000D03*
%TO.P,U7,5,+_5*%
%TO.N,unconnected-(U7B-+-Pad5)*%
X138050000Y-139920000D03*
%TO.P,U7,6,-_6*%
%TO.N,unconnected-(U7B---Pad6)*%
X140590000Y-139920000D03*
%TO.P,U7,7*%
%TO.N,unconnected-(U7-Pad7)*%
X143130000Y-139920000D03*
%TO.P,U7,8,V+_8*%
%TO.N,+12V*%
X145670000Y-139920000D03*
%TD*%
D12*
%TO.P,JOUT1,*%
%TO.N,*%
X106650000Y-153050000D03*
X113850000Y-148050000D03*
%TO.P,JOUT1,S*%
%TO.N,GNDPWR*%
X98950000Y-150550000D03*
%TO.P,JOUT1,T*%
%TO.N,Net-(C30-Pad2)*%
X113850000Y-153050000D03*
%TD*%
D13*
%TO.P,J5V1,1,Pin_1_1*%
%TO.N,Net-(J5V1-Pin_1)*%
X123550000Y-107425000D03*
D14*
%TO.P,J5V1,2,Pin_2_2*%
X123550000Y-104885000D03*
%TD*%
D12*
%TO.P,JIN1,*%
%TO.N,*%
X106650000Y-134550000D03*
X113850000Y-129550000D03*
%TO.P,JIN1,S*%
%TO.N,GNDPWR*%
X98950000Y-132050000D03*
%TO.P,JIN1,T*%
%TO.N,Net-(C24-Pad1)*%
X113850000Y-134550000D03*
%TD*%
D15*
%TO.P,C22,1*%
%TO.N,Net-(U3-FILT+)*%
X142200000Y-120150000D03*
D16*
%TO.P,C22,2*%
%TO.N,GNDPWR*%
X140700000Y-120150000D03*
%TD*%
D17*
%TO.P,SW1,A,A_A*%
%TO.N,/ROT_A*%
X188895000Y-150945000D03*
D18*
%TO.P,SW1,B,B_B*%
%TO.N,unconnected-(SW1-PadB)*%
X193895000Y-150945000D03*
%TO.P,SW1,C,C_C*%
%TO.N,GNDPWR*%
X191395000Y-150945000D03*
D19*
%TO.P,SW1,MP,MP_MP*%
X185795000Y-143445000D03*
X196995000Y-143445000D03*
D18*
%TO.P,SW1,S1,S1_S1*%
%TO.N,/ROT_SW*%
X193895000Y-136445000D03*
%TO.P,SW1,S2,S2_S2*%
%TO.N,GNDPWR*%
X188895000Y-136445000D03*
%TD*%
D20*
%TO.P,C23,1*%
%TO.N,GNDREF*%
X114450000Y-120305112D03*
D21*
%TO.P,C23,2*%
%TO.N,GNDPWR*%
X114450000Y-118305112D03*
%TD*%
D22*
%TO.P,C13,1*%
%TO.N,+12V*%
X183788999Y-81207027D03*
D21*
%TO.P,C13,2*%
%TO.N,GNDPWR*%
X187288999Y-81207027D03*
%TD*%
D23*
%TO.P,J2,1,VBUS_1*%
%TO.N,unconnected-(J2-VBUS-Pad1)*%
X163000000Y-147650000D03*
D14*
%TO.P,J2,2,D-_2*%
%TO.N,/USB_N*%
X160500000Y-147650000D03*
%TO.P,J2,3,D+_3*%
%TO.N,/USB_P*%
X160500000Y-149650000D03*
%TO.P,J2,4,GND_4*%
%TO.N,GNDPWR*%
X163000000Y-149650000D03*
D24*
%TO.P,J2,SH,Shield_SH*%
%TO.N,unconnected-(J2-Shield-PadSH)*%
X167770000Y-152360000D03*
%TO.N,unconnected-(J2-Shield-PadSH)_1*%
X155730000Y-152360000D03*
%TD*%
D13*
%TO.P,J3V3,1,Pin_1_1*%
%TO.N,Net-(J3V3-Pin_1)*%
X175575000Y-99650000D03*
D14*
%TO.P,J3V3,2,Pin_2_2*%
X173035000Y-99650000D03*
%TD*%
D13*
%TO.P,JSWD1,1,Pin_1_1*%
%TO.N,/SWDIO*%
X154260000Y-129790000D03*
D14*
%TO.P,JSWD1,2,Pin_2_2*%
%TO.N,/SWCLK*%
X156800000Y-129790000D03*
%TO.P,JSWD1,3,Pin_3_3*%
%TO.N,GNDPWR*%
X159340000Y-129790000D03*
%TD*%
D25*
%TO.P,U6,1*%
%TO.N,Net-(D2-K)*%
X107300000Y-110100000D03*
D11*
%TO.P,U6,2,-_2*%
X109840000Y-110100000D03*
%TO.P,U6,3,+_3*%
%TO.N,Net-(U6A-+)*%
X112380000Y-110100000D03*
%TO.P,U6,4,V-_4*%
%TO.N,GNDPWR*%
X114920000Y-110100000D03*
%TO.P,U6,5,+_5*%
%TO.N,Net-(U6B-+)*%
X114920000Y-102480000D03*
%TO.P,U6,6,-_6*%
%TO.N,Net-(D3-A)*%
X112380000Y-102480000D03*
%TO.P,U6,7*%
X109840000Y-102480000D03*
%TO.P,U6,8,V+_8*%
%TO.N,+12V*%
X107300000Y-102480000D03*
%TD*%
D13*
%TO.P,JCD1,1,Pin_1_1*%
%TO.N,/CODEC_MCK*%
X148600000Y-105200000D03*
D14*
%TO.P,JCD1,2,Pin_2_2*%
%TO.N,/CODEC_WS*%
X148600000Y-107740000D03*
%TO.P,JCD1,3,Pin_3_3*%
%TO.N,/CODEC_SCLK*%
X148600000Y-110280000D03*
%TO.P,JCD1,4,Pin_4_4*%
%TO.N,/CODEC_SDOUT*%
X148600000Y-112820000D03*
%TO.P,JCD1,5,Pin_5_5*%
%TO.N,/CODEC_SDIN*%
X148600000Y-115360000D03*
%TD*%
D26*
%TO.P,C31,1*%
%TO.N,Net-(C31-Pad1)*%
X129210000Y-114220000D03*
D16*
%TO.P,C31,2*%
%TO.N,GNDPWR*%
X129210000Y-115720000D03*
%TD*%
D22*
%TO.P,C12,1*%
%TO.N,Net-(J3V3-Pin_1)*%
X179183886Y-99507027D03*
D21*
%TO.P,C12,2*%
%TO.N,GNDPWR*%
X181183886Y-99507027D03*
%TD*%
D13*
%TO.P,JCDIN1,1,Pin_1_1*%
%TO.N,Net-(D2-A)*%
X135025000Y-123650000D03*
D14*
%TO.P,JCDIN1,2,Pin_2_2*%
X132485000Y-123650000D03*
%TD*%
D13*
%TO.P,J12V1,1,Pin_1_1*%
%TO.N,Net-(J12V1-Pin_1)*%
X200950000Y-82500000D03*
D14*
%TO.P,J12V1,2,Pin_2_2*%
X200950000Y-79960000D03*
%TD*%
D27*
%TO.P,Q1,1,G_1*%
%TO.N,Net-(Q1-G)*%
X209300000Y-86050000D03*
D28*
%TO.P,Q1,2,D_2*%
%TO.N,VIN*%
X206760000Y-86050000D03*
%TO.P,Q1,3,S_3*%
%TO.N,Net-(J12V1-Pin_1)*%
X204220000Y-86050000D03*
%TD*%
D29*
%TO.P,J1,1*%
%TO.N,VIN*%
X206750000Y-79650000D03*
D30*
%TO.P,J1,2*%
%TO.N,GNDPWR*%
X212750000Y-79650000D03*
D31*
%TO.P,J1,3*%
X209750000Y-74950000D03*
%TD*%
D32*
%TO.N,GNDPWR*%
X143800000Y-136350000D03*
X194000000Y-74200000D03*
X158370000Y-101854000D03*
X114100000Y-99430000D03*
X172250000Y-134100000D03*
X135550000Y-95250000D03*
X152240000Y-103160000D03*
X161900000Y-119750000D03*
X88300000Y-101400000D03*
X136300000Y-128050000D03*
X194000000Y-82950000D03*
X163600000Y-88450000D03*
X99150000Y-121700000D03*
X130770000Y-109450000D03*
X168100000Y-102600000D03*
X162810000Y-144220000D03*
X130700000Y-149150000D03*
X187450000Y-105400000D03*
%TD*%
%TA.AperFunction,Conductor*%
%TO.N,GNDPWR*%
G36*
X220443039Y-71720185D02*
G01*
X220488794Y-71772989D01*
X220500000Y-71824500D01*
X220500000Y-162225500D01*
X220480315Y-162292539D01*
X220427511Y-162338294D01*
X220376000Y-162349500D01*
X82424000Y-162349500D01*
X82356961Y-162329815D01*
X82311206Y-162277011D01*
X82300000Y-162225500D01*
X82300000Y-152951263D01*
X104641500Y-152951263D01*
X104641500Y-153148736D01*
X104672389Y-153343763D01*
X104733408Y-153531558D01*
X104733409Y-153531561D01*
X104774902Y-153612994D01*
X104823058Y-153707504D01*
X104939115Y-153867246D01*
X105078753Y-154006884D01*
X105228234Y-154115486D01*
X105238499Y-154122944D01*
X105414439Y-154212591D01*
X105484140Y-154235238D01*
X105602236Y-154273610D01*
X105797264Y-154304500D01*
X105797269Y-154304500D01*
X107502736Y-154304500D01*
X107697763Y-154273610D01*
X107885561Y-154212591D01*
X108061501Y-154122944D01*
X108154128Y-154055647D01*
X108221246Y-154006884D01*
X108221248Y-154006881D01*
X108221252Y-154006879D01*
X108360879Y-153867252D01*
X108360881Y-153867248D01*
X108360884Y-153867246D01*
X108411779Y-153797192D01*
X108476944Y-153707501D01*
X108566591Y-153531561D01*
X108627610Y-153343763D01*
X108658500Y-153148736D01*
X108658500Y-152951263D01*
X111841500Y-152951263D01*
X111841500Y-153148736D01*
X111872389Y-153343763D01*
X111933408Y-153531558D01*
X111933409Y-153531561D01*
X111974902Y-153612994D01*
X112023058Y-153707504D01*
X112139115Y-153867246D01*
X112278753Y-154006884D01*
X112428234Y-154115486D01*
X112438499Y-154122944D01*
X112614439Y-154212591D01*
X112684140Y-154235238D01*
X112802236Y-154273610D01*
X112997264Y-154304500D01*
X112997269Y-154304500D01*
X114702736Y-154304500D01*
X114897763Y-154273610D01*
X115085561Y-154212591D01*
X115261501Y-154122944D01*
X115354128Y-154055647D01*
X115421246Y-154006884D01*
X115421248Y-154006881D01*
X115421252Y-154006879D01*
X115560879Y-153867252D01*
X115560881Y-153867248D01*
X115560884Y-153867246D01*
X115611779Y-153797192D01*
X115676944Y-153707501D01*
X115766591Y-153531561D01*
X115827610Y-153343763D01*
X115858500Y-153148736D01*
X115858500Y-152951263D01*
X115827610Y-152756236D01*
X115807270Y-152693637D01*
X115766591Y-152568439D01*
X115676944Y-152392499D01*
X115611590Y-152302546D01*
X115596171Y-152281323D01*
X115596168Y-152281320D01*
X115560882Y-152232753D01*
X115560879Y-152232748D01*
X115540617Y-152212486D01*
X153479500Y-152212486D01*
X153479500Y-152507513D01*
X153487522Y-152568441D01*
X153518007Y-152799993D01*
X153558541Y-152951269D01*
X153594361Y-153084951D01*
X153594364Y-153084961D01*
X153707254Y-153357500D01*
X153707258Y-153357510D01*
X153854761Y-153612993D01*
X154034352Y-153847040D01*
X154034358Y-153847047D01*
X154242952Y-154055641D01*
X154242959Y-154055647D01*
X154477006Y-154235238D01*
X154732489Y-154382741D01*
X154732490Y-154382741D01*
X154732493Y-154382743D01*
X155005048Y-154495639D01*
X155290007Y-154571993D01*
X155582494Y-154610500D01*
X155582501Y-154610500D01*
X155877499Y-154610500D01*
X155877506Y-154610500D01*
X156169993Y-154571993D01*
X156454952Y-154495639D01*
X156727507Y-154382743D01*
X156982994Y-154235238D01*
X157217042Y-154055646D01*
X157425646Y-153847042D01*
X157605238Y-153612994D01*
X157752743Y-153357507D01*
X157865639Y-153084952D01*
X157941993Y-152799993D01*
X157980500Y-152507506D01*
X157980500Y-152212494D01*
X157980499Y-152212486D01*
X165519500Y-152212486D01*
X165519500Y-152507513D01*
X165527522Y-152568441D01*
X165558007Y-152799993D01*
X165598541Y-152951269D01*
X165634361Y-153084951D01*
X165634364Y-153084961D01*
X165747254Y-153357500D01*
X165747258Y-153357510D01*
X165894761Y-153612993D01*
X166074352Y-153847040D01*
X166074358Y-153847047D01*
X166282952Y-154055641D01*
X166282959Y-154055647D01*
X166517006Y-154235238D01*
X166772489Y-154382741D01*
X166772490Y-154382741D01*
X166772493Y-154382743D01*
X167045048Y-154495639D01*
X167330007Y-154571993D01*
X167622494Y-154610500D01*
X167622501Y-154610500D01*
X167917499Y-154610500D01*
X167917506Y-154610500D01*
X168209993Y-154571993D01*
X168494952Y-154495639D01*
X168767507Y-154382743D01*
X169022994Y-154235238D01*
X169257042Y-154055646D01*
X169465646Y-153847042D01*
X169645238Y-153612994D01*
X169792743Y-153357507D01*
X169905639Y-153084952D01*
X169981993Y-152799993D01*
X170020500Y-152507506D01*
X170020500Y-152212494D01*
X169981993Y-151920007D01*
X169905639Y-151635048D01*
X169792743Y-151362493D01*
X169751476Y-151291017D01*
X169645238Y-151107006D01*
X169465647Y-150872959D01*
X169465641Y-150872952D01*
X169257047Y-150664358D01*
X169257040Y-150664352D01*
X169022993Y-150484761D01*
X168767510Y-150337258D01*
X168767500Y-150337254D01*
X168494961Y-150224364D01*
X168494954Y-150224362D01*
X168494952Y-150224361D01*
X168209993Y-150148007D01*
X168161113Y-150141571D01*
X167917513Y-150109500D01*
X167917506Y-150109500D01*
X167622494Y-150109500D01*
X167622486Y-150109500D01*
X167344085Y-150146153D01*
X167330007Y-150148007D01*
X167253847Y-150168414D01*
X167045048Y-150224361D01*
X167045038Y-150224364D01*
X166772499Y-150337254D01*
X166772489Y-150337258D01*
X166517006Y-150484761D01*
X166282959Y-150664352D01*
X166282952Y-150664358D01*
X166074358Y-150872952D01*
X166074352Y-150872959D01*
X165894761Y-151107006D01*
X165747258Y-151362489D01*
X165747254Y-151362499D01*
X165634364Y-151635038D01*
X165634361Y-151635048D01*
X165558007Y-151920007D01*
X165557677Y-151922511D01*
X165519500Y-152212486D01*
X157980499Y-152212486D01*
X157941993Y-151920007D01*
X157865639Y-151635048D01*
X157752743Y-151362493D01*
X157711476Y-151291017D01*
X157605238Y-151107006D01*
X157425647Y-150872959D01*
X157425641Y-150872952D01*
X157217047Y-150664358D01*
X157217040Y-150664352D01*
X156982993Y-150484761D01*
X156727510Y-150337258D01*
X156727500Y-150337254D01*
X156454961Y-150224364D01*
X156454954Y-150224362D01*
X156454952Y-150224361D01*
X156169993Y-150148007D01*
X156121113Y-150141571D01*
X155877513Y-150109500D01*
X155877506Y-150109500D01*
X155582494Y-150109500D01*
X155582486Y-150109500D01*
X155304085Y-150146153D01*
X155290007Y-150148007D01*
X155213847Y-150168414D01*
X155005048Y-150224361D01*
X155005038Y-150224364D01*
X154732499Y-150337254D01*
X154732489Y-150337258D01*
X154477006Y-150484761D01*
X154242959Y-150664352D01*
X154242952Y-150664358D01*
X154034358Y-150872952D01*
X154034352Y-150872959D01*
X153854761Y-151107006D01*
X153707258Y-151362489D01*
X153707254Y-151362499D01*
X153594364Y-151635038D01*
X153594361Y-151635048D01*
X153518007Y-151920007D01*
X153517677Y-151922511D01*
X153479500Y-152212486D01*
X115540617Y-152212486D01*
X115421252Y-152093121D01*
X115421246Y-152093115D01*
X115261504Y-151977058D01*
X115261503Y-151977057D01*
X115261501Y-151977056D01*
X115085561Y-151887409D01*
X115085558Y-151887408D01*
X114897763Y-151826389D01*
X114702736Y-151795500D01*
X114702731Y-151795500D01*
X112997269Y-151795500D01*
X112997264Y-151795500D01*
X112802236Y-151826389D01*
X112614441Y-151887408D01*
X112438495Y-151977058D01*
X112278753Y-152093115D01*
X112139115Y-152232753D01*
X112023058Y-152392495D01*
X111933408Y-152568441D01*
X111872389Y-152756236D01*
X111841500Y-152951263D01*
X108658500Y-152951263D01*
X108627610Y-152756236D01*
X108607270Y-152693637D01*
X108566591Y-152568439D01*
X108476944Y-152392499D01*
X108435582Y-152335568D01*
X108360884Y-152232753D01*
X108221246Y-152093115D01*
X108061504Y-151977058D01*
X108061503Y-151977057D01*
X108061501Y-151977056D01*
X107885561Y-151887409D01*
X107885558Y-151887408D01*
X107697763Y-151826389D01*
X107502736Y-151795500D01*
X107502731Y-151795500D01*
X105797269Y-151795500D01*
X105797264Y-151795500D01*
X105602236Y-151826389D01*
X105414441Y-151887408D01*
X105238495Y-151977058D01*
X105078753Y-152093115D01*
X104939115Y-152232753D01*
X104823058Y-152392495D01*
X104733408Y-152568441D01*
X104672389Y-152756236D01*
X104641500Y-152951263D01*
X82300000Y-152951263D01*
X82300000Y-150149999D01*
X97329083Y-150149999D01*
X97329083Y-150150000D01*
X98042894Y-150150000D01*
X97949901Y-150242993D01*
X97884075Y-150357007D01*
X97850000Y-150484174D01*
X97850000Y-150615826D01*
X97884075Y-150742993D01*
X97949901Y-150857007D01*
X98042894Y-150950000D01*
X97329083Y-150950000D01*
X97350574Y-151001884D01*
X97350579Y-151001894D01*
X97454979Y-151158139D01*
X97454982Y-151158143D01*
X97587856Y-151291017D01*
X97587860Y-151291020D01*
X97744105Y-151395420D01*
X97744118Y-151395427D01*
X97917723Y-151467336D01*
X97917735Y-151467339D01*
X98102034Y-151503999D01*
X98102037Y-151504000D01*
X98550000Y-151504000D01*
X98550000Y-151050000D01*
X99350000Y-151050000D01*
X99350000Y-151504000D01*
X99797963Y-151504000D01*
X99797965Y-151503999D01*
X99982264Y-151467339D01*
X99982276Y-151467336D01*
X100155881Y-151395427D01*
X100155894Y-151395420D01*
X100312139Y-151291020D01*
X100312143Y-151291017D01*
X100445017Y-151158143D01*
X100445020Y-151158139D01*
X100549420Y-151001894D01*
X100549425Y-151001884D01*
X100570917Y-150950000D01*
X99857106Y-150950000D01*
X99950099Y-150857007D01*
X100015925Y-150742993D01*
X100050000Y-150615826D01*
X100050000Y-150484174D01*
X100015925Y-150357007D01*
X99950099Y-150242993D01*
X99857106Y-150150000D01*
X100570917Y-150150000D01*
X100570916Y-150149999D01*
X100549425Y-150098115D01*
X100549420Y-150098105D01*
X100445020Y-149941860D01*
X100445017Y-149941856D01*
X100312143Y-149808982D01*
X100312139Y-149808979D01*
X100155894Y-149704579D01*
X100155881Y-149704572D01*
X99982276Y-149632663D01*
X99982264Y-149632660D01*
X99797964Y-149596000D01*
X99350000Y-149596000D01*
X99350000Y-150050000D01*
X98550000Y-150050000D01*
X98550000Y-149596000D01*
X98102036Y-149596000D01*
X97917735Y-149632660D01*
X97917723Y-149632663D01*
X97744118Y-149704572D01*
X97744105Y-149704579D01*
X97587860Y-149808979D01*
X97587856Y-149808982D01*
X97454982Y-149941856D01*
X97454979Y-149941860D01*
X97350579Y-150098105D01*
X97350574Y-150098115D01*
X97329083Y-150149999D01*
X82300000Y-150149999D01*
X82300000Y-147951263D01*
X111841500Y-147951263D01*
X111841500Y-148148736D01*
X111872389Y-148343763D01*
X111932832Y-148529786D01*
X111933409Y-148531561D01*
X112023056Y-148707501D01*
X112023058Y-148707504D01*
X112139115Y-148867246D01*
X112278753Y-149006884D01*
X112389052Y-149087019D01*
X112438499Y-149122944D01*
X112614439Y-149212591D01*
X112739637Y-149253270D01*
X112802236Y-149273610D01*
X112997264Y-149304500D01*
X112997269Y-149304500D01*
X114702736Y-149304500D01*
X114897763Y-149273610D01*
X114905679Y-149271038D01*
X115085561Y-149212591D01*
X115261501Y-149122944D01*
X115384263Y-149033753D01*
X115421246Y-149006884D01*
X115421248Y-149006881D01*
X115421252Y-149006879D01*
X115560879Y-148867252D01*
X115560881Y-148867248D01*
X115560884Y-148867246D01*
X115655017Y-148737681D01*
X115676944Y-148707501D01*
X115766591Y-148531561D01*
X115827610Y-148343763D01*
X115855383Y-148168414D01*
X115858500Y-148148736D01*
X115858500Y-147951263D01*
X115827610Y-147756236D01*
X115769424Y-147577159D01*
X115766591Y-147568439D01*
X115753992Y-147543713D01*
X159149500Y-147543713D01*
X159149500Y-147756287D01*
X159182754Y-147966243D01*
X159242048Y-148148731D01*
X159248444Y-148168414D01*
X159344951Y-148357820D01*
X159469890Y-148529786D01*
X159502423Y-148562319D01*
X159535908Y-148623642D01*
X159530924Y-148693334D01*
X159502423Y-148737681D01*
X159469894Y-148770209D01*
X159469890Y-148770213D01*
X159344951Y-148942179D01*
X159248444Y-149131585D01*
X159182753Y-149333760D01*
X159149500Y-149543713D01*
X159149500Y-149756286D01*
X159181173Y-149956266D01*
X159182754Y-149966243D01*
X159242460Y-150149999D01*
X159248444Y-150168414D01*
X159344951Y-150357820D01*
X159469890Y-150529786D01*
X159620213Y-150680109D01*
X159792179Y-150805048D01*
X159792181Y-150805049D01*
X159792184Y-150805051D01*
X159981588Y-150901557D01*
X160183757Y-150967246D01*
X160393713Y-151000500D01*
X160393714Y-151000500D01*
X160606286Y-151000500D01*
X160606287Y-151000500D01*
X160816243Y-150967246D01*
X161018412Y-150901557D01*
X161207816Y-150805051D01*
X161229789Y-150789086D01*
X161379786Y-150680109D01*
X161379788Y-150680106D01*
X161379792Y-150680104D01*
X161440576Y-150619320D01*
X162596363Y-150619320D01*
X162693725Y-150659649D01*
X162693733Y-150659651D01*
X162896579Y-150699999D01*
X162896583Y-150700000D01*
X163103417Y-150700000D01*
X163103420Y-150699999D01*
X163306266Y-150659651D01*
X163306270Y-150659650D01*
X163403635Y-150619320D01*
X163000001Y-150215686D01*
X163000000Y-150215686D01*
X162596363Y-150619320D01*
X161440576Y-150619320D01*
X161530104Y-150529792D01*
X161655051Y-150357816D01*
X161751557Y-150168412D01*
X161791292Y-150046119D01*
X161830727Y-149988447D01*
X161895085Y-149961248D01*
X161963932Y-149973162D01*
X162015408Y-150020406D01*
X162023782Y-150036987D01*
X162030678Y-150053635D01*
X162556517Y-149527795D01*
X162540000Y-149589440D01*
X162540000Y-149710560D01*
X162571349Y-149827553D01*
X162631909Y-149932446D01*
X162717554Y-150018091D01*
X162822447Y-150078651D01*
X162939440Y-150110000D01*
X163060560Y-150110000D01*
X163177553Y-150078651D01*
X163282446Y-150018091D01*
X163368091Y-149932446D01*
X163428651Y-149827553D01*
X163460000Y-149710560D01*
X163460000Y-149589440D01*
X163443482Y-149527797D01*
X163969320Y-150053635D01*
X164009650Y-149956270D01*
X164009651Y-149956266D01*
X164021413Y-149897135D01*
X187394500Y-149897135D01*
X187394500Y-151992870D01*
X187394501Y-151992876D01*
X187400908Y-152052483D01*
X187451202Y-152187328D01*
X187451206Y-152187335D01*
X187537452Y-152302544D01*
X187537455Y-152302547D01*
X187652664Y-152388793D01*
X187652671Y-152388797D01*
X187787517Y-152439091D01*
X187787516Y-152439091D01*
X187794444Y-152439835D01*
X187847127Y-152445500D01*
X189942872Y-152445499D01*
X190002483Y-152439091D01*
X190137331Y-152388796D01*
X190252546Y-152302546D01*
X190338796Y-152187331D01*
X190389091Y-152052483D01*
X190391709Y-152028136D01*
X190877548Y-152028136D01*
X190934359Y-152057084D01*
X190934362Y-152057085D01*
X191113997Y-152115452D01*
X191300553Y-152145000D01*
X191489447Y-152145000D01*
X191676001Y-152115452D01*
X191855637Y-152057084D01*
X191912451Y-152028136D01*
X191395001Y-151510686D01*
X191395000Y-151510686D01*
X190877548Y-152028136D01*
X190391709Y-152028136D01*
X190395500Y-151992873D01*
X190395499Y-151430173D01*
X190415183Y-151363137D01*
X190431818Y-151342495D01*
X190829314Y-150945000D01*
X190763488Y-150879174D01*
X190895000Y-150879174D01*
X190895000Y-151010826D01*
X190929075Y-151137993D01*
X190994901Y-151252007D01*
X191087993Y-151345099D01*
X191202007Y-151410925D01*
X191329174Y-151445000D01*
X191460826Y-151445000D01*
X191587993Y-151410925D01*
X191702007Y-151345099D01*
X191795099Y-151252007D01*
X191860925Y-151137993D01*
X191895000Y-151010826D01*
X191895000Y-150944999D01*
X191960686Y-150944999D01*
X191960686Y-150945001D01*
X192467860Y-151452175D01*
X192498108Y-151501532D01*
X192501083Y-151510686D01*
X192504432Y-151520992D01*
X192611657Y-151731433D01*
X192750483Y-151922510D01*
X192917490Y-152089517D01*
X193108567Y-152228343D01*
X193207991Y-152279002D01*
X193319003Y-152335566D01*
X193319005Y-152335566D01*
X193319008Y-152335568D01*
X193439412Y-152374689D01*
X193543631Y-152408553D01*
X193776903Y-152445500D01*
X193776908Y-152445500D01*
X194013097Y-152445500D01*
X194246368Y-152408553D01*
X194470992Y-152335568D01*
X194681433Y-152228343D01*
X194872510Y-152089517D01*
X195039517Y-151922510D01*
X195178343Y-151731433D01*
X195285568Y-151520992D01*
X195358553Y-151296368D01*
X195380446Y-151158143D01*
X195395500Y-151063097D01*
X195395500Y-150826902D01*
X195358553Y-150593631D01*
X195307928Y-150437824D01*
X195285568Y-150369008D01*
X195285566Y-150369005D01*
X195285566Y-150369003D01*
X195211867Y-150224361D01*
X195178343Y-150158567D01*
X195039517Y-149967490D01*
X194872510Y-149800483D01*
X194681433Y-149661657D01*
X194658553Y-149649999D01*
X194470996Y-149554433D01*
X194246368Y-149481446D01*
X194013097Y-149444500D01*
X194013092Y-149444500D01*
X193776908Y-149444500D01*
X193776903Y-149444500D01*
X193543631Y-149481446D01*
X193319003Y-149554433D01*
X193108566Y-149661657D01*
X193049490Y-149704579D01*
X192917490Y-149800483D01*
X192917488Y-149800485D01*
X192917487Y-149800485D01*
X192750485Y-149967487D01*
X192750485Y-149967488D01*
X192750483Y-149967490D01*
X192735257Y-149988447D01*
X192611657Y-150158566D01*
X192504429Y-150369014D01*
X192498108Y-150388467D01*
X192467860Y-150437824D01*
X191960686Y-150944999D01*
X191895000Y-150944999D01*
X191895000Y-150879174D01*
X191860925Y-150752007D01*
X191795099Y-150637993D01*
X191702007Y-150544901D01*
X191587993Y-150479075D01*
X191460826Y-150445000D01*
X191329174Y-150445000D01*
X191202007Y-150479075D01*
X191087993Y-150544901D01*
X190994901Y-150637993D01*
X190929075Y-150752007D01*
X190895000Y-150879174D01*
X190763488Y-150879174D01*
X190431818Y-150547504D01*
X190398333Y-150486181D01*
X190395499Y-150459823D01*
X190395499Y-149897129D01*
X190395498Y-149897123D01*
X190395497Y-149897116D01*
X190391708Y-149861862D01*
X190877547Y-149861862D01*
X191395000Y-150379314D01*
X191395001Y-150379314D01*
X191912451Y-149861862D01*
X191912451Y-149861861D01*
X191855639Y-149832915D01*
X191676002Y-149774547D01*
X191489447Y-149745000D01*
X191300553Y-149745000D01*
X191113997Y-149774547D01*
X190934364Y-149832914D01*
X190934362Y-149832915D01*
X190877547Y-149861862D01*
X190391708Y-149861862D01*
X190389091Y-149837517D01*
X190387374Y-149832914D01*
X190338797Y-149702671D01*
X190338793Y-149702664D01*
X190252547Y-149587455D01*
X190252544Y-149587452D01*
X190137335Y-149501206D01*
X190137328Y-149501202D01*
X190002482Y-149450908D01*
X190002483Y-149450908D01*
X189942883Y-149444501D01*
X189942881Y-149444500D01*
X189942873Y-149444500D01*
X189942864Y-149444500D01*
X187847129Y-149444500D01*
X187847123Y-149444501D01*
X187787516Y-149450908D01*
X187652671Y-149501202D01*
X187652664Y-149501206D01*
X187537455Y-149587452D01*
X187537452Y-149587455D01*
X187451206Y-149702664D01*
X187451202Y-149702671D01*
X187400908Y-149837517D01*
X187394501Y-149897116D01*
X187394501Y-149897123D01*
X187394500Y-149897135D01*
X164021413Y-149897135D01*
X164026882Y-149869644D01*
X164026887Y-149869616D01*
X164050000Y-149753414D01*
X164050000Y-149546583D01*
X164049999Y-149546579D01*
X164009651Y-149343733D01*
X164009649Y-149343725D01*
X163930499Y-149152641D01*
X163930494Y-149152631D01*
X163895615Y-149100431D01*
X163874737Y-149033753D01*
X163893222Y-148966373D01*
X163933619Y-148926002D01*
X164068656Y-148842712D01*
X164192712Y-148718656D01*
X164284814Y-148569334D01*
X164339999Y-148402797D01*
X164350500Y-148300009D01*
X164350499Y-146999992D01*
X164339999Y-146897203D01*
X164284814Y-146730666D01*
X164192712Y-146581344D01*
X164068656Y-146457288D01*
X163919334Y-146365186D01*
X163752797Y-146310001D01*
X163752795Y-146310000D01*
X163650010Y-146299500D01*
X162349998Y-146299500D01*
X162349981Y-146299501D01*
X162247203Y-146310000D01*
X162247200Y-146310001D01*
X162080668Y-146365185D01*
X162080663Y-146365187D01*
X161931342Y-146457289D01*
X161807289Y-146581342D01*
X161711821Y-146736121D01*
X161659873Y-146782845D01*
X161590910Y-146794068D01*
X161526828Y-146766224D01*
X161518601Y-146758705D01*
X161379786Y-146619890D01*
X161207820Y-146494951D01*
X161018414Y-146398444D01*
X161018413Y-146398443D01*
X161018412Y-146398443D01*
X160816243Y-146332754D01*
X160816241Y-146332753D01*
X160816240Y-146332753D01*
X160654957Y-146307208D01*
X160606287Y-146299500D01*
X160393713Y-146299500D01*
X160345042Y-146307208D01*
X160183760Y-146332753D01*
X159981585Y-146398444D01*
X159792179Y-146494951D01*
X159620213Y-146619890D01*
X159469890Y-146770213D01*
X159344951Y-146942179D01*
X159248444Y-147131585D01*
X159182753Y-147333760D01*
X159173450Y-147392499D01*
X159149500Y-147543713D01*
X115753992Y-147543713D01*
X115676944Y-147392499D01*
X115634266Y-147333757D01*
X115560884Y-147232753D01*
X115421246Y-147093115D01*
X115261504Y-146977058D01*
X115261503Y-146977057D01*
X115261501Y-146977056D01*
X115085561Y-146887409D01*
X115085558Y-146887408D01*
X114897763Y-146826389D01*
X114702736Y-146795500D01*
X114702731Y-146795500D01*
X112997269Y-146795500D01*
X112997264Y-146795500D01*
X112802236Y-146826389D01*
X112614441Y-146887408D01*
X112438495Y-146977058D01*
X112278753Y-147093115D01*
X112139115Y-147232753D01*
X112023058Y-147392495D01*
X111933408Y-147568441D01*
X111872389Y-147756236D01*
X111841500Y-147951263D01*
X82300000Y-147951263D01*
X82300000Y-141825297D01*
X184595000Y-141825297D01*
X184595000Y-143045000D01*
X185045000Y-143045000D01*
X185045000Y-143845000D01*
X184595000Y-143845000D01*
X184595000Y-145064702D01*
X184606602Y-145123033D01*
X184606603Y-145123034D01*
X184650808Y-145189191D01*
X184716965Y-145233396D01*
X184716966Y-145233397D01*
X184775297Y-145244999D01*
X184775301Y-145245000D01*
X185395000Y-145245000D01*
X185395000Y-144729745D01*
X185439742Y-144759641D01*
X185576233Y-144816178D01*
X185721131Y-144845000D01*
X185868869Y-144845000D01*
X186013767Y-144816178D01*
X186150258Y-144759641D01*
X186195000Y-144729745D01*
X186195000Y-145245000D01*
X186814699Y-145245000D01*
X186814702Y-145244999D01*
X186873033Y-145233397D01*
X186873034Y-145233396D01*
X186939191Y-145189191D01*
X186983396Y-145123034D01*
X186983397Y-145123033D01*
X186994999Y-145064702D01*
X186995000Y-145064699D01*
X186995000Y-143845000D01*
X186545000Y-143845000D01*
X186545000Y-143045000D01*
X186995000Y-143045000D01*
X186995000Y-141825301D01*
X186994999Y-141825297D01*
X195795000Y-141825297D01*
X195795000Y-143045000D01*
X196245000Y-143045000D01*
X196245000Y-143845000D01*
X195795000Y-143845000D01*
X195795000Y-145064702D01*
X195806602Y-145123033D01*
X195806603Y-145123034D01*
X195850808Y-145189191D01*
X195916965Y-145233396D01*
X195916966Y-145233397D01*
X195975297Y-145244999D01*
X195975301Y-145245000D01*
X196595000Y-145245000D01*
X196595000Y-144729745D01*
X196639742Y-144759641D01*
X196776233Y-144816178D01*
X196921131Y-144845000D01*
X197068869Y-144845000D01*
X197213767Y-144816178D01*
X197350258Y-144759641D01*
X197395000Y-144729745D01*
X197395000Y-145245000D01*
X198014699Y-145245000D01*
X198014702Y-145244999D01*
X198073033Y-145233397D01*
X198073034Y-145233396D01*
X198139191Y-145189191D01*
X198183396Y-145123034D01*
X198183397Y-145123033D01*
X198194999Y-145064702D01*
X198195000Y-145064699D01*
X198195000Y-143845000D01*
X197745000Y-143845000D01*
X197745000Y-143045000D01*
X198195000Y-143045000D01*
X198195000Y-141825301D01*
X198194999Y-141825297D01*
X198183397Y-141766966D01*
X198183396Y-141766965D01*
X198139191Y-141700808D01*
X198073034Y-141656603D01*
X198073033Y-141656602D01*
X198014702Y-141645000D01*
X197395000Y-141645000D01*
X197395000Y-142160254D01*
X197350258Y-142130359D01*
X197213767Y-142073822D01*
X197068869Y-142045000D01*
X196921131Y-142045000D01*
X196776233Y-142073822D01*
X196639742Y-142130359D01*
X196595000Y-142160254D01*
X196595000Y-141645000D01*
X195975297Y-141645000D01*
X195916966Y-141656602D01*
X195916965Y-141656603D01*
X195850808Y-141700808D01*
X195806603Y-141766965D01*
X195806602Y-141766966D01*
X195795000Y-141825297D01*
X186994999Y-141825297D01*
X186983397Y-141766966D01*
X186983396Y-141766965D01*
X186939191Y-141700808D01*
X186873034Y-141656603D01*
X186873033Y-141656602D01*
X186814702Y-141645000D01*
X186195000Y-141645000D01*
X186195000Y-142160254D01*
X186150258Y-142130359D01*
X186013767Y-142073822D01*
X185868869Y-142045000D01*
X185721131Y-142045000D01*
X185576233Y-142073822D01*
X185439742Y-142130359D01*
X185395000Y-142160254D01*
X185395000Y-141645000D01*
X184775297Y-141645000D01*
X184716966Y-141656602D01*
X184716965Y-141656603D01*
X184650808Y-141700808D01*
X184606603Y-141766965D01*
X184606602Y-141766966D01*
X184595000Y-141825297D01*
X82300000Y-141825297D01*
X82300000Y-139417648D01*
X136749500Y-139417648D01*
X136749500Y-140422351D01*
X136781522Y-140624534D01*
X136844781Y-140819223D01*
X136937715Y-141001613D01*
X137058028Y-141167213D01*
X137202786Y-141311971D01*
X137357749Y-141424556D01*
X137368390Y-141432287D01*
X137484607Y-141491503D01*
X137550776Y-141525218D01*
X137550778Y-141525218D01*
X137550781Y-141525220D01*
X137655137Y-141559127D01*
X137745465Y-141588477D01*
X137846557Y-141604488D01*
X137947648Y-141620500D01*
X137947649Y-141620500D01*
X138152351Y-141620500D01*
X138152352Y-141620500D01*
X138354534Y-141588477D01*
X138549219Y-141525220D01*
X138731610Y-141432287D01*
X138824590Y-141364732D01*
X138897213Y-141311971D01*
X138897215Y-141311968D01*
X138897219Y-141311966D01*
X139041966Y-141167219D01*
X139041968Y-141167215D01*
X139041971Y-141167213D01*
X139162284Y-141001614D01*
X139162285Y-141001613D01*
X139162287Y-141001610D01*
X139209516Y-140908917D01*
X139257489Y-140858123D01*
X139325310Y-140841328D01*
X139391445Y-140863865D01*
X139430485Y-140908919D01*
X139477715Y-141001614D01*
X139598028Y-141167213D01*
X139742786Y-141311971D01*
X139897749Y-141424556D01*
X139908390Y-141432287D01*
X140024607Y-141491503D01*
X140090776Y-141525218D01*
X140090778Y-141525218D01*
X140090781Y-141525220D01*
X140195137Y-141559127D01*
X140285465Y-141588477D01*
X140386557Y-141604488D01*
X140487648Y-141620500D01*
X140487649Y-141620500D01*
X140692351Y-141620500D01*
X140692352Y-141620500D01*
X140894534Y-141588477D01*
X141089219Y-141525220D01*
X141271610Y-141432287D01*
X141364590Y-141364732D01*
X141437213Y-141311971D01*
X141437215Y-141311968D01*
X141437219Y-141311966D01*
X141581966Y-141167219D01*
X141581968Y-141167215D01*
X141581971Y-141167213D01*
X141702284Y-141001614D01*
X141702285Y-141001613D01*
X141702287Y-141001610D01*
X141749516Y-140908917D01*
X141797489Y-140858123D01*
X141865310Y-140841328D01*
X141931445Y-140863865D01*
X141970485Y-140908919D01*
X142017715Y-141001614D01*
X142138028Y-141167213D01*
X142282786Y-141311971D01*
X142437749Y-141424556D01*
X142448390Y-141432287D01*
X142564607Y-141491503D01*
X142630776Y-141525218D01*
X142630778Y-141525218D01*
X142630781Y-141525220D01*
X142735137Y-141559127D01*
X142825465Y-141588477D01*
X142926557Y-141604488D01*
X143027648Y-141620500D01*
X143027649Y-141620500D01*
X143232351Y-141620500D01*
X143232352Y-141620500D01*
X143434534Y-141588477D01*
X143629219Y-141525220D01*
X143811610Y-141432287D01*
X143904590Y-141364732D01*
X143977213Y-141311971D01*
X143977215Y-141311968D01*
X143977219Y-141311966D01*
X144121966Y-141167219D01*
X144121968Y-141167215D01*
X144121971Y-141167213D01*
X144242284Y-141001614D01*
X144242285Y-141001613D01*
X144242287Y-141001610D01*
X144289516Y-140908917D01*
X144337489Y-140858123D01*
X144405310Y-140841328D01*
X144471445Y-140863865D01*
X144510485Y-140908919D01*
X144557715Y-141001614D01*
X144678028Y-141167213D01*
X144822786Y-141311971D01*
X144977749Y-141424556D01*
X144988390Y-141432287D01*
X145104607Y-141491503D01*
X145170776Y-141525218D01*
X145170778Y-141525218D01*
X145170781Y-141525220D01*
X145275137Y-141559127D01*
X145365465Y-141588477D01*
X145466557Y-141604488D01*
X145567648Y-141620500D01*
X145567649Y-141620500D01*
X145772351Y-141620500D01*
X145772352Y-141620500D01*
X145974534Y-141588477D01*
X146169219Y-141525220D01*
X146351610Y-141432287D01*
X146444590Y-141364732D01*
X146517213Y-141311971D01*
X146517215Y-141311968D01*
X146517219Y-141311966D01*
X146661966Y-141167219D01*
X146661968Y-141167215D01*
X146661971Y-141167213D01*
X146714732Y-141094590D01*
X146782287Y-141001610D01*
X146875220Y-140819219D01*
X146938477Y-140624534D01*
X146970500Y-140422352D01*
X146970500Y-139417648D01*
X146938477Y-139215466D01*
X146875220Y-139020781D01*
X146875218Y-139020778D01*
X146875218Y-139020776D01*
X146829515Y-138931080D01*
X146782287Y-138838390D01*
X146774556Y-138827749D01*
X146661971Y-138672786D01*
X146517213Y-138528028D01*
X146351613Y-138407715D01*
X146351612Y-138407714D01*
X146351610Y-138407713D01*
X146294653Y-138378691D01*
X146169223Y-138314781D01*
X145974534Y-138251522D01*
X145799995Y-138223878D01*
X145772352Y-138219500D01*
X145567648Y-138219500D01*
X145543329Y-138223351D01*
X145365465Y-138251522D01*
X145170776Y-138314781D01*
X144988386Y-138407715D01*
X144822786Y-138528028D01*
X144678028Y-138672786D01*
X144557715Y-138838386D01*
X144510485Y-138931080D01*
X144462510Y-138981876D01*
X144394689Y-138998671D01*
X144328554Y-138976134D01*
X144289515Y-138931080D01*
X144288883Y-138929840D01*
X144242287Y-138838390D01*
X144234556Y-138827749D01*
X144121971Y-138672786D01*
X143977213Y-138528028D01*
X143811613Y-138407715D01*
X143811612Y-138407714D01*
X143811610Y-138407713D01*
X143754653Y-138378691D01*
X143629223Y-138314781D01*
X143434534Y-138251522D01*
X143259995Y-138223878D01*
X143232352Y-138219500D01*
X143027648Y-138219500D01*
X143003329Y-138223351D01*
X142825465Y-138251522D01*
X142630776Y-138314781D01*
X142448386Y-138407715D01*
X142282786Y-138528028D01*
X142138028Y-138672786D01*
X142017715Y-138838386D01*
X141970485Y-138931080D01*
X141922510Y-138981876D01*
X141854689Y-138998671D01*
X141788554Y-138976134D01*
X141749515Y-138931080D01*
X141748883Y-138929840D01*
X141702287Y-138838390D01*
X141694556Y-138827749D01*
X141581971Y-138672786D01*
X141437213Y-138528028D01*
X141271613Y-138407715D01*
X141271612Y-138407714D01*
X141271610Y-138407713D01*
X141214653Y-138378691D01*
X141089223Y-138314781D01*
X140894534Y-138251522D01*
X140719995Y-138223878D01*
X140692352Y-138219500D01*
X140487648Y-138219500D01*
X140463329Y-138223351D01*
X140285465Y-138251522D01*
X140090776Y-138314781D01*
X139908386Y-138407715D01*
X139742786Y-138528028D01*
X139598028Y-138672786D01*
X139477715Y-138838386D01*
X139430485Y-138931080D01*
X139382510Y-138981876D01*
X139314689Y-138998671D01*
X139248554Y-138976134D01*
X139209515Y-138931080D01*
X139208883Y-138929840D01*
X139162287Y-138838390D01*
X139154556Y-138827749D01*
X139041971Y-138672786D01*
X138897213Y-138528028D01*
X138731613Y-138407715D01*
X138731612Y-138407714D01*
X138731610Y-138407713D01*
X138674653Y-138378691D01*
X138549223Y-138314781D01*
X138354534Y-138251522D01*
X138179995Y-138223878D01*
X138152352Y-138219500D01*
X137947648Y-138219500D01*
X137923329Y-138223351D01*
X137745465Y-138251522D01*
X137550776Y-138314781D01*
X137368386Y-138407715D01*
X137202786Y-138528028D01*
X137058028Y-138672786D01*
X136937715Y-138838386D01*
X136844781Y-139020776D01*
X136781522Y-139215465D01*
X136749500Y-139417648D01*
X82300000Y-139417648D01*
X82300000Y-137528136D01*
X188377548Y-137528136D01*
X188434359Y-137557084D01*
X188434362Y-137557085D01*
X188613997Y-137615452D01*
X188800553Y-137645000D01*
X188989447Y-137645000D01*
X189176001Y-137615452D01*
X189355637Y-137557084D01*
X189412451Y-137528136D01*
X188895001Y-137010686D01*
X188895000Y-137010686D01*
X188377548Y-137528136D01*
X82300000Y-137528136D01*
X82300000Y-136350552D01*
X187695000Y-136350552D01*
X187695000Y-136539447D01*
X187724547Y-136726002D01*
X187782915Y-136905639D01*
X187811861Y-136962451D01*
X187811862Y-136962451D01*
X188329314Y-136445000D01*
X188329314Y-136444999D01*
X188263489Y-136379174D01*
X188395000Y-136379174D01*
X188395000Y-136510826D01*
X188429075Y-136637993D01*
X188494901Y-136752007D01*
X188587993Y-136845099D01*
X188702007Y-136910925D01*
X188829174Y-136945000D01*
X188960826Y-136945000D01*
X189087993Y-136910925D01*
X189202007Y-136845099D01*
X189295099Y-136752007D01*
X189360925Y-136637993D01*
X189395000Y-136510826D01*
X189395000Y-136444999D01*
X189460686Y-136444999D01*
X189460686Y-136445000D01*
X189978136Y-136962451D01*
X190007084Y-136905637D01*
X190065452Y-136726001D01*
X190095000Y-136539447D01*
X190095000Y-136350556D01*
X190093555Y-136341432D01*
X190093555Y-136341429D01*
X190091254Y-136326902D01*
X192394500Y-136326902D01*
X192394500Y-136563097D01*
X192431446Y-136796368D01*
X192504433Y-137020996D01*
X192611657Y-137231433D01*
X192750483Y-137422510D01*
X192917490Y-137589517D01*
X193108567Y-137728343D01*
X193207991Y-137779002D01*
X193319003Y-137835566D01*
X193319005Y-137835566D01*
X193319008Y-137835568D01*
X193439412Y-137874689D01*
X193543631Y-137908553D01*
X193776903Y-137945500D01*
X193776908Y-137945500D01*
X194013097Y-137945500D01*
X194246368Y-137908553D01*
X194470992Y-137835568D01*
X194681433Y-137728343D01*
X194872510Y-137589517D01*
X195039517Y-137422510D01*
X195178343Y-137231433D01*
X195285568Y-137020992D01*
X195358553Y-136796368D01*
X195383637Y-136637993D01*
X195395500Y-136563097D01*
X195395500Y-136326902D01*
X195358553Y-136093631D01*
X195304589Y-135927548D01*
X195285568Y-135869008D01*
X195285566Y-135869005D01*
X195285566Y-135869003D01*
X195229002Y-135757991D01*
X195178343Y-135658567D01*
X195039517Y-135467490D01*
X194872510Y-135300483D01*
X194681433Y-135161657D01*
X194470996Y-135054433D01*
X194246368Y-134981446D01*
X194013097Y-134944500D01*
X194013092Y-134944500D01*
X193776908Y-134944500D01*
X193776903Y-134944500D01*
X193543631Y-134981446D01*
X193319003Y-135054433D01*
X193108566Y-135161657D01*
X192999550Y-135240862D01*
X192917490Y-135300483D01*
X192917488Y-135300485D01*
X192917487Y-135300485D01*
X192750485Y-135467487D01*
X192750485Y-135467488D01*
X192750483Y-135467490D01*
X192690862Y-135549550D01*
X192611657Y-135658566D01*
X192504433Y-135869003D01*
X192431446Y-136093631D01*
X192394500Y-136326902D01*
X190091254Y-136326902D01*
X190065452Y-136163998D01*
X190007085Y-135984362D01*
X190007084Y-135984359D01*
X189978136Y-135927548D01*
X189460686Y-136444999D01*
X189395000Y-136444999D01*
X189395000Y-136379174D01*
X189360925Y-136252007D01*
X189295099Y-136137993D01*
X189202007Y-136044901D01*
X189087993Y-135979075D01*
X188960826Y-135945000D01*
X188829174Y-135945000D01*
X188702007Y-135979075D01*
X188587993Y-136044901D01*
X188494901Y-136137993D01*
X188429075Y-136252007D01*
X188395000Y-136379174D01*
X188263489Y-136379174D01*
X187811862Y-135927547D01*
X187782915Y-135984362D01*
X187782914Y-135984364D01*
X187724547Y-136163997D01*
X187695000Y-136350552D01*
X82300000Y-136350552D01*
X82300000Y-134451263D01*
X104641500Y-134451263D01*
X104641500Y-134648736D01*
X104672389Y-134843763D01*
X104717126Y-134981447D01*
X104733409Y-135031561D01*
X104823056Y-135207501D01*
X104823058Y-135207504D01*
X104939115Y-135367246D01*
X105078753Y-135506884D01*
X105228234Y-135615486D01*
X105238499Y-135622944D01*
X105414439Y-135712591D01*
X105539637Y-135753270D01*
X105602236Y-135773610D01*
X105797264Y-135804500D01*
X105797269Y-135804500D01*
X107502736Y-135804500D01*
X107697763Y-135773610D01*
X107885561Y-135712591D01*
X108061501Y-135622944D01*
X108151192Y-135557779D01*
X108221246Y-135506884D01*
X108221248Y-135506881D01*
X108221252Y-135506879D01*
X108360879Y-135367252D01*
X108360881Y-135367248D01*
X108360884Y-135367246D01*
X108411779Y-135297192D01*
X108476944Y-135207501D01*
X108566591Y-135031561D01*
X108627610Y-134843763D01*
X108658500Y-134648736D01*
X108658500Y-134451263D01*
X111841500Y-134451263D01*
X111841500Y-134648736D01*
X111872389Y-134843763D01*
X111917126Y-134981447D01*
X111933409Y-135031561D01*
X112023056Y-135207501D01*
X112023058Y-135207504D01*
X112139115Y-135367246D01*
X112278753Y-135506884D01*
X112428234Y-135615486D01*
X112438499Y-135622944D01*
X112614439Y-135712591D01*
X112739637Y-135753270D01*
X112802236Y-135773610D01*
X112997264Y-135804500D01*
X112997269Y-135804500D01*
X114702736Y-135804500D01*
X114897763Y-135773610D01*
X115085561Y-135712591D01*
X115261501Y-135622944D01*
X115351192Y-135557779D01*
X115421246Y-135506884D01*
X115421248Y-135506881D01*
X115421252Y-135506879D01*
X115560879Y-135367252D01*
X115564795Y-135361862D01*
X188377547Y-135361862D01*
X188895000Y-135879314D01*
X188895001Y-135879314D01*
X189412451Y-135361862D01*
X189412451Y-135361861D01*
X189355639Y-135332915D01*
X189176002Y-135274547D01*
X188989447Y-135245000D01*
X188800553Y-135245000D01*
X188613997Y-135274547D01*
X188434364Y-135332914D01*
X188434362Y-135332915D01*
X188377547Y-135361862D01*
X115564795Y-135361862D01*
X115564796Y-135361861D01*
X115586505Y-135331982D01*
X115676941Y-135207505D01*
X115676942Y-135207504D01*
X115676944Y-135207501D01*
X115766591Y-135031561D01*
X115827610Y-134843763D01*
X115858500Y-134648736D01*
X115858500Y-134451263D01*
X115827610Y-134256236D01*
X115807270Y-134193637D01*
X115766591Y-134068439D01*
X115676944Y-133892499D01*
X115640772Y-133842712D01*
X115560884Y-133732753D01*
X115421246Y-133593115D01*
X115261504Y-133477058D01*
X115261503Y-133477057D01*
X115261501Y-133477056D01*
X115085561Y-133387409D01*
X115067723Y-133381613D01*
X114897763Y-133326389D01*
X114702736Y-133295500D01*
X114702731Y-133295500D01*
X112997269Y-133295500D01*
X112997264Y-133295500D01*
X112802236Y-133326389D01*
X112614441Y-133387408D01*
X112438495Y-133477058D01*
X112278753Y-133593115D01*
X112139115Y-133732753D01*
X112023058Y-133892495D01*
X111933408Y-134068441D01*
X111872389Y-134256236D01*
X111841500Y-134451263D01*
X108658500Y-134451263D01*
X108627610Y-134256236D01*
X108607270Y-134193637D01*
X108566591Y-134068439D01*
X108476944Y-133892499D01*
X108440772Y-133842712D01*
X108360884Y-133732753D01*
X108221246Y-133593115D01*
X108061504Y-133477058D01*
X108061503Y-133477057D01*
X108061501Y-133477056D01*
X107885561Y-133387409D01*
X107867723Y-133381613D01*
X107697763Y-133326389D01*
X107502736Y-133295500D01*
X107502731Y-133295500D01*
X105797269Y-133295500D01*
X105797264Y-133295500D01*
X105602236Y-133326389D01*
X105414441Y-133387408D01*
X105238495Y-133477058D01*
X105078753Y-133593115D01*
X104939115Y-133732753D01*
X104823058Y-133892495D01*
X104733408Y-134068441D01*
X104672389Y-134256236D01*
X104641500Y-134451263D01*
X82300000Y-134451263D01*
X82300000Y-131649999D01*
X97329083Y-131649999D01*
X97329083Y-131650000D01*
X98042894Y-131650000D01*
X97949901Y-131742993D01*
X97884075Y-131857007D01*
X97850000Y-131984174D01*
X97850000Y-132115826D01*
X97884075Y-132242993D01*
X97949901Y-132357007D01*
X98042894Y-132450000D01*
X97329083Y-132450000D01*
X97350574Y-132501884D01*
X97350579Y-132501894D01*
X97454979Y-132658139D01*
X97454982Y-132658143D01*
X97587856Y-132791017D01*
X97587860Y-132791020D01*
X97744105Y-132895420D01*
X97744118Y-132895427D01*
X97917723Y-132967336D01*
X97917735Y-132967339D01*
X98102034Y-133003999D01*
X98102037Y-133004000D01*
X98550000Y-133004000D01*
X98550000Y-132550000D01*
X99350000Y-132550000D01*
X99350000Y-133004000D01*
X99797963Y-133004000D01*
X99797965Y-133003999D01*
X99982264Y-132967339D01*
X99982276Y-132967336D01*
X100155881Y-132895427D01*
X100155894Y-132895420D01*
X100312139Y-132791020D01*
X100312143Y-132791017D01*
X100445017Y-132658143D01*
X100445020Y-132658139D01*
X100549420Y-132501894D01*
X100549425Y-132501884D01*
X100570917Y-132450000D01*
X99857106Y-132450000D01*
X99950099Y-132357007D01*
X100015925Y-132242993D01*
X100050000Y-132115826D01*
X100050000Y-131984174D01*
X100015925Y-131857007D01*
X99950099Y-131742993D01*
X99857106Y-131650000D01*
X100570917Y-131650000D01*
X100570916Y-131649999D01*
X100549425Y-131598115D01*
X100549420Y-131598105D01*
X100445020Y-131441860D01*
X100445017Y-131441856D01*
X100312143Y-131308982D01*
X100312139Y-131308979D01*
X100155894Y-131204579D01*
X100155881Y-131204572D01*
X99982276Y-131132663D01*
X99982264Y-131132660D01*
X99797964Y-131096000D01*
X99350000Y-131096000D01*
X99350000Y-131550000D01*
X98550000Y-131550000D01*
X98550000Y-131096000D01*
X98102036Y-131096000D01*
X97917735Y-131132660D01*
X97917723Y-131132663D01*
X97744118Y-131204572D01*
X97744105Y-131204579D01*
X97587860Y-131308979D01*
X97587856Y-131308982D01*
X97454982Y-131441856D01*
X97454979Y-131441860D01*
X97350579Y-131598105D01*
X97350574Y-131598115D01*
X97329083Y-131649999D01*
X82300000Y-131649999D01*
X82300000Y-130957648D01*
X120039500Y-130957648D01*
X120039500Y-131962351D01*
X120071522Y-132164534D01*
X120134781Y-132359223D01*
X120227715Y-132541613D01*
X120348028Y-132707213D01*
X120492786Y-132851971D01*
X120647749Y-132964556D01*
X120658390Y-132972287D01*
X120774607Y-133031503D01*
X120840776Y-133065218D01*
X120840778Y-133065218D01*
X120840781Y-133065220D01*
X120945137Y-133099127D01*
X121035465Y-133128477D01*
X121136557Y-133144488D01*
X121237648Y-133160500D01*
X121237649Y-133160500D01*
X121442351Y-133160500D01*
X121442352Y-133160500D01*
X121644534Y-133128477D01*
X121839219Y-133065220D01*
X122021610Y-132972287D01*
X122127409Y-132895420D01*
X122187213Y-132851971D01*
X122187215Y-132851968D01*
X122187219Y-132851966D01*
X122331966Y-132707219D01*
X122331968Y-132707215D01*
X122331971Y-132707213D01*
X122452284Y-132541614D01*
X122452285Y-132541613D01*
X122452287Y-132541610D01*
X122499516Y-132448917D01*
X122547489Y-132398123D01*
X122615310Y-132381328D01*
X122681445Y-132403865D01*
X122720483Y-132448917D01*
X122747472Y-132501884D01*
X122767715Y-132541614D01*
X122888028Y-132707213D01*
X123032786Y-132851971D01*
X123187749Y-132964556D01*
X123198390Y-132972287D01*
X123314607Y-133031503D01*
X123380776Y-133065218D01*
X123380778Y-133065218D01*
X123380781Y-133065220D01*
X123485137Y-133099127D01*
X123575465Y-133128477D01*
X123676557Y-133144488D01*
X123777648Y-133160500D01*
X123777649Y-133160500D01*
X123982351Y-133160500D01*
X123982352Y-133160500D01*
X124184534Y-133128477D01*
X124379219Y-133065220D01*
X124561610Y-132972287D01*
X124667409Y-132895420D01*
X124727213Y-132851971D01*
X124727215Y-132851968D01*
X124727219Y-132851966D01*
X124871966Y-132707219D01*
X124871968Y-132707215D01*
X124871971Y-132707213D01*
X124992284Y-132541614D01*
X124992285Y-132541613D01*
X124992287Y-132541610D01*
X125039516Y-132448917D01*
X125087489Y-132398123D01*
X125155310Y-132381328D01*
X125221445Y-132403865D01*
X125260483Y-132448917D01*
X125287472Y-132501884D01*
X125307715Y-132541614D01*
X125428028Y-132707213D01*
X125572786Y-132851971D01*
X125727749Y-132964556D01*
X125738390Y-132972287D01*
X125854607Y-133031503D01*
X125920776Y-133065218D01*
X125920778Y-133065218D01*
X125920781Y-133065220D01*
X126025137Y-133099127D01*
X126115465Y-133128477D01*
X126216557Y-133144488D01*
X126317648Y-133160500D01*
X126317649Y-133160500D01*
X126522351Y-133160500D01*
X126522352Y-133160500D01*
X126724534Y-133128477D01*
X126919219Y-133065220D01*
X127101610Y-132972287D01*
X127207409Y-132895420D01*
X127267213Y-132851971D01*
X127267215Y-132851968D01*
X127267219Y-132851966D01*
X127411966Y-132707219D01*
X127411968Y-132707215D01*
X127411971Y-132707213D01*
X127532284Y-132541614D01*
X127532285Y-132541613D01*
X127532287Y-132541610D01*
X127579516Y-132448917D01*
X127627489Y-132398123D01*
X127695310Y-132381328D01*
X127761445Y-132403865D01*
X127800483Y-132448917D01*
X127827472Y-132501884D01*
X127847715Y-132541614D01*
X127968028Y-132707213D01*
X128112786Y-132851971D01*
X128267749Y-132964556D01*
X128278390Y-132972287D01*
X128394607Y-133031503D01*
X128460776Y-133065218D01*
X128460778Y-133065218D01*
X128460781Y-133065220D01*
X128565137Y-133099127D01*
X128655465Y-133128477D01*
X128756557Y-133144488D01*
X128857648Y-133160500D01*
X128857649Y-133160500D01*
X129062351Y-133160500D01*
X129062352Y-133160500D01*
X129264534Y-133128477D01*
X129459219Y-133065220D01*
X129641610Y-132972287D01*
X129747409Y-132895420D01*
X129807213Y-132851971D01*
X129807215Y-132851968D01*
X129807219Y-132851966D01*
X129860690Y-132798495D01*
X137050000Y-132798495D01*
X137088427Y-132991681D01*
X137088430Y-132991693D01*
X137163807Y-133173671D01*
X137163814Y-133173684D01*
X137273248Y-133337462D01*
X137273251Y-133337466D01*
X137412533Y-133476748D01*
X137412537Y-133476751D01*
X137576318Y-133586187D01*
X137576321Y-133586188D01*
X137649999Y-133616707D01*
X137650000Y-133616707D01*
X137650000Y-132700000D01*
X137050000Y-132700000D01*
X137050000Y-132798495D01*
X129860690Y-132798495D01*
X129951966Y-132707219D01*
X129987622Y-132658143D01*
X130047482Y-132575753D01*
X130066191Y-132550000D01*
X130072287Y-132541610D01*
X130165220Y-132359219D01*
X130201572Y-132247339D01*
X137650000Y-132247339D01*
X137650000Y-132352661D01*
X137677259Y-132454394D01*
X137729920Y-132545606D01*
X137804394Y-132620080D01*
X137895606Y-132672741D01*
X137997339Y-132700000D01*
X138102661Y-132700000D01*
X138204394Y-132672741D01*
X138295606Y-132620080D01*
X138370080Y-132545606D01*
X138422741Y-132454394D01*
X138450000Y-132352661D01*
X138450000Y-133616707D01*
X138523678Y-133586188D01*
X138523681Y-133586187D01*
X138687462Y-133476751D01*
X138687466Y-133476748D01*
X138826748Y-133337466D01*
X138826751Y-133337462D01*
X138936185Y-133173684D01*
X138936192Y-133173671D01*
X139011569Y-132991693D01*
X139011572Y-132991681D01*
X139047527Y-132810925D01*
X139079911Y-132749014D01*
X139140627Y-132714440D01*
X139210397Y-132718179D01*
X139267069Y-132759045D01*
X139291617Y-132815718D01*
X139321522Y-133004534D01*
X139384781Y-133199223D01*
X139436135Y-133300009D01*
X139455220Y-133337466D01*
X139477715Y-133381613D01*
X139598028Y-133547213D01*
X139742786Y-133691971D01*
X139897749Y-133804556D01*
X139908390Y-133812287D01*
X140024607Y-133871503D01*
X140090776Y-133905218D01*
X140090778Y-133905218D01*
X140090781Y-133905220D01*
X140181856Y-133934812D01*
X140285465Y-133968477D01*
X140386557Y-133984488D01*
X140487648Y-134000500D01*
X140487649Y-134000500D01*
X140692351Y-134000500D01*
X140692352Y-134000500D01*
X140894534Y-133968477D01*
X141089219Y-133905220D01*
X141271610Y-133812287D01*
X141400482Y-133718657D01*
X141437213Y-133691971D01*
X141437215Y-133691968D01*
X141437219Y-133691966D01*
X141581966Y-133547219D01*
X141581968Y-133547215D01*
X141581971Y-133547213D01*
X141698074Y-133387409D01*
X141702287Y-133381610D01*
X141749516Y-133288917D01*
X141797489Y-133238123D01*
X141865310Y-133221328D01*
X141931445Y-133243865D01*
X141970483Y-133288917D01*
X142014348Y-133375006D01*
X142017715Y-133381614D01*
X142138028Y-133547213D01*
X142282786Y-133691971D01*
X142437749Y-133804556D01*
X142448390Y-133812287D01*
X142564607Y-133871503D01*
X142630776Y-133905218D01*
X142630778Y-133905218D01*
X142630781Y-133905220D01*
X142721856Y-133934812D01*
X142825465Y-133968477D01*
X142926557Y-133984488D01*
X143027648Y-134000500D01*
X143027649Y-134000500D01*
X143232351Y-134000500D01*
X143232352Y-134000500D01*
X143434534Y-133968477D01*
X143629219Y-133905220D01*
X143811610Y-133812287D01*
X143940482Y-133718657D01*
X143977213Y-133691971D01*
X143977215Y-133691968D01*
X143977219Y-133691966D01*
X144121966Y-133547219D01*
X144190021Y-133453547D01*
X144245349Y-133410882D01*
X144314963Y-133404902D01*
X144376758Y-133437507D01*
X144408044Y-133487427D01*
X144427856Y-133547215D01*
X144435186Y-133569333D01*
X144435187Y-133569336D01*
X144449854Y-133593115D01*
X144527288Y-133718656D01*
X144651344Y-133842712D01*
X144800666Y-133934814D01*
X144967203Y-133989999D01*
X145069991Y-134000500D01*
X146270008Y-134000499D01*
X146372797Y-133989999D01*
X146539334Y-133934814D01*
X146688656Y-133842712D01*
X146812712Y-133718656D01*
X146904814Y-133569334D01*
X146959999Y-133402797D01*
X146970500Y-133300009D01*
X146970499Y-131299992D01*
X146959999Y-131197203D01*
X146904814Y-131030666D01*
X146812712Y-130881344D01*
X146688656Y-130757288D01*
X146572134Y-130685417D01*
X146539336Y-130665187D01*
X146539331Y-130665185D01*
X146537862Y-130664698D01*
X146372797Y-130610001D01*
X146372795Y-130610000D01*
X146270010Y-130599500D01*
X145069998Y-130599500D01*
X145069981Y-130599501D01*
X144967203Y-130610000D01*
X144967200Y-130610001D01*
X144800668Y-130665185D01*
X144800663Y-130665187D01*
X144651342Y-130757289D01*
X144527289Y-130881342D01*
X144435187Y-131030663D01*
X144435186Y-131030666D01*
X144408045Y-131112571D01*
X144368271Y-131170016D01*
X144303755Y-131196838D01*
X144234979Y-131184522D01*
X144190021Y-131146452D01*
X144121966Y-131052781D01*
X143977219Y-130908034D01*
X143977213Y-130908028D01*
X143811613Y-130787715D01*
X143811612Y-130787714D01*
X143811610Y-130787713D01*
X143739394Y-130750917D01*
X143629223Y-130694781D01*
X143434534Y-130631522D01*
X143259995Y-130603878D01*
X143232352Y-130599500D01*
X143027648Y-130599500D01*
X143003329Y-130603351D01*
X142825465Y-130631522D01*
X142630776Y-130694781D01*
X142448386Y-130787715D01*
X142282786Y-130908028D01*
X142138028Y-131052786D01*
X142017715Y-131218386D01*
X141970485Y-131311080D01*
X141922510Y-131361876D01*
X141854689Y-131378671D01*
X141788554Y-131356134D01*
X141749515Y-131311080D01*
X141724779Y-131262533D01*
X141702287Y-131218390D01*
X141650021Y-131146451D01*
X141581971Y-131052786D01*
X141437213Y-130908028D01*
X141271613Y-130787715D01*
X141271612Y-130787714D01*
X141271610Y-130787713D01*
X141199394Y-130750917D01*
X141089223Y-130694781D01*
X140894534Y-130631522D01*
X140719995Y-130603878D01*
X140692352Y-130599500D01*
X140487648Y-130599500D01*
X140463329Y-130603351D01*
X140285465Y-130631522D01*
X140090776Y-130694781D01*
X139908386Y-130787715D01*
X139742786Y-130908028D01*
X139598028Y-131052786D01*
X139477715Y-131218386D01*
X139384781Y-131400776D01*
X139321522Y-131595465D01*
X139291617Y-131784281D01*
X139261688Y-131847416D01*
X139202376Y-131884347D01*
X139132513Y-131883349D01*
X139074281Y-131844739D01*
X139047527Y-131789074D01*
X139011572Y-131608318D01*
X139011569Y-131608306D01*
X138936192Y-131426328D01*
X138936185Y-131426315D01*
X138826751Y-131262537D01*
X138826748Y-131262533D01*
X138687463Y-131123248D01*
X138523675Y-131013809D01*
X138450000Y-130983292D01*
X138450000Y-132247339D01*
X138422741Y-132145606D01*
X138370080Y-132054394D01*
X138295606Y-131979920D01*
X138204394Y-131927259D01*
X138102661Y-131900000D01*
X137997339Y-131900000D01*
X137895606Y-131927259D01*
X137804394Y-131979920D01*
X137729920Y-132054394D01*
X137677259Y-132145606D01*
X137650000Y-132247339D01*
X130201572Y-132247339D01*
X130228477Y-132164534D01*
X130260500Y-131962352D01*
X130260500Y-131801504D01*
X137050000Y-131801504D01*
X137050000Y-131900000D01*
X137650000Y-131900000D01*
X137650000Y-130983292D01*
X137649999Y-130983292D01*
X137576324Y-131013809D01*
X137412536Y-131123248D01*
X137273251Y-131262533D01*
X137273248Y-131262537D01*
X137163814Y-131426315D01*
X137163807Y-131426328D01*
X137088430Y-131608306D01*
X137088427Y-131608318D01*
X137050000Y-131801504D01*
X130260500Y-131801504D01*
X130260500Y-130957648D01*
X130230000Y-130765081D01*
X130228477Y-130755465D01*
X130192786Y-130645621D01*
X130165220Y-130560781D01*
X130165218Y-130560778D01*
X130165218Y-130560776D01*
X130098688Y-130430205D01*
X130072287Y-130378390D01*
X130021447Y-130308414D01*
X129951971Y-130212786D01*
X129807213Y-130068028D01*
X129641613Y-129947715D01*
X129641612Y-129947714D01*
X129641610Y-129947713D01*
X129584653Y-129918691D01*
X129459223Y-129854781D01*
X129264534Y-129791522D01*
X129089995Y-129763878D01*
X129062352Y-129759500D01*
X128857648Y-129759500D01*
X128833329Y-129763351D01*
X128655465Y-129791522D01*
X128460776Y-129854781D01*
X128278386Y-129947715D01*
X128112786Y-130068028D01*
X127968028Y-130212786D01*
X127847715Y-130378386D01*
X127800485Y-130471080D01*
X127752510Y-130521876D01*
X127684689Y-130538671D01*
X127618554Y-130516134D01*
X127579515Y-130471080D01*
X127558688Y-130430205D01*
X127532287Y-130378390D01*
X127481447Y-130308414D01*
X127411971Y-130212786D01*
X127267213Y-130068028D01*
X127101613Y-129947715D01*
X127101612Y-129947714D01*
X127101610Y-129947713D01*
X127044653Y-129918691D01*
X126919223Y-129854781D01*
X126724534Y-129791522D01*
X126549995Y-129763878D01*
X126522352Y-129759500D01*
X126317648Y-129759500D01*
X126293329Y-129763351D01*
X126115465Y-129791522D01*
X125920776Y-129854781D01*
X125738386Y-129947715D01*
X125572786Y-130068028D01*
X125428028Y-130212786D01*
X125307715Y-130378386D01*
X125260485Y-130471080D01*
X125212510Y-130521876D01*
X125144689Y-130538671D01*
X125078554Y-130516134D01*
X125039515Y-130471080D01*
X125018688Y-130430205D01*
X124992287Y-130378390D01*
X124941447Y-130308414D01*
X124871971Y-130212786D01*
X124727213Y-130068028D01*
X124561613Y-129947715D01*
X124561612Y-129947714D01*
X124561610Y-129947713D01*
X124504653Y-129918691D01*
X124379223Y-129854781D01*
X124184534Y-129791522D01*
X124009995Y-129763878D01*
X123982352Y-129759500D01*
X123777648Y-129759500D01*
X123753329Y-129763351D01*
X123575465Y-129791522D01*
X123380776Y-129854781D01*
X123198386Y-129947715D01*
X123032786Y-130068028D01*
X122888028Y-130212786D01*
X122767715Y-130378386D01*
X122720485Y-130471080D01*
X122672510Y-130521876D01*
X122604689Y-130538671D01*
X122538554Y-130516134D01*
X122499515Y-130471080D01*
X122478688Y-130430205D01*
X122452287Y-130378390D01*
X122401447Y-130308414D01*
X122331971Y-130212786D01*
X122187213Y-130068028D01*
X122021613Y-129947715D01*
X122021612Y-129947714D01*
X122021610Y-129947713D01*
X121964653Y-129918691D01*
X121839223Y-129854781D01*
X121644534Y-129791522D01*
X121469995Y-129763878D01*
X121442352Y-129759500D01*
X121237648Y-129759500D01*
X121213329Y-129763351D01*
X121035465Y-129791522D01*
X120840776Y-129854781D01*
X120658386Y-129947715D01*
X120492786Y-130068028D01*
X120348028Y-130212786D01*
X120227715Y-130378386D01*
X120134781Y-130560776D01*
X120071522Y-130755465D01*
X120039500Y-130957648D01*
X82300000Y-130957648D01*
X82300000Y-129451263D01*
X111841500Y-129451263D01*
X111841500Y-129648736D01*
X111872389Y-129843763D01*
X111917628Y-129982993D01*
X111933409Y-130031561D01*
X112015991Y-130193635D01*
X112023058Y-130207504D01*
X112139115Y-130367246D01*
X112278753Y-130506884D01*
X112406231Y-130599500D01*
X112438499Y-130622944D01*
X112614439Y-130712591D01*
X112721826Y-130747483D01*
X112802236Y-130773610D01*
X112997264Y-130804500D01*
X112997269Y-130804500D01*
X114702736Y-130804500D01*
X114897763Y-130773610D01*
X115085561Y-130712591D01*
X115261501Y-130622944D01*
X115377494Y-130538671D01*
X115421246Y-130506884D01*
X115421248Y-130506881D01*
X115421252Y-130506879D01*
X115560879Y-130367252D01*
X115560881Y-130367248D01*
X115560884Y-130367246D01*
X115641762Y-130255925D01*
X115676944Y-130207501D01*
X115766591Y-130031561D01*
X115827610Y-129843763D01*
X115836125Y-129790000D01*
X115858500Y-129648736D01*
X115858500Y-129451263D01*
X115827610Y-129256236D01*
X115793025Y-129149795D01*
X115766591Y-129068439D01*
X115676944Y-128892499D01*
X115676680Y-128892135D01*
X152909500Y-128892135D01*
X152909500Y-130687870D01*
X152909501Y-130687876D01*
X152915908Y-130747483D01*
X152966202Y-130882328D01*
X152966206Y-130882335D01*
X153052452Y-130997544D01*
X153052455Y-130997547D01*
X153167664Y-131083793D01*
X153167671Y-131083797D01*
X153302517Y-131134091D01*
X153302516Y-131134091D01*
X153309444Y-131134835D01*
X153362127Y-131140500D01*
X155157872Y-131140499D01*
X155217483Y-131134091D01*
X155352331Y-131083796D01*
X155467546Y-130997546D01*
X155553796Y-130882331D01*
X155602810Y-130750916D01*
X155644681Y-130694984D01*
X155710145Y-130670566D01*
X155778418Y-130685417D01*
X155806673Y-130706569D01*
X155920213Y-130820109D01*
X156092179Y-130945048D01*
X156092181Y-130945049D01*
X156092184Y-130945051D01*
X156281588Y-131041557D01*
X156483757Y-131107246D01*
X156693713Y-131140500D01*
X156693714Y-131140500D01*
X156906286Y-131140500D01*
X156906287Y-131140500D01*
X157116243Y-131107246D01*
X157318412Y-131041557D01*
X157507816Y-130945051D01*
X157594138Y-130882335D01*
X157679786Y-130820109D01*
X157679788Y-130820106D01*
X157679792Y-130820104D01*
X157740576Y-130759320D01*
X158936363Y-130759320D01*
X159033725Y-130799649D01*
X159033733Y-130799651D01*
X159236579Y-130839999D01*
X159236583Y-130840000D01*
X159443417Y-130840000D01*
X159443420Y-130839999D01*
X159646266Y-130799651D01*
X159646270Y-130799650D01*
X159743635Y-130759320D01*
X159340001Y-130355686D01*
X159340000Y-130355686D01*
X158936363Y-130759320D01*
X157740576Y-130759320D01*
X157830104Y-130669792D01*
X157873545Y-130610001D01*
X157883499Y-130596299D01*
X157955051Y-130497816D01*
X158051557Y-130308412D01*
X158108876Y-130132001D01*
X158148311Y-130074330D01*
X158212670Y-130047131D01*
X158281516Y-130059045D01*
X158332992Y-130106289D01*
X158341366Y-130122870D01*
X158370677Y-130193634D01*
X158774314Y-129790000D01*
X158708488Y-129724174D01*
X158840000Y-129724174D01*
X158840000Y-129855826D01*
X158874075Y-129982993D01*
X158939901Y-130097007D01*
X159032993Y-130190099D01*
X159147007Y-130255925D01*
X159274174Y-130290000D01*
X159405826Y-130290000D01*
X159532993Y-130255925D01*
X159647007Y-130190099D01*
X159740099Y-130097007D01*
X159805925Y-129982993D01*
X159840000Y-129855826D01*
X159840000Y-129789999D01*
X159905686Y-129789999D01*
X159905686Y-129790000D01*
X160309320Y-130193635D01*
X160349650Y-130096270D01*
X160349651Y-130096266D01*
X160389999Y-129893420D01*
X160390000Y-129893417D01*
X160390000Y-129686583D01*
X160389999Y-129686579D01*
X160349651Y-129483733D01*
X160349649Y-129483725D01*
X160309320Y-129386363D01*
X159905686Y-129789999D01*
X159840000Y-129789999D01*
X159840000Y-129724174D01*
X159805925Y-129597007D01*
X159740099Y-129482993D01*
X159647007Y-129389901D01*
X159532993Y-129324075D01*
X159405826Y-129290000D01*
X159274174Y-129290000D01*
X159147007Y-129324075D01*
X159032993Y-129389901D01*
X158939901Y-129482993D01*
X158874075Y-129597007D01*
X158840000Y-129724174D01*
X158708488Y-129724174D01*
X158370677Y-129386363D01*
X158341366Y-129457128D01*
X158297526Y-129511532D01*
X158231231Y-129533597D01*
X158163532Y-129516318D01*
X158115921Y-129465181D01*
X158108879Y-129448006D01*
X158051557Y-129271588D01*
X157955051Y-129082184D01*
X157830104Y-128910208D01*
X157740574Y-128820678D01*
X158936364Y-128820678D01*
X159340000Y-129224314D01*
X159340001Y-129224314D01*
X159743635Y-128820678D01*
X159646277Y-128780351D01*
X159646265Y-128780348D01*
X159443420Y-128740000D01*
X159236579Y-128740000D01*
X159033734Y-128780348D01*
X159033727Y-128780350D01*
X158936364Y-128820678D01*
X157740574Y-128820678D01*
X157679792Y-128759896D01*
X157679786Y-128759890D01*
X157507820Y-128634951D01*
X157318414Y-128538444D01*
X157318413Y-128538443D01*
X157318412Y-128538443D01*
X157116243Y-128472754D01*
X157116241Y-128472753D01*
X157116240Y-128472753D01*
X156954957Y-128447208D01*
X156906287Y-128439500D01*
X156693713Y-128439500D01*
X156645042Y-128447208D01*
X156483760Y-128472753D01*
X156281585Y-128538444D01*
X156092179Y-128634951D01*
X155920215Y-128759889D01*
X155806673Y-128873431D01*
X155745350Y-128906915D01*
X155675658Y-128901931D01*
X155619725Y-128860059D01*
X155602810Y-128829082D01*
X155553797Y-128697671D01*
X155553793Y-128697664D01*
X155467547Y-128582455D01*
X155467544Y-128582452D01*
X155352335Y-128496206D01*
X155352328Y-128496202D01*
X155217482Y-128445908D01*
X155217483Y-128445908D01*
X155157883Y-128439501D01*
X155157881Y-128439500D01*
X155157873Y-128439500D01*
X155157864Y-128439500D01*
X153362129Y-128439500D01*
X153362123Y-128439501D01*
X153302516Y-128445908D01*
X153167671Y-128496202D01*
X153167664Y-128496206D01*
X153052455Y-128582452D01*
X153052452Y-128582455D01*
X152966206Y-128697664D01*
X152966202Y-128697671D01*
X152915908Y-128832517D01*
X152909501Y-128892116D01*
X152909500Y-128892135D01*
X115676680Y-128892135D01*
X115633365Y-128832517D01*
X115560884Y-128732753D01*
X115421246Y-128593115D01*
X115261504Y-128477058D01*
X115261503Y-128477057D01*
X115261501Y-128477056D01*
X115085561Y-128387409D01*
X115085558Y-128387408D01*
X114897763Y-128326389D01*
X114702736Y-128295500D01*
X114702731Y-128295500D01*
X112997269Y-128295500D01*
X112997264Y-128295500D01*
X112802236Y-128326389D01*
X112614441Y-128387408D01*
X112438495Y-128477058D01*
X112278753Y-128593115D01*
X112139115Y-128732753D01*
X112023058Y-128892495D01*
X111933408Y-129068441D01*
X111872389Y-129256236D01*
X111841500Y-129451263D01*
X82300000Y-129451263D01*
X82300000Y-124338495D01*
X120340000Y-124338495D01*
X120378427Y-124531681D01*
X120378430Y-124531693D01*
X120453807Y-124713671D01*
X120453814Y-124713684D01*
X120563248Y-124877462D01*
X120563251Y-124877466D01*
X120702533Y-125016748D01*
X120702537Y-125016751D01*
X120866318Y-125126187D01*
X120866321Y-125126188D01*
X120939999Y-125156707D01*
X120940000Y-125156707D01*
X120940000Y-124240000D01*
X120340000Y-124240000D01*
X120340000Y-124338495D01*
X82300000Y-124338495D01*
X82300000Y-123787339D01*
X120940000Y-123787339D01*
X120940000Y-123892661D01*
X120967259Y-123994394D01*
X121019920Y-124085606D01*
X121094394Y-124160080D01*
X121185606Y-124212741D01*
X121287339Y-124240000D01*
X121392661Y-124240000D01*
X121494394Y-124212741D01*
X121585606Y-124160080D01*
X121660080Y-124085606D01*
X121712741Y-123994394D01*
X121740000Y-123892661D01*
X121740000Y-125156707D01*
X121813678Y-125126188D01*
X121813681Y-125126187D01*
X121977462Y-125016751D01*
X121977466Y-125016748D01*
X122116748Y-124877466D01*
X122116751Y-124877462D01*
X122226185Y-124713684D01*
X122226192Y-124713671D01*
X122301569Y-124531693D01*
X122301572Y-124531681D01*
X122337527Y-124350925D01*
X122369911Y-124289014D01*
X122430627Y-124254440D01*
X122500397Y-124258179D01*
X122557069Y-124299045D01*
X122581617Y-124355718D01*
X122611522Y-124544534D01*
X122674781Y-124739223D01*
X122726135Y-124840009D01*
X122757495Y-124901557D01*
X122767715Y-124921613D01*
X122888028Y-125087213D01*
X123032786Y-125231971D01*
X123187749Y-125344556D01*
X123198390Y-125352287D01*
X123314607Y-125411503D01*
X123380776Y-125445218D01*
X123380778Y-125445218D01*
X123380781Y-125445220D01*
X123471856Y-125474812D01*
X123575465Y-125508477D01*
X123676557Y-125524488D01*
X123777648Y-125540500D01*
X123777649Y-125540500D01*
X123982351Y-125540500D01*
X123982352Y-125540500D01*
X124184534Y-125508477D01*
X124379219Y-125445220D01*
X124561610Y-125352287D01*
X124690482Y-125258657D01*
X124727213Y-125231971D01*
X124727215Y-125231968D01*
X124727219Y-125231966D01*
X124871966Y-125087219D01*
X124871968Y-125087215D01*
X124871971Y-125087213D01*
X124992284Y-124921614D01*
X124992285Y-124921613D01*
X124992287Y-124921610D01*
X125039516Y-124828917D01*
X125087489Y-124778123D01*
X125155310Y-124761328D01*
X125221445Y-124783865D01*
X125260483Y-124828917D01*
X125304348Y-124915006D01*
X125307715Y-124921614D01*
X125428028Y-125087213D01*
X125572786Y-125231971D01*
X125727749Y-125344556D01*
X125738390Y-125352287D01*
X125854607Y-125411503D01*
X125920776Y-125445218D01*
X125920778Y-125445218D01*
X125920781Y-125445220D01*
X126011856Y-125474812D01*
X126115465Y-125508477D01*
X126216557Y-125524488D01*
X126317648Y-125540500D01*
X126317649Y-125540500D01*
X126522351Y-125540500D01*
X126522352Y-125540500D01*
X126724534Y-125508477D01*
X126919219Y-125445220D01*
X127101610Y-125352287D01*
X127230482Y-125258657D01*
X127267213Y-125231971D01*
X127267215Y-125231968D01*
X127267219Y-125231966D01*
X127411966Y-125087219D01*
X127480021Y-124993547D01*
X127535349Y-124950882D01*
X127604963Y-124944902D01*
X127666758Y-124977507D01*
X127698044Y-125027427D01*
X127717856Y-125087215D01*
X127725186Y-125109333D01*
X127725187Y-125109336D01*
X127754406Y-125156707D01*
X127817288Y-125258656D01*
X127941344Y-125382712D01*
X128090666Y-125474814D01*
X128257203Y-125529999D01*
X128359991Y-125540500D01*
X129560008Y-125540499D01*
X129662797Y-125529999D01*
X129829334Y-125474814D01*
X129978656Y-125382712D01*
X130102712Y-125258656D01*
X130194814Y-125109334D01*
X130249999Y-124942797D01*
X130260500Y-124840009D01*
X130260499Y-123543713D01*
X131134500Y-123543713D01*
X131134500Y-123756286D01*
X131167753Y-123966239D01*
X131233444Y-124168414D01*
X131329951Y-124357820D01*
X131454890Y-124529786D01*
X131605213Y-124680109D01*
X131777179Y-124805048D01*
X131777181Y-124805049D01*
X131777184Y-124805051D01*
X131966588Y-124901557D01*
X132168757Y-124967246D01*
X132378713Y-125000500D01*
X132378714Y-125000500D01*
X132591286Y-125000500D01*
X132591287Y-125000500D01*
X132801243Y-124967246D01*
X133003412Y-124901557D01*
X133192816Y-124805051D01*
X133364792Y-124680104D01*
X133478329Y-124566566D01*
X133539648Y-124533084D01*
X133609340Y-124538068D01*
X133665274Y-124579939D01*
X133682189Y-124610917D01*
X133731202Y-124742328D01*
X133731206Y-124742335D01*
X133817452Y-124857544D01*
X133817455Y-124857547D01*
X133932664Y-124943793D01*
X133932671Y-124943797D01*
X134067517Y-124994091D01*
X134067516Y-124994091D01*
X134074444Y-124994835D01*
X134127127Y-125000500D01*
X135922872Y-125000499D01*
X135982483Y-124994091D01*
X136117331Y-124943796D01*
X136232546Y-124857546D01*
X136318796Y-124742331D01*
X136369091Y-124607483D01*
X136375500Y-124547873D01*
X136375499Y-122752128D01*
X136369091Y-122692517D01*
X136367810Y-122689083D01*
X136318797Y-122557671D01*
X136318793Y-122557664D01*
X136232547Y-122442455D01*
X136232544Y-122442452D01*
X136117335Y-122356206D01*
X136117328Y-122356202D01*
X135982482Y-122305908D01*
X135982483Y-122305908D01*
X135922883Y-122299501D01*
X135922881Y-122299500D01*
X135922873Y-122299500D01*
X135922864Y-122299500D01*
X134127129Y-122299500D01*
X134127123Y-122299501D01*
X134067516Y-122305908D01*
X133932671Y-122356202D01*
X133932664Y-122356206D01*
X133817455Y-122442452D01*
X133817452Y-122442455D01*
X133731206Y-122557664D01*
X133731203Y-122557669D01*
X133682189Y-122689083D01*
X133640317Y-122745016D01*
X133574853Y-122769433D01*
X133506580Y-122754581D01*
X133478326Y-122733430D01*
X133364786Y-122619890D01*
X133192820Y-122494951D01*
X133003414Y-122398444D01*
X133003413Y-122398443D01*
X133003412Y-122398443D01*
X132801243Y-122332754D01*
X132801241Y-122332753D01*
X132801240Y-122332753D01*
X132639957Y-122307208D01*
X132591287Y-122299500D01*
X132378713Y-122299500D01*
X132330042Y-122307208D01*
X132168760Y-122332753D01*
X131966585Y-122398444D01*
X131777179Y-122494951D01*
X131605213Y-122619890D01*
X131454890Y-122770213D01*
X131329951Y-122942179D01*
X131233444Y-123131585D01*
X131167753Y-123333760D01*
X131134500Y-123543713D01*
X130260499Y-123543713D01*
X130260499Y-122839992D01*
X130253370Y-122770208D01*
X130249999Y-122737203D01*
X130249998Y-122737200D01*
X130235191Y-122692516D01*
X130194814Y-122570666D01*
X130102712Y-122421344D01*
X129978656Y-122297288D01*
X129829334Y-122205186D01*
X129662797Y-122150001D01*
X129662795Y-122150000D01*
X129560010Y-122139500D01*
X128359998Y-122139500D01*
X128359981Y-122139501D01*
X128257203Y-122150000D01*
X128257200Y-122150001D01*
X128090668Y-122205185D01*
X128090663Y-122205187D01*
X127941342Y-122297289D01*
X127817289Y-122421342D01*
X127725187Y-122570663D01*
X127725186Y-122570666D01*
X127698045Y-122652571D01*
X127658271Y-122710016D01*
X127593755Y-122736838D01*
X127524979Y-122724522D01*
X127480021Y-122686452D01*
X127411966Y-122592781D01*
X127267219Y-122448034D01*
X127267213Y-122448028D01*
X127101613Y-122327715D01*
X127101612Y-122327714D01*
X127101610Y-122327713D01*
X127041898Y-122297288D01*
X126919223Y-122234781D01*
X126724534Y-122171522D01*
X126549995Y-122143878D01*
X126522352Y-122139500D01*
X126317648Y-122139500D01*
X126293329Y-122143351D01*
X126115465Y-122171522D01*
X125920776Y-122234781D01*
X125738386Y-122327715D01*
X125572786Y-122448028D01*
X125428028Y-122592786D01*
X125307715Y-122758386D01*
X125260485Y-122851080D01*
X125212510Y-122901876D01*
X125144689Y-122918671D01*
X125078554Y-122896134D01*
X125039515Y-122851080D01*
X125014779Y-122802533D01*
X124992287Y-122758390D01*
X124944428Y-122692517D01*
X124871971Y-122592786D01*
X124727213Y-122448028D01*
X124561613Y-122327715D01*
X124561612Y-122327714D01*
X124561610Y-122327713D01*
X124501898Y-122297288D01*
X124379223Y-122234781D01*
X124184534Y-122171522D01*
X124009995Y-122143878D01*
X123982352Y-122139500D01*
X123777648Y-122139500D01*
X123753329Y-122143351D01*
X123575465Y-122171522D01*
X123380776Y-122234781D01*
X123198386Y-122327715D01*
X123032786Y-122448028D01*
X122888028Y-122592786D01*
X122767715Y-122758386D01*
X122674781Y-122940776D01*
X122611522Y-123135465D01*
X122581617Y-123324281D01*
X122551688Y-123387416D01*
X122492376Y-123424347D01*
X122422513Y-123423349D01*
X122364281Y-123384739D01*
X122337527Y-123329074D01*
X122301572Y-123148318D01*
X122301569Y-123148306D01*
X122226192Y-122966328D01*
X122226185Y-122966315D01*
X122116751Y-122802537D01*
X122116748Y-122802533D01*
X121977463Y-122663248D01*
X121813675Y-122553809D01*
X121740000Y-122523292D01*
X121740000Y-123787339D01*
X121712741Y-123685606D01*
X121660080Y-123594394D01*
X121585606Y-123519920D01*
X121494394Y-123467259D01*
X121392661Y-123440000D01*
X121287339Y-123440000D01*
X121185606Y-123467259D01*
X121094394Y-123519920D01*
X121019920Y-123594394D01*
X120967259Y-123685606D01*
X120940000Y-123787339D01*
X82300000Y-123787339D01*
X82300000Y-123341504D01*
X120340000Y-123341504D01*
X120340000Y-123440000D01*
X120940000Y-123440000D01*
X120940000Y-122523292D01*
X120939999Y-122523292D01*
X120866324Y-122553809D01*
X120702536Y-122663248D01*
X120563251Y-122802533D01*
X120563248Y-122802537D01*
X120453814Y-122966315D01*
X120453807Y-122966328D01*
X120378430Y-123148306D01*
X120378427Y-123148318D01*
X120340000Y-123341504D01*
X82300000Y-123341504D01*
X82300000Y-119705095D01*
X113149500Y-119705095D01*
X113149500Y-120905113D01*
X113149501Y-120905130D01*
X113160000Y-121007908D01*
X113160001Y-121007911D01*
X113188101Y-121092710D01*
X113215186Y-121174446D01*
X113307288Y-121323768D01*
X113431344Y-121447824D01*
X113580666Y-121539926D01*
X113747203Y-121595111D01*
X113849991Y-121605612D01*
X115050008Y-121605611D01*
X115152797Y-121595111D01*
X115319334Y-121539926D01*
X115468656Y-121447824D01*
X115592712Y-121323768D01*
X115684814Y-121174446D01*
X115739999Y-121007909D01*
X115750500Y-120905121D01*
X115750499Y-120071209D01*
X139900000Y-120071209D01*
X139900000Y-120228797D01*
X139925801Y-120358512D01*
X139925802Y-120358512D01*
X140134314Y-120150001D01*
X140134314Y-120150000D01*
X140094818Y-120110504D01*
X140400000Y-120110504D01*
X140400000Y-120189496D01*
X140420444Y-120265796D01*
X140459940Y-120334205D01*
X140515795Y-120390060D01*
X140584204Y-120429556D01*
X140660504Y-120450000D01*
X140739496Y-120450000D01*
X140815796Y-120429556D01*
X140884205Y-120390060D01*
X140907149Y-120367115D01*
X140928646Y-120406484D01*
X140923662Y-120476176D01*
X140895161Y-120520523D01*
X140491487Y-120924196D01*
X140491487Y-120924197D01*
X140621202Y-120949999D01*
X140621205Y-120950000D01*
X140778794Y-120950000D01*
X140778797Y-120949999D01*
X140933343Y-120919258D01*
X140933351Y-120919256D01*
X141069541Y-120862844D01*
X141139010Y-120855375D01*
X141201489Y-120886650D01*
X141222533Y-120912309D01*
X141257288Y-120968656D01*
X141381344Y-121092712D01*
X141530666Y-121184814D01*
X141697203Y-121239999D01*
X141799991Y-121250500D01*
X142600008Y-121250499D01*
X142600016Y-121250498D01*
X142600019Y-121250498D01*
X142656302Y-121244748D01*
X142702797Y-121239999D01*
X142869334Y-121184814D01*
X143018656Y-121092712D01*
X143142712Y-120968656D01*
X143234814Y-120819334D01*
X143289999Y-120652797D01*
X143300500Y-120550009D01*
X143300499Y-119749992D01*
X143289999Y-119647203D01*
X143234814Y-119480666D01*
X143142712Y-119331344D01*
X143018656Y-119207288D01*
X142869334Y-119115186D01*
X142702797Y-119060001D01*
X142702795Y-119060000D01*
X142600010Y-119049500D01*
X141799998Y-119049500D01*
X141799980Y-119049501D01*
X141697203Y-119060000D01*
X141697200Y-119060001D01*
X141530668Y-119115185D01*
X141530663Y-119115187D01*
X141381342Y-119207289D01*
X141257288Y-119331343D01*
X141257285Y-119331347D01*
X141222532Y-119387691D01*
X141170584Y-119434416D01*
X141101622Y-119445637D01*
X141069541Y-119437155D01*
X140933351Y-119380743D01*
X140933343Y-119380741D01*
X140778797Y-119350000D01*
X140621202Y-119350000D01*
X140491486Y-119375801D01*
X140491486Y-119375802D01*
X140895161Y-119779476D01*
X140928646Y-119840799D01*
X140923662Y-119910490D01*
X140908440Y-119934175D01*
X140884205Y-119909940D01*
X140815796Y-119870444D01*
X140739496Y-119850000D01*
X140660504Y-119850000D01*
X140584204Y-119870444D01*
X140515795Y-119909940D01*
X140459940Y-119965795D01*
X140420444Y-120034204D01*
X140400000Y-120110504D01*
X140094818Y-120110504D01*
X139925802Y-119941487D01*
X139900000Y-120071209D01*
X115750499Y-120071209D01*
X115750499Y-119705104D01*
X115739999Y-119602315D01*
X115684814Y-119435778D01*
X115592712Y-119286456D01*
X115468656Y-119162400D01*
X115319334Y-119070298D01*
X115319333Y-119070297D01*
X115319332Y-119070297D01*
X115314676Y-119068126D01*
X115262238Y-119021952D01*
X115243088Y-118954758D01*
X115263305Y-118887877D01*
X115263982Y-118886853D01*
X115336188Y-118778790D01*
X115336192Y-118778783D01*
X115411569Y-118596805D01*
X115411572Y-118596793D01*
X115449999Y-118403607D01*
X115450000Y-118403604D01*
X115450000Y-118206620D01*
X115449999Y-118206616D01*
X115411572Y-118013430D01*
X115411570Y-118013422D01*
X115381051Y-117939743D01*
X114820523Y-118500273D01*
X114789389Y-118517273D01*
X114822741Y-118459506D01*
X114850000Y-118357773D01*
X114850000Y-118252451D01*
X114822741Y-118150718D01*
X114770080Y-118059506D01*
X114695606Y-117985032D01*
X114604394Y-117932371D01*
X114502661Y-117905112D01*
X114397339Y-117905112D01*
X114295606Y-117932371D01*
X114204394Y-117985032D01*
X114129920Y-118059506D01*
X114077259Y-118150718D01*
X114050000Y-118252451D01*
X114050000Y-118357773D01*
X114077259Y-118459506D01*
X114113373Y-118522058D01*
X114079476Y-118500273D01*
X113518947Y-117939744D01*
X113518946Y-117939744D01*
X113488432Y-118013412D01*
X113488427Y-118013429D01*
X113450000Y-118206616D01*
X113450000Y-118403607D01*
X113488427Y-118596793D01*
X113488430Y-118596805D01*
X113563807Y-118778783D01*
X113563814Y-118778796D01*
X113636017Y-118886854D01*
X113656895Y-118953531D01*
X113638411Y-119020911D01*
X113586432Y-119067602D01*
X113585326Y-119068124D01*
X113580673Y-119070293D01*
X113431342Y-119162401D01*
X113307289Y-119286454D01*
X113215187Y-119435775D01*
X113215185Y-119435780D01*
X113200311Y-119480668D01*
X113160001Y-119602315D01*
X113160001Y-119602316D01*
X113160000Y-119602316D01*
X113149500Y-119705095D01*
X82300000Y-119705095D01*
X82300000Y-117374059D01*
X114084631Y-117374059D01*
X114450000Y-117739426D01*
X114450001Y-117739426D01*
X114815367Y-117374059D01*
X114741685Y-117343540D01*
X114741681Y-117343538D01*
X114548495Y-117305112D01*
X114351504Y-117305112D01*
X114158317Y-117343539D01*
X114158300Y-117343544D01*
X114084632Y-117374058D01*
X114084631Y-117374059D01*
X82300000Y-117374059D01*
X82300000Y-116494196D01*
X129001487Y-116494196D01*
X129001487Y-116494197D01*
X129131202Y-116519999D01*
X129131205Y-116520000D01*
X129288795Y-116520000D01*
X129288797Y-116519999D01*
X129418511Y-116494197D01*
X129418511Y-116494196D01*
X129210001Y-116285685D01*
X129210000Y-116285685D01*
X129001487Y-116494196D01*
X82300000Y-116494196D01*
X82300000Y-113819983D01*
X128109500Y-113819983D01*
X128109500Y-114620001D01*
X128109501Y-114620019D01*
X128120000Y-114722796D01*
X128120001Y-114722799D01*
X128175185Y-114889331D01*
X128175186Y-114889334D01*
X128267288Y-115038656D01*
X128391344Y-115162712D01*
X128447688Y-115197465D01*
X128447690Y-115197466D01*
X128494414Y-115249414D01*
X128505637Y-115318377D01*
X128497154Y-115350457D01*
X128440744Y-115486644D01*
X128440741Y-115486656D01*
X128410000Y-115641202D01*
X128410000Y-115798797D01*
X128435801Y-115928512D01*
X128435802Y-115928512D01*
X128839476Y-115524838D01*
X128900799Y-115491353D01*
X128970490Y-115496337D01*
X128994175Y-115511559D01*
X128969940Y-115535795D01*
X128930444Y-115604204D01*
X128910000Y-115680504D01*
X128910000Y-115759496D01*
X128930444Y-115835796D01*
X128969940Y-115904205D01*
X129025795Y-115960060D01*
X129094204Y-115999556D01*
X129170504Y-116020000D01*
X129249496Y-116020000D01*
X129325796Y-115999556D01*
X129394205Y-115960060D01*
X129450060Y-115904205D01*
X129489556Y-115835796D01*
X129510000Y-115759496D01*
X129510000Y-115680504D01*
X129489556Y-115604204D01*
X129450060Y-115535795D01*
X129427115Y-115512850D01*
X129466484Y-115491353D01*
X129536175Y-115496337D01*
X129580523Y-115524838D01*
X129984196Y-115928511D01*
X129984197Y-115928511D01*
X130009999Y-115798797D01*
X130010000Y-115798795D01*
X130010000Y-115641206D01*
X130009999Y-115641202D01*
X129979258Y-115486656D01*
X129979256Y-115486648D01*
X129922844Y-115350458D01*
X129915375Y-115280989D01*
X129946650Y-115218510D01*
X129972303Y-115197470D01*
X130028656Y-115162712D01*
X130152712Y-115038656D01*
X130244814Y-114889334D01*
X130299999Y-114722797D01*
X130310500Y-114620009D01*
X130310499Y-113819992D01*
X130299999Y-113717203D01*
X130244814Y-113550666D01*
X130152712Y-113401344D01*
X130028656Y-113277288D01*
X129879334Y-113185186D01*
X129712797Y-113130001D01*
X129712795Y-113130000D01*
X129610010Y-113119500D01*
X128809998Y-113119500D01*
X128809980Y-113119501D01*
X128707203Y-113130000D01*
X128707200Y-113130001D01*
X128540668Y-113185185D01*
X128540663Y-113185187D01*
X128391342Y-113277289D01*
X128267289Y-113401342D01*
X128175187Y-113550663D01*
X128175186Y-113550666D01*
X128120001Y-113717203D01*
X128120001Y-113717204D01*
X128120000Y-113717204D01*
X128109500Y-113819983D01*
X82300000Y-113819983D01*
X82300000Y-109099983D01*
X105999500Y-109099983D01*
X105999500Y-111100001D01*
X105999501Y-111100018D01*
X106010000Y-111202796D01*
X106010001Y-111202799D01*
X106065185Y-111369331D01*
X106065187Y-111369336D01*
X106094406Y-111416707D01*
X106157288Y-111518656D01*
X106281344Y-111642712D01*
X106430666Y-111734814D01*
X106597203Y-111789999D01*
X106699991Y-111800500D01*
X107900008Y-111800499D01*
X108002797Y-111789999D01*
X108169334Y-111734814D01*
X108318656Y-111642712D01*
X108442712Y-111518656D01*
X108534814Y-111369334D01*
X108561955Y-111287427D01*
X108601726Y-111229984D01*
X108666242Y-111203161D01*
X108735018Y-111215476D01*
X108779977Y-111253547D01*
X108821069Y-111310104D01*
X108848034Y-111347219D01*
X108992786Y-111491971D01*
X109098043Y-111568443D01*
X109158390Y-111612287D01*
X109252982Y-111660484D01*
X109340776Y-111705218D01*
X109340778Y-111705218D01*
X109340781Y-111705220D01*
X109431856Y-111734812D01*
X109535465Y-111768477D01*
X109636557Y-111784488D01*
X109737648Y-111800500D01*
X109737649Y-111800500D01*
X109942351Y-111800500D01*
X109942352Y-111800500D01*
X110144534Y-111768477D01*
X110339219Y-111705220D01*
X110521610Y-111612287D01*
X110650482Y-111518657D01*
X110687213Y-111491971D01*
X110687215Y-111491968D01*
X110687219Y-111491966D01*
X110831966Y-111347219D01*
X110831968Y-111347215D01*
X110831971Y-111347213D01*
X110952284Y-111181614D01*
X110952285Y-111181613D01*
X110952287Y-111181610D01*
X110999516Y-111088917D01*
X111047489Y-111038123D01*
X111115310Y-111021328D01*
X111181445Y-111043865D01*
X111220483Y-111088917D01*
X111256593Y-111159786D01*
X111267715Y-111181614D01*
X111388028Y-111347213D01*
X111532786Y-111491971D01*
X111638043Y-111568443D01*
X111698390Y-111612287D01*
X111792982Y-111660484D01*
X111880776Y-111705218D01*
X111880778Y-111705218D01*
X111880781Y-111705220D01*
X111971856Y-111734812D01*
X112075465Y-111768477D01*
X112176557Y-111784488D01*
X112277648Y-111800500D01*
X112277649Y-111800500D01*
X112482351Y-111800500D01*
X112482352Y-111800500D01*
X112684534Y-111768477D01*
X112879219Y-111705220D01*
X113061610Y-111612287D01*
X113190482Y-111518657D01*
X113227213Y-111491971D01*
X113227215Y-111491968D01*
X113227219Y-111491966D01*
X113371966Y-111347219D01*
X113371968Y-111347215D01*
X113371971Y-111347213D01*
X113440021Y-111253548D01*
X113492287Y-111181610D01*
X113585220Y-110999219D01*
X113648477Y-110804534D01*
X113678383Y-110615716D01*
X113708311Y-110552584D01*
X113767622Y-110515652D01*
X113837485Y-110516650D01*
X113895718Y-110555259D01*
X113922472Y-110610925D01*
X113958427Y-110791681D01*
X113958430Y-110791693D01*
X114033807Y-110973671D01*
X114033814Y-110973684D01*
X114143248Y-111137462D01*
X114143251Y-111137466D01*
X114282533Y-111276748D01*
X114282537Y-111276751D01*
X114446318Y-111386187D01*
X114446321Y-111386188D01*
X114519999Y-111416707D01*
X114520000Y-111416707D01*
X115320000Y-111416707D01*
X115393678Y-111386188D01*
X115393681Y-111386187D01*
X115557462Y-111276751D01*
X115557466Y-111276748D01*
X115696748Y-111137466D01*
X115696751Y-111137462D01*
X115806185Y-110973684D01*
X115806192Y-110973671D01*
X115881569Y-110791693D01*
X115881572Y-110791681D01*
X115919999Y-110598495D01*
X115920000Y-110598492D01*
X115920000Y-110500000D01*
X115320000Y-110500000D01*
X115320000Y-111416707D01*
X114520000Y-111416707D01*
X114520000Y-110152661D01*
X114547259Y-110254394D01*
X114599920Y-110345606D01*
X114674394Y-110420080D01*
X114765606Y-110472741D01*
X114867339Y-110500000D01*
X114972661Y-110500000D01*
X115074394Y-110472741D01*
X115165606Y-110420080D01*
X115240080Y-110345606D01*
X115292741Y-110254394D01*
X115320000Y-110152661D01*
X115320000Y-110047339D01*
X115292741Y-109945606D01*
X115240080Y-109854394D01*
X115165606Y-109779920D01*
X115074394Y-109727259D01*
X114972661Y-109700000D01*
X115320000Y-109700000D01*
X115920000Y-109700000D01*
X115920000Y-109601508D01*
X115919999Y-109601504D01*
X115881572Y-109408318D01*
X115881569Y-109408306D01*
X115806192Y-109226328D01*
X115806185Y-109226315D01*
X115696751Y-109062537D01*
X115696748Y-109062533D01*
X115557463Y-108923248D01*
X115393675Y-108813809D01*
X115320000Y-108783292D01*
X115320000Y-109700000D01*
X114972661Y-109700000D01*
X114867339Y-109700000D01*
X114765606Y-109727259D01*
X114674394Y-109779920D01*
X114599920Y-109854394D01*
X114547259Y-109945606D01*
X114520000Y-110047339D01*
X114520000Y-108783292D01*
X114519999Y-108783292D01*
X114446324Y-108813809D01*
X114282536Y-108923248D01*
X114143251Y-109062533D01*
X114143248Y-109062537D01*
X114033814Y-109226315D01*
X114033807Y-109226328D01*
X113958430Y-109408306D01*
X113958427Y-109408316D01*
X113922472Y-109589075D01*
X113890087Y-109650985D01*
X113829371Y-109685560D01*
X113759602Y-109681820D01*
X113702930Y-109640953D01*
X113678383Y-109584284D01*
X113648477Y-109395466D01*
X113585220Y-109200781D01*
X113585218Y-109200778D01*
X113585218Y-109200776D01*
X113546582Y-109124949D01*
X113492287Y-109018390D01*
X113451674Y-108962490D01*
X113371971Y-108852786D01*
X113227213Y-108708028D01*
X113061613Y-108587715D01*
X113061612Y-108587714D01*
X113061610Y-108587713D01*
X113001898Y-108557288D01*
X112879223Y-108494781D01*
X112684534Y-108431522D01*
X112509995Y-108403878D01*
X112482352Y-108399500D01*
X112277648Y-108399500D01*
X112253329Y-108403351D01*
X112075465Y-108431522D01*
X111880776Y-108494781D01*
X111698386Y-108587715D01*
X111532786Y-108708028D01*
X111388028Y-108852786D01*
X111267715Y-109018386D01*
X111220485Y-109111080D01*
X111172510Y-109161876D01*
X111104689Y-109178671D01*
X111038554Y-109156134D01*
X110999515Y-109111080D01*
X110984416Y-109081447D01*
X110952287Y-109018390D01*
X110911674Y-108962490D01*
X110831971Y-108852786D01*
X110687213Y-108708028D01*
X110521613Y-108587715D01*
X110521612Y-108587714D01*
X110521610Y-108587713D01*
X110461898Y-108557288D01*
X110339223Y-108494781D01*
X110144534Y-108431522D01*
X109969995Y-108403878D01*
X109942352Y-108399500D01*
X109737648Y-108399500D01*
X109713329Y-108403351D01*
X109535465Y-108431522D01*
X109340776Y-108494781D01*
X109158386Y-108587715D01*
X108992786Y-108708028D01*
X108848032Y-108852782D01*
X108848028Y-108852787D01*
X108779978Y-108946451D01*
X108724648Y-108989117D01*
X108655035Y-108995096D01*
X108593240Y-108962490D01*
X108561954Y-108912570D01*
X108534814Y-108830666D01*
X108442712Y-108681344D01*
X108318656Y-108557288D01*
X108169334Y-108465186D01*
X108002797Y-108410001D01*
X108002795Y-108410000D01*
X107900010Y-108399500D01*
X106699998Y-108399500D01*
X106699981Y-108399501D01*
X106597203Y-108410000D01*
X106597200Y-108410001D01*
X106430668Y-108465185D01*
X106430663Y-108465187D01*
X106281342Y-108557289D01*
X106157289Y-108681342D01*
X106065187Y-108830663D01*
X106065186Y-108830666D01*
X106010001Y-108997203D01*
X106010001Y-108997204D01*
X106010000Y-108997204D01*
X105999500Y-109099983D01*
X82300000Y-109099983D01*
X82300000Y-104778713D01*
X122199500Y-104778713D01*
X122199500Y-104991286D01*
X122232753Y-105201239D01*
X122298444Y-105403414D01*
X122394951Y-105592820D01*
X122519890Y-105764786D01*
X122633430Y-105878326D01*
X122666915Y-105939649D01*
X122661931Y-106009341D01*
X122620059Y-106065274D01*
X122589083Y-106082189D01*
X122457669Y-106131203D01*
X122457664Y-106131206D01*
X122342455Y-106217452D01*
X122342452Y-106217455D01*
X122256206Y-106332664D01*
X122256202Y-106332671D01*
X122205908Y-106467517D01*
X122203083Y-106493797D01*
X122199501Y-106527123D01*
X122199500Y-106527135D01*
X122199500Y-108322870D01*
X122199501Y-108322876D01*
X122205908Y-108382483D01*
X122256202Y-108517328D01*
X122256206Y-108517335D01*
X122342452Y-108632544D01*
X122342455Y-108632547D01*
X122457664Y-108718793D01*
X122457671Y-108718797D01*
X122592517Y-108769091D01*
X122592516Y-108769091D01*
X122599444Y-108769835D01*
X122652127Y-108775500D01*
X124447872Y-108775499D01*
X124507483Y-108769091D01*
X124642331Y-108718796D01*
X124757546Y-108632546D01*
X124843796Y-108517331D01*
X124894091Y-108382483D01*
X124900500Y-108322873D01*
X124900499Y-106527128D01*
X124894091Y-106467517D01*
X124871723Y-106407546D01*
X124843797Y-106332671D01*
X124843793Y-106332664D01*
X124757547Y-106217455D01*
X124757544Y-106217452D01*
X124642335Y-106131206D01*
X124642328Y-106131202D01*
X124510917Y-106082189D01*
X124454983Y-106040318D01*
X124430566Y-105974853D01*
X124445418Y-105906580D01*
X124466563Y-105878332D01*
X124580104Y-105764792D01*
X124705051Y-105592816D01*
X124801557Y-105403412D01*
X124867246Y-105201243D01*
X124900500Y-104991287D01*
X124900500Y-104778713D01*
X124867246Y-104568757D01*
X124801557Y-104366588D01*
X124801555Y-104366585D01*
X124801555Y-104366583D01*
X124795705Y-104355102D01*
X124795704Y-104355101D01*
X124768717Y-104302135D01*
X147249500Y-104302135D01*
X147249500Y-106097870D01*
X147249501Y-106097876D01*
X147255908Y-106157483D01*
X147306202Y-106292328D01*
X147306206Y-106292335D01*
X147392452Y-106407544D01*
X147392455Y-106407547D01*
X147507664Y-106493793D01*
X147507671Y-106493797D01*
X147639082Y-106542810D01*
X147695016Y-106584681D01*
X147719433Y-106650145D01*
X147704582Y-106718418D01*
X147683431Y-106746673D01*
X147569889Y-106860215D01*
X147444951Y-107032179D01*
X147348444Y-107221585D01*
X147282753Y-107423760D01*
X147249500Y-107633713D01*
X147249500Y-107846286D01*
X147282753Y-108056239D01*
X147348444Y-108258414D01*
X147444951Y-108447820D01*
X147569890Y-108619786D01*
X147720213Y-108770109D01*
X147892182Y-108895050D01*
X147900946Y-108899516D01*
X147951742Y-108947491D01*
X147968536Y-109015312D01*
X147945998Y-109081447D01*
X147900946Y-109120484D01*
X147892182Y-109124949D01*
X147720213Y-109249890D01*
X147569890Y-109400213D01*
X147444951Y-109572179D01*
X147348444Y-109761585D01*
X147282753Y-109963760D01*
X147249500Y-110173713D01*
X147249500Y-110386286D01*
X147276262Y-110555259D01*
X147282754Y-110596243D01*
X147287524Y-110610925D01*
X147348444Y-110798414D01*
X147444951Y-110987820D01*
X147569890Y-111159786D01*
X147720213Y-111310109D01*
X147892182Y-111435050D01*
X147900946Y-111439516D01*
X147951742Y-111487491D01*
X147968536Y-111555312D01*
X147945998Y-111621447D01*
X147900946Y-111660484D01*
X147892182Y-111664949D01*
X147720213Y-111789890D01*
X147569890Y-111940213D01*
X147444951Y-112112179D01*
X147348444Y-112301585D01*
X147282753Y-112503760D01*
X147249500Y-112713713D01*
X147249500Y-112926287D01*
X147282754Y-113136243D01*
X147298656Y-113185185D01*
X147348444Y-113338414D01*
X147444951Y-113527820D01*
X147569890Y-113699786D01*
X147720213Y-113850109D01*
X147892182Y-113975050D01*
X147900946Y-113979516D01*
X147951742Y-114027491D01*
X147968536Y-114095312D01*
X147945998Y-114161447D01*
X147900946Y-114200484D01*
X147892182Y-114204949D01*
X147720213Y-114329890D01*
X147569890Y-114480213D01*
X147444951Y-114652179D01*
X147348444Y-114841585D01*
X147282753Y-115043760D01*
X147263913Y-115162712D01*
X147249500Y-115253713D01*
X147249500Y-115466287D01*
X147258774Y-115524838D01*
X147277204Y-115641206D01*
X147282754Y-115676243D01*
X147322574Y-115798797D01*
X147348444Y-115878414D01*
X147444951Y-116067820D01*
X147569890Y-116239786D01*
X147720213Y-116390109D01*
X147892179Y-116515048D01*
X147892181Y-116515049D01*
X147892184Y-116515051D01*
X148081588Y-116611557D01*
X148283757Y-116677246D01*
X148493713Y-116710500D01*
X148493714Y-116710500D01*
X148706286Y-116710500D01*
X148706287Y-116710500D01*
X148916243Y-116677246D01*
X149118412Y-116611557D01*
X149307816Y-116515051D01*
X149336521Y-116494196D01*
X149479786Y-116390109D01*
X149479788Y-116390106D01*
X149479792Y-116390104D01*
X149630104Y-116239792D01*
X149630106Y-116239788D01*
X149630109Y-116239786D01*
X149755048Y-116067820D01*
X149755047Y-116067820D01*
X149755051Y-116067816D01*
X149851557Y-115878412D01*
X149917246Y-115676243D01*
X149950500Y-115466287D01*
X149950500Y-115253713D01*
X149917246Y-115043757D01*
X149851557Y-114841588D01*
X149755051Y-114652184D01*
X149755049Y-114652181D01*
X149755048Y-114652179D01*
X149630109Y-114480213D01*
X149479786Y-114329890D01*
X149307820Y-114204951D01*
X149307115Y-114204591D01*
X149299054Y-114200485D01*
X149248259Y-114152512D01*
X149231463Y-114084692D01*
X149253999Y-114018556D01*
X149299054Y-113979515D01*
X149307816Y-113975051D01*
X149329789Y-113959086D01*
X149479786Y-113850109D01*
X149479788Y-113850106D01*
X149479792Y-113850104D01*
X149630104Y-113699792D01*
X149630106Y-113699788D01*
X149630109Y-113699786D01*
X149755048Y-113527820D01*
X149755047Y-113527820D01*
X149755051Y-113527816D01*
X149851557Y-113338412D01*
X149917246Y-113136243D01*
X149950500Y-112926287D01*
X149950500Y-112713713D01*
X149917246Y-112503757D01*
X149851557Y-112301588D01*
X149755051Y-112112184D01*
X149755049Y-112112181D01*
X149755048Y-112112179D01*
X149630109Y-111940213D01*
X149479786Y-111789890D01*
X149307820Y-111664951D01*
X149307115Y-111664591D01*
X149299054Y-111660485D01*
X149248259Y-111612512D01*
X149231463Y-111544692D01*
X149253999Y-111478556D01*
X149299054Y-111439515D01*
X149307816Y-111435051D01*
X149398266Y-111369336D01*
X149479786Y-111310109D01*
X149479788Y-111310106D01*
X149479792Y-111310104D01*
X149630104Y-111159792D01*
X149630106Y-111159788D01*
X149630109Y-111159786D01*
X149755048Y-110987820D01*
X149755047Y-110987820D01*
X149755051Y-110987816D01*
X149851557Y-110798412D01*
X149917246Y-110596243D01*
X149950500Y-110386287D01*
X149950500Y-110173713D01*
X149917246Y-109963757D01*
X149851557Y-109761588D01*
X149755051Y-109572184D01*
X149755049Y-109572181D01*
X149755048Y-109572179D01*
X149630109Y-109400213D01*
X149479786Y-109249890D01*
X149307820Y-109124951D01*
X149307115Y-109124591D01*
X149299054Y-109120485D01*
X149248259Y-109072512D01*
X149231463Y-109004692D01*
X149253999Y-108938556D01*
X149299054Y-108899515D01*
X149307816Y-108895051D01*
X149365996Y-108852781D01*
X149479786Y-108770109D01*
X149479788Y-108770106D01*
X149479792Y-108770104D01*
X149630104Y-108619792D01*
X149630106Y-108619788D01*
X149630109Y-108619786D01*
X149755048Y-108447820D01*
X149755047Y-108447820D01*
X149755051Y-108447816D01*
X149851557Y-108258412D01*
X149917246Y-108056243D01*
X149950500Y-107846287D01*
X149950500Y-107633713D01*
X149917246Y-107423757D01*
X149851557Y-107221588D01*
X149755051Y-107032184D01*
X149755049Y-107032181D01*
X149755048Y-107032179D01*
X149630109Y-106860213D01*
X149516569Y-106746673D01*
X149483084Y-106685350D01*
X149488068Y-106615658D01*
X149529940Y-106559725D01*
X149560915Y-106542810D01*
X149692331Y-106493796D01*
X149807546Y-106407546D01*
X149893796Y-106292331D01*
X149944091Y-106157483D01*
X149950500Y-106097873D01*
X149950499Y-104302128D01*
X149944091Y-104242517D01*
X149919723Y-104177184D01*
X149893797Y-104107671D01*
X149893793Y-104107664D01*
X149807547Y-103992455D01*
X149807544Y-103992452D01*
X149692335Y-103906206D01*
X149692328Y-103906202D01*
X149557482Y-103855908D01*
X149557483Y-103855908D01*
X149497883Y-103849501D01*
X149497881Y-103849500D01*
X149497873Y-103849500D01*
X149497864Y-103849500D01*
X147702129Y-103849500D01*
X147702123Y-103849501D01*
X147642516Y-103855908D01*
X147507671Y-103906202D01*
X147507664Y-103906206D01*
X147392455Y-103992452D01*
X147392452Y-103992455D01*
X147306206Y-104107664D01*
X147306202Y-104107671D01*
X147255908Y-104242517D01*
X147249501Y-104302116D01*
X147249501Y-104302123D01*
X147249500Y-104302135D01*
X124768717Y-104302135D01*
X124705051Y-104177184D01*
X124705049Y-104177181D01*
X124705048Y-104177179D01*
X124580109Y-104005213D01*
X124429786Y-103854890D01*
X124257820Y-103729951D01*
X124068414Y-103633444D01*
X124068413Y-103633443D01*
X124068412Y-103633443D01*
X123866243Y-103567754D01*
X123866241Y-103567753D01*
X123866240Y-103567753D01*
X123704957Y-103542208D01*
X123656287Y-103534500D01*
X123443713Y-103534500D01*
X123395042Y-103542208D01*
X123233760Y-103567753D01*
X123031585Y-103633444D01*
X122842179Y-103729951D01*
X122670213Y-103854890D01*
X122519890Y-104005213D01*
X122394951Y-104177179D01*
X122298444Y-104366585D01*
X122232753Y-104568760D01*
X122199500Y-104778713D01*
X82300000Y-104778713D01*
X82300000Y-101977648D01*
X105999500Y-101977648D01*
X105999500Y-102982351D01*
X106031522Y-103184534D01*
X106094781Y-103379223D01*
X106187715Y-103561613D01*
X106308028Y-103727213D01*
X106452786Y-103871971D01*
X106607749Y-103984556D01*
X106618390Y-103992287D01*
X106734607Y-104051503D01*
X106800776Y-104085218D01*
X106800778Y-104085218D01*
X106800781Y-104085220D01*
X106869857Y-104107664D01*
X106995465Y-104148477D01*
X107096557Y-104164488D01*
X107197648Y-104180500D01*
X107197649Y-104180500D01*
X107402351Y-104180500D01*
X107402352Y-104180500D01*
X107604534Y-104148477D01*
X107799219Y-104085220D01*
X107981610Y-103992287D01*
X108074590Y-103924732D01*
X108147213Y-103871971D01*
X108147215Y-103871968D01*
X108147219Y-103871966D01*
X108291966Y-103727219D01*
X108291968Y-103727215D01*
X108291971Y-103727213D01*
X108412284Y-103561614D01*
X108412285Y-103561613D01*
X108412287Y-103561610D01*
X108459516Y-103468917D01*
X108507489Y-103418123D01*
X108575310Y-103401328D01*
X108641445Y-103423865D01*
X108680485Y-103468919D01*
X108727715Y-103561614D01*
X108848028Y-103727213D01*
X108992786Y-103871971D01*
X109147749Y-103984556D01*
X109158390Y-103992287D01*
X109274607Y-104051503D01*
X109340776Y-104085218D01*
X109340778Y-104085218D01*
X109340781Y-104085220D01*
X109409857Y-104107664D01*
X109535465Y-104148477D01*
X109636557Y-104164488D01*
X109737648Y-104180500D01*
X109737649Y-104180500D01*
X109942351Y-104180500D01*
X109942352Y-104180500D01*
X110144534Y-104148477D01*
X110339219Y-104085220D01*
X110521610Y-103992287D01*
X110614590Y-103924732D01*
X110687213Y-103871971D01*
X110687215Y-103871968D01*
X110687219Y-103871966D01*
X110831966Y-103727219D01*
X110831968Y-103727215D01*
X110831971Y-103727213D01*
X110952284Y-103561614D01*
X110952285Y-103561613D01*
X110952287Y-103561610D01*
X110999516Y-103468917D01*
X111047489Y-103418123D01*
X111115310Y-103401328D01*
X111181445Y-103423865D01*
X111220485Y-103468919D01*
X111267715Y-103561614D01*
X111388028Y-103727213D01*
X111532786Y-103871971D01*
X111687749Y-103984556D01*
X111698390Y-103992287D01*
X111814607Y-104051503D01*
X111880776Y-104085218D01*
X111880778Y-104085218D01*
X111880781Y-104085220D01*
X111949857Y-104107664D01*
X112075465Y-104148477D01*
X112176557Y-104164488D01*
X112277648Y-104180500D01*
X112277649Y-104180500D01*
X112482351Y-104180500D01*
X112482352Y-104180500D01*
X112684534Y-104148477D01*
X112879219Y-104085220D01*
X113061610Y-103992287D01*
X113154590Y-103924732D01*
X113227213Y-103871971D01*
X113227215Y-103871968D01*
X113227219Y-103871966D01*
X113371966Y-103727219D01*
X113371968Y-103727215D01*
X113371971Y-103727213D01*
X113492284Y-103561614D01*
X113492285Y-103561613D01*
X113492287Y-103561610D01*
X113539516Y-103468917D01*
X113587489Y-103418123D01*
X113655310Y-103401328D01*
X113721445Y-103423865D01*
X113760485Y-103468919D01*
X113807715Y-103561614D01*
X113928028Y-103727213D01*
X114072786Y-103871971D01*
X114227749Y-103984556D01*
X114238390Y-103992287D01*
X114354607Y-104051503D01*
X114420776Y-104085218D01*
X114420778Y-104085218D01*
X114420781Y-104085220D01*
X114489857Y-104107664D01*
X114615465Y-104148477D01*
X114716557Y-104164488D01*
X114817648Y-104180500D01*
X114817649Y-104180500D01*
X115022351Y-104180500D01*
X115022352Y-104180500D01*
X115224534Y-104148477D01*
X115419219Y-104085220D01*
X115601610Y-103992287D01*
X115694590Y-103924732D01*
X115767213Y-103871971D01*
X115767215Y-103871968D01*
X115767219Y-103871966D01*
X115911966Y-103727219D01*
X115911968Y-103727215D01*
X115911971Y-103727213D01*
X115980098Y-103633443D01*
X116032287Y-103561610D01*
X116125220Y-103379219D01*
X116188477Y-103184534D01*
X116220500Y-102982352D01*
X116220500Y-102578872D01*
X204759500Y-102578872D01*
X204759500Y-102841127D01*
X204778094Y-102982351D01*
X204793730Y-103101116D01*
X204816082Y-103184534D01*
X204861602Y-103354418D01*
X204861605Y-103354428D01*
X204961953Y-103596690D01*
X204961958Y-103596700D01*
X205093075Y-103823803D01*
X205252718Y-104031851D01*
X205252726Y-104031860D01*
X205438140Y-104217274D01*
X205438148Y-104217281D01*
X205646196Y-104376924D01*
X205873299Y-104508041D01*
X205873309Y-104508046D01*
X206115571Y-104608394D01*
X206115581Y-104608398D01*
X206368884Y-104676270D01*
X206628880Y-104710500D01*
X206628887Y-104710500D01*
X206891113Y-104710500D01*
X206891120Y-104710500D01*
X207151116Y-104676270D01*
X207404419Y-104608398D01*
X207646697Y-104508043D01*
X207873803Y-104376924D01*
X208081851Y-104217282D01*
X208081855Y-104217277D01*
X208081860Y-104217274D01*
X208267274Y-104031860D01*
X208267277Y-104031855D01*
X208267282Y-104031851D01*
X208426924Y-103823803D01*
X208558043Y-103596697D01*
X208658398Y-103354419D01*
X208726270Y-103101116D01*
X208760500Y-102841120D01*
X208760500Y-102578880D01*
X208726270Y-102318884D01*
X208658398Y-102065581D01*
X208621975Y-101977648D01*
X208558046Y-101823309D01*
X208558041Y-101823299D01*
X208426924Y-101596196D01*
X208267281Y-101388148D01*
X208267274Y-101388140D01*
X208081860Y-101202726D01*
X208081851Y-101202718D01*
X207873803Y-101043075D01*
X207646700Y-100911958D01*
X207646690Y-100911953D01*
X207404428Y-100811605D01*
X207404421Y-100811603D01*
X207404419Y-100811602D01*
X207151116Y-100743730D01*
X207093339Y-100736123D01*
X206891127Y-100709500D01*
X206891120Y-100709500D01*
X206628880Y-100709500D01*
X206628872Y-100709500D01*
X206397772Y-100739926D01*
X206368884Y-100743730D01*
X206169980Y-100797026D01*
X206115581Y-100811602D01*
X206115571Y-100811605D01*
X205873309Y-100911953D01*
X205873299Y-100911958D01*
X205646196Y-101043075D01*
X205438148Y-101202718D01*
X205252718Y-101388148D01*
X205093075Y-101596196D01*
X204961958Y-101823299D01*
X204961953Y-101823309D01*
X204861605Y-102065571D01*
X204861602Y-102065581D01*
X204793730Y-102318885D01*
X204759500Y-102578872D01*
X116220500Y-102578872D01*
X116220500Y-101977648D01*
X116188477Y-101775466D01*
X116125220Y-101580781D01*
X116125218Y-101580778D01*
X116125218Y-101580776D01*
X116079515Y-101491080D01*
X116032287Y-101398390D01*
X116024556Y-101387749D01*
X115911971Y-101232786D01*
X115767213Y-101088028D01*
X115601613Y-100967715D01*
X115601612Y-100967714D01*
X115601610Y-100967713D01*
X115544653Y-100938691D01*
X115419223Y-100874781D01*
X115224534Y-100811522D01*
X115049995Y-100783878D01*
X115022352Y-100779500D01*
X114817648Y-100779500D01*
X114793329Y-100783351D01*
X114615465Y-100811522D01*
X114420776Y-100874781D01*
X114238386Y-100967715D01*
X114072786Y-101088028D01*
X113928028Y-101232786D01*
X113807715Y-101398386D01*
X113760485Y-101491080D01*
X113712510Y-101541876D01*
X113644689Y-101558671D01*
X113578554Y-101536134D01*
X113539515Y-101491080D01*
X113538883Y-101489840D01*
X113492287Y-101398390D01*
X113484556Y-101387749D01*
X113371971Y-101232786D01*
X113227213Y-101088028D01*
X113061613Y-100967715D01*
X113061612Y-100967714D01*
X113061610Y-100967713D01*
X113004653Y-100938691D01*
X112879223Y-100874781D01*
X112684534Y-100811522D01*
X112509995Y-100783878D01*
X112482352Y-100779500D01*
X112277648Y-100779500D01*
X112253329Y-100783351D01*
X112075465Y-100811522D01*
X111880776Y-100874781D01*
X111698386Y-100967715D01*
X111532786Y-101088028D01*
X111388028Y-101232786D01*
X111267715Y-101398386D01*
X111220485Y-101491080D01*
X111172510Y-101541876D01*
X111104689Y-101558671D01*
X111038554Y-101536134D01*
X110999515Y-101491080D01*
X110998883Y-101489840D01*
X110952287Y-101398390D01*
X110944556Y-101387749D01*
X110831971Y-101232786D01*
X110687213Y-101088028D01*
X110521613Y-100967715D01*
X110521612Y-100967714D01*
X110521610Y-100967713D01*
X110464653Y-100938691D01*
X110339223Y-100874781D01*
X110144534Y-100811522D01*
X109969995Y-100783878D01*
X109942352Y-100779500D01*
X109737648Y-100779500D01*
X109713329Y-100783351D01*
X109535465Y-100811522D01*
X109340776Y-100874781D01*
X109158386Y-100967715D01*
X108992786Y-101088028D01*
X108848028Y-101232786D01*
X108727715Y-101398386D01*
X108680485Y-101491080D01*
X108632510Y-101541876D01*
X108564689Y-101558671D01*
X108498554Y-101536134D01*
X108459515Y-101491080D01*
X108458883Y-101489840D01*
X108412287Y-101398390D01*
X108404556Y-101387749D01*
X108291971Y-101232786D01*
X108147213Y-101088028D01*
X107981613Y-100967715D01*
X107981612Y-100967714D01*
X107981610Y-100967713D01*
X107924653Y-100938691D01*
X107799223Y-100874781D01*
X107604534Y-100811522D01*
X107429995Y-100783878D01*
X107402352Y-100779500D01*
X107197648Y-100779500D01*
X107173329Y-100783351D01*
X106995465Y-100811522D01*
X106800776Y-100874781D01*
X106618386Y-100967715D01*
X106452786Y-101088028D01*
X106308028Y-101232786D01*
X106187715Y-101398386D01*
X106094781Y-101580776D01*
X106031522Y-101775465D01*
X105999500Y-101977648D01*
X82300000Y-101977648D01*
X82300000Y-99543713D01*
X171684500Y-99543713D01*
X171684500Y-99756286D01*
X171704057Y-99879768D01*
X171717754Y-99966243D01*
X171763500Y-100107035D01*
X171783444Y-100168414D01*
X171879951Y-100357820D01*
X172004890Y-100529786D01*
X172155213Y-100680109D01*
X172327179Y-100805048D01*
X172327181Y-100805049D01*
X172327184Y-100805051D01*
X172516588Y-100901557D01*
X172718757Y-100967246D01*
X172928713Y-101000500D01*
X172928714Y-101000500D01*
X173141286Y-101000500D01*
X173141287Y-101000500D01*
X173351243Y-100967246D01*
X173553412Y-100901557D01*
X173742816Y-100805051D01*
X173829818Y-100741841D01*
X173914784Y-100680110D01*
X173914784Y-100680109D01*
X173914792Y-100680104D01*
X174028329Y-100566566D01*
X174089648Y-100533084D01*
X174159340Y-100538068D01*
X174215274Y-100579939D01*
X174232189Y-100610917D01*
X174281202Y-100742328D01*
X174281206Y-100742335D01*
X174367452Y-100857544D01*
X174367455Y-100857547D01*
X174482664Y-100943793D01*
X174482671Y-100943797D01*
X174617517Y-100994091D01*
X174617516Y-100994091D01*
X174624444Y-100994835D01*
X174677127Y-101000500D01*
X176472872Y-101000499D01*
X176532483Y-100994091D01*
X176667331Y-100943796D01*
X176782546Y-100857546D01*
X176868796Y-100742331D01*
X176919091Y-100607483D01*
X176925500Y-100547873D01*
X176925499Y-98907010D01*
X177883386Y-98907010D01*
X177883386Y-100107028D01*
X177883387Y-100107045D01*
X177893886Y-100209823D01*
X177893887Y-100209826D01*
X177930154Y-100319270D01*
X177949072Y-100376361D01*
X178041174Y-100525683D01*
X178165230Y-100649739D01*
X178314552Y-100741841D01*
X178481089Y-100797026D01*
X178583877Y-100807527D01*
X179783894Y-100807526D01*
X179886683Y-100797026D01*
X180053220Y-100741841D01*
X180202542Y-100649739D01*
X180326598Y-100525683D01*
X180418700Y-100376361D01*
X180418702Y-100376353D01*
X180420867Y-100371712D01*
X180467037Y-100319270D01*
X180534230Y-100300115D01*
X180601112Y-100320327D01*
X180602143Y-100321009D01*
X180710202Y-100393212D01*
X180710214Y-100393219D01*
X180892192Y-100468596D01*
X180892204Y-100468599D01*
X181085390Y-100507026D01*
X181085394Y-100507027D01*
X181282378Y-100507027D01*
X181282381Y-100507026D01*
X181475567Y-100468599D01*
X181475571Y-100468598D01*
X181549253Y-100438078D01*
X180988724Y-99877550D01*
X180971723Y-99846415D01*
X181029492Y-99879768D01*
X181131225Y-99907027D01*
X181236547Y-99907027D01*
X181338280Y-99879768D01*
X181429492Y-99827107D01*
X181503966Y-99752633D01*
X181556627Y-99661421D01*
X181583886Y-99559688D01*
X181583886Y-99507026D01*
X181749571Y-99507026D01*
X181749571Y-99507028D01*
X182114937Y-99872394D01*
X182145457Y-99798712D01*
X182145458Y-99798708D01*
X182183885Y-99605522D01*
X182183886Y-99605519D01*
X182183886Y-99408535D01*
X182183885Y-99408531D01*
X182145458Y-99215345D01*
X182145456Y-99215337D01*
X182114937Y-99141658D01*
X181749571Y-99507026D01*
X181583886Y-99507026D01*
X181583886Y-99454366D01*
X181556627Y-99352633D01*
X181503966Y-99261421D01*
X181429492Y-99186947D01*
X181338280Y-99134286D01*
X181236547Y-99107027D01*
X181131225Y-99107027D01*
X181029492Y-99134286D01*
X180966938Y-99170401D01*
X180988724Y-99136503D01*
X181549253Y-98575974D01*
X181475571Y-98545455D01*
X181475567Y-98545453D01*
X181282381Y-98507027D01*
X181085390Y-98507027D01*
X180892204Y-98545454D01*
X180892192Y-98545457D01*
X180710214Y-98620834D01*
X180710201Y-98620841D01*
X180602143Y-98693044D01*
X180535465Y-98713922D01*
X180468085Y-98695437D01*
X180421395Y-98643458D01*
X180420869Y-98642345D01*
X180418701Y-98637696D01*
X180418700Y-98637693D01*
X180326598Y-98488371D01*
X180202542Y-98364315D01*
X180053220Y-98272213D01*
X179886683Y-98217028D01*
X179886681Y-98217027D01*
X179783896Y-98206527D01*
X178583884Y-98206527D01*
X178583867Y-98206528D01*
X178481089Y-98217027D01*
X178481086Y-98217028D01*
X178314554Y-98272212D01*
X178314549Y-98272214D01*
X178165228Y-98364316D01*
X178041175Y-98488369D01*
X177949073Y-98637690D01*
X177949071Y-98637695D01*
X177932043Y-98689083D01*
X177893887Y-98804230D01*
X177893887Y-98804231D01*
X177893886Y-98804231D01*
X177883386Y-98907010D01*
X176925499Y-98907010D01*
X176925499Y-98752128D01*
X176919091Y-98692517D01*
X176917810Y-98689083D01*
X176868797Y-98557671D01*
X176868793Y-98557664D01*
X176782547Y-98442455D01*
X176782544Y-98442452D01*
X176667335Y-98356206D01*
X176667328Y-98356202D01*
X176532482Y-98305908D01*
X176532483Y-98305908D01*
X176472883Y-98299501D01*
X176472881Y-98299500D01*
X176472873Y-98299500D01*
X176472864Y-98299500D01*
X174677129Y-98299500D01*
X174677123Y-98299501D01*
X174617516Y-98305908D01*
X174482671Y-98356202D01*
X174482664Y-98356206D01*
X174367455Y-98442452D01*
X174367452Y-98442455D01*
X174281206Y-98557664D01*
X174281203Y-98557669D01*
X174232189Y-98689083D01*
X174190317Y-98745016D01*
X174124853Y-98769433D01*
X174056580Y-98754581D01*
X174028326Y-98733430D01*
X173914786Y-98619890D01*
X173742820Y-98494951D01*
X173553414Y-98398444D01*
X173553413Y-98398443D01*
X173553412Y-98398443D01*
X173351243Y-98332754D01*
X173351241Y-98332753D01*
X173351240Y-98332753D01*
X173189957Y-98307208D01*
X173141287Y-98299500D01*
X172928713Y-98299500D01*
X172880042Y-98307208D01*
X172718760Y-98332753D01*
X172516585Y-98398444D01*
X172327179Y-98494951D01*
X172155213Y-98619890D01*
X172004890Y-98770213D01*
X171879951Y-98942179D01*
X171783444Y-99131585D01*
X171717753Y-99333760D01*
X171684500Y-99543713D01*
X82300000Y-99543713D01*
X82300000Y-85888146D01*
X202767000Y-85888146D01*
X202767000Y-86211853D01*
X202802778Y-86437746D01*
X202802778Y-86437749D01*
X202873450Y-86655255D01*
X202873452Y-86655258D01*
X202977283Y-86859038D01*
X203111714Y-87044066D01*
X203273434Y-87205786D01*
X203458462Y-87340217D01*
X203590599Y-87407544D01*
X203662244Y-87444049D01*
X203879751Y-87514721D01*
X203879752Y-87514721D01*
X203879755Y-87514722D01*
X204105646Y-87550500D01*
X204105647Y-87550500D01*
X204334353Y-87550500D01*
X204334354Y-87550500D01*
X204560245Y-87514722D01*
X204560248Y-87514721D01*
X204560249Y-87514721D01*
X204777755Y-87444049D01*
X204777755Y-87444048D01*
X204777758Y-87444048D01*
X204981538Y-87340217D01*
X205166566Y-87205786D01*
X205328286Y-87044066D01*
X205389683Y-86959559D01*
X205445012Y-86916896D01*
X205514625Y-86910917D01*
X205576420Y-86943523D01*
X205590314Y-86959556D01*
X205651714Y-87044066D01*
X205813434Y-87205786D01*
X205998462Y-87340217D01*
X206130599Y-87407544D01*
X206202244Y-87444049D01*
X206419751Y-87514721D01*
X206419752Y-87514721D01*
X206419755Y-87514722D01*
X206645646Y-87550500D01*
X206645647Y-87550500D01*
X206874353Y-87550500D01*
X206874354Y-87550500D01*
X207100245Y-87514722D01*
X207100248Y-87514721D01*
X207100249Y-87514721D01*
X207317755Y-87444049D01*
X207317755Y-87444048D01*
X207317758Y-87444048D01*
X207521538Y-87340217D01*
X207704245Y-87207472D01*
X207770046Y-87183994D01*
X207838100Y-87199819D01*
X207886795Y-87249924D01*
X207893308Y-87264459D01*
X207903702Y-87292328D01*
X207903706Y-87292335D01*
X207989952Y-87407544D01*
X207989955Y-87407547D01*
X208105164Y-87493793D01*
X208105171Y-87493797D01*
X208240017Y-87544091D01*
X208240016Y-87544091D01*
X208246944Y-87544835D01*
X208299627Y-87550500D01*
X210300372Y-87550499D01*
X210359983Y-87544091D01*
X210494831Y-87493796D01*
X210610046Y-87407546D01*
X210696296Y-87292331D01*
X210746591Y-87157483D01*
X210753000Y-87097873D01*
X210752999Y-85002128D01*
X210746591Y-84942517D01*
X210736660Y-84915891D01*
X210696297Y-84807671D01*
X210696293Y-84807664D01*
X210610047Y-84692455D01*
X210610044Y-84692452D01*
X210494835Y-84606206D01*
X210494828Y-84606202D01*
X210359982Y-84555908D01*
X210359983Y-84555908D01*
X210300383Y-84549501D01*
X210300381Y-84549500D01*
X210300373Y-84549500D01*
X210300364Y-84549500D01*
X208299629Y-84549500D01*
X208299623Y-84549501D01*
X208240016Y-84555908D01*
X208105171Y-84606202D01*
X208105164Y-84606206D01*
X207989955Y-84692452D01*
X207989952Y-84692455D01*
X207903706Y-84807664D01*
X207903703Y-84807670D01*
X207893308Y-84835541D01*
X207851436Y-84891474D01*
X207785972Y-84915891D01*
X207717699Y-84901039D01*
X207704250Y-84892531D01*
X207521538Y-84759783D01*
X207317755Y-84655950D01*
X207100248Y-84585278D01*
X206914812Y-84555908D01*
X206874354Y-84549500D01*
X206645646Y-84549500D01*
X206605188Y-84555908D01*
X206419753Y-84585278D01*
X206419750Y-84585278D01*
X206202244Y-84655950D01*
X205998461Y-84759783D01*
X205932551Y-84807670D01*
X205813434Y-84894214D01*
X205813432Y-84894216D01*
X205813431Y-84894216D01*
X205651715Y-85055932D01*
X205590318Y-85140438D01*
X205534987Y-85183103D01*
X205465374Y-85189082D01*
X205403579Y-85156476D01*
X205389682Y-85140438D01*
X205378773Y-85125423D01*
X205328286Y-85055934D01*
X205166566Y-84894214D01*
X204981538Y-84759783D01*
X204777755Y-84655950D01*
X204560248Y-84585278D01*
X204374812Y-84555908D01*
X204334354Y-84549500D01*
X204105646Y-84549500D01*
X204065188Y-84555908D01*
X203879753Y-84585278D01*
X203879750Y-84585278D01*
X203662244Y-84655950D01*
X203458461Y-84759783D01*
X203392551Y-84807670D01*
X203273434Y-84894214D01*
X203273432Y-84894216D01*
X203273431Y-84894216D01*
X203111716Y-85055931D01*
X203111716Y-85055932D01*
X203111714Y-85055934D01*
X203053980Y-85135396D01*
X202977283Y-85240961D01*
X202873450Y-85444744D01*
X202802778Y-85662250D01*
X202802778Y-85662253D01*
X202767000Y-85888146D01*
X82300000Y-85888146D01*
X82300000Y-80607010D01*
X182488499Y-80607010D01*
X182488499Y-81807028D01*
X182488500Y-81807045D01*
X182498999Y-81909823D01*
X182499000Y-81909826D01*
X182548186Y-82058258D01*
X182554185Y-82076361D01*
X182646287Y-82225683D01*
X182770343Y-82349739D01*
X182919665Y-82441841D01*
X183086202Y-82497026D01*
X183188990Y-82507527D01*
X184389007Y-82507526D01*
X184491796Y-82497026D01*
X184658333Y-82441841D01*
X184807655Y-82349739D01*
X184931711Y-82225683D01*
X184985746Y-82138078D01*
X186923630Y-82138078D01*
X186997309Y-82168597D01*
X186997317Y-82168599D01*
X187190503Y-82207026D01*
X187190507Y-82207027D01*
X187387491Y-82207027D01*
X187387494Y-82207026D01*
X187580680Y-82168599D01*
X187580684Y-82168598D01*
X187654366Y-82138078D01*
X187289000Y-81772712D01*
X187288999Y-81772712D01*
X186923630Y-82138078D01*
X184985746Y-82138078D01*
X185023813Y-82076361D01*
X185078998Y-81909824D01*
X185089499Y-81807036D01*
X185089498Y-81108531D01*
X186288999Y-81108531D01*
X186288999Y-81305522D01*
X186327425Y-81498708D01*
X186327427Y-81498712D01*
X186357946Y-81572394D01*
X186723313Y-81207028D01*
X186723313Y-81207026D01*
X186670653Y-81154366D01*
X186888999Y-81154366D01*
X186888999Y-81259688D01*
X186916258Y-81361421D01*
X186968919Y-81452633D01*
X187043393Y-81527107D01*
X187134605Y-81579768D01*
X187236338Y-81607027D01*
X187341660Y-81607027D01*
X187443393Y-81579768D01*
X187534605Y-81527107D01*
X187609079Y-81452633D01*
X187661740Y-81361421D01*
X187688999Y-81259688D01*
X187688999Y-81207026D01*
X187854684Y-81207026D01*
X187854684Y-81207028D01*
X188220050Y-81572394D01*
X188250570Y-81498712D01*
X188250571Y-81498708D01*
X188288998Y-81305522D01*
X188288999Y-81305519D01*
X188288999Y-81108535D01*
X188288998Y-81108531D01*
X188250571Y-80915345D01*
X188250569Y-80915337D01*
X188220050Y-80841658D01*
X187854684Y-81207026D01*
X187688999Y-81207026D01*
X187688999Y-81154366D01*
X187661740Y-81052633D01*
X187609079Y-80961421D01*
X187534605Y-80886947D01*
X187443393Y-80834286D01*
X187341660Y-80807027D01*
X187236338Y-80807027D01*
X187134605Y-80834286D01*
X187043393Y-80886947D01*
X186968919Y-80961421D01*
X186916258Y-81052633D01*
X186888999Y-81154366D01*
X186670653Y-81154366D01*
X186357946Y-80841658D01*
X186357945Y-80841659D01*
X186327431Y-80915327D01*
X186327426Y-80915344D01*
X186288999Y-81108531D01*
X185089498Y-81108531D01*
X185089498Y-80607019D01*
X185078998Y-80504230D01*
X185023813Y-80337693D01*
X184985745Y-80275974D01*
X186923630Y-80275974D01*
X187288999Y-80641341D01*
X187289000Y-80641341D01*
X187654366Y-80275974D01*
X187580684Y-80245455D01*
X187580680Y-80245453D01*
X187387494Y-80207027D01*
X187190503Y-80207027D01*
X186997316Y-80245454D01*
X186997299Y-80245459D01*
X186923631Y-80275973D01*
X186923630Y-80275974D01*
X184985745Y-80275974D01*
X184931711Y-80188371D01*
X184807655Y-80064315D01*
X184658333Y-79972213D01*
X184491796Y-79917028D01*
X184491794Y-79917027D01*
X184389009Y-79906527D01*
X183188997Y-79906527D01*
X183188980Y-79906528D01*
X183086202Y-79917027D01*
X183086199Y-79917028D01*
X182919667Y-79972212D01*
X182919662Y-79972214D01*
X182770341Y-80064316D01*
X182646288Y-80188369D01*
X182554186Y-80337690D01*
X182554184Y-80337695D01*
X182548188Y-80355791D01*
X182499000Y-80504230D01*
X182499000Y-80504231D01*
X182498999Y-80504231D01*
X182488499Y-80607010D01*
X82300000Y-80607010D01*
X82300000Y-79853713D01*
X199599500Y-79853713D01*
X199599500Y-80066286D01*
X199627877Y-80245455D01*
X199632754Y-80276243D01*
X199652720Y-80337693D01*
X199698444Y-80478414D01*
X199794951Y-80667820D01*
X199919890Y-80839786D01*
X200033430Y-80953326D01*
X200066915Y-81014649D01*
X200061931Y-81084341D01*
X200020059Y-81140274D01*
X199989083Y-81157189D01*
X199857669Y-81206203D01*
X199857664Y-81206206D01*
X199742455Y-81292452D01*
X199742452Y-81292455D01*
X199656206Y-81407664D01*
X199656202Y-81407671D01*
X199605908Y-81542517D01*
X199600812Y-81589920D01*
X199599501Y-81602123D01*
X199599500Y-81602135D01*
X199599500Y-83397870D01*
X199599501Y-83397876D01*
X199605908Y-83457483D01*
X199656202Y-83592328D01*
X199656206Y-83592335D01*
X199742452Y-83707544D01*
X199742455Y-83707547D01*
X199857664Y-83793793D01*
X199857671Y-83793797D01*
X199992517Y-83844091D01*
X199992516Y-83844091D01*
X199999444Y-83844835D01*
X200052127Y-83850500D01*
X201847872Y-83850499D01*
X201907483Y-83844091D01*
X202042331Y-83793796D01*
X202157546Y-83707546D01*
X202243796Y-83592331D01*
X202294091Y-83457483D01*
X202300500Y-83397873D01*
X202300499Y-81602128D01*
X202294091Y-81542517D01*
X202288343Y-81527107D01*
X202243797Y-81407671D01*
X202243793Y-81407664D01*
X202157547Y-81292455D01*
X202157544Y-81292452D01*
X202042335Y-81206206D01*
X202042328Y-81206202D01*
X201910917Y-81157189D01*
X201854983Y-81115318D01*
X201830566Y-81049853D01*
X201845418Y-80981580D01*
X201866563Y-80953332D01*
X201980104Y-80839792D01*
X201995603Y-80818460D01*
X202105048Y-80667820D01*
X202105047Y-80667820D01*
X202105051Y-80667816D01*
X202201557Y-80478412D01*
X202267246Y-80276243D01*
X202300500Y-80066287D01*
X202300500Y-79853713D01*
X202267246Y-79643757D01*
X202201557Y-79441588D01*
X202105051Y-79252184D01*
X202105049Y-79252181D01*
X202105048Y-79252179D01*
X201980109Y-79080213D01*
X201829786Y-78929890D01*
X201657820Y-78804951D01*
X201468414Y-78708444D01*
X201468413Y-78708443D01*
X201468412Y-78708443D01*
X201266243Y-78642754D01*
X201266241Y-78642753D01*
X201266240Y-78642753D01*
X201104957Y-78617208D01*
X201056287Y-78609500D01*
X200843713Y-78609500D01*
X200795042Y-78617208D01*
X200633760Y-78642753D01*
X200431585Y-78708444D01*
X200242179Y-78804951D01*
X200070213Y-78929890D01*
X199919890Y-79080213D01*
X199794951Y-79252179D01*
X199698444Y-79441585D01*
X199632753Y-79643760D01*
X199599500Y-79853713D01*
X82300000Y-79853713D01*
X82300000Y-77852135D01*
X204499500Y-77852135D01*
X204499500Y-81447870D01*
X204499501Y-81447876D01*
X204505908Y-81507483D01*
X204556202Y-81642328D01*
X204556206Y-81642335D01*
X204642452Y-81757544D01*
X204642455Y-81757547D01*
X204757664Y-81843793D01*
X204757671Y-81843797D01*
X204892517Y-81894091D01*
X204892516Y-81894091D01*
X204899444Y-81894835D01*
X204952127Y-81900500D01*
X208547872Y-81900499D01*
X208607483Y-81894091D01*
X208742331Y-81843796D01*
X208857546Y-81757546D01*
X208943796Y-81642331D01*
X208994091Y-81507483D01*
X209000500Y-81447873D01*
X209000499Y-78594902D01*
X211050000Y-78594902D01*
X211050000Y-79250000D01*
X212250000Y-79250000D01*
X212250000Y-80050000D01*
X211050001Y-80050000D01*
X211050001Y-80705098D01*
X211060078Y-80818460D01*
X211113228Y-81004215D01*
X211202686Y-81175474D01*
X211324784Y-81325215D01*
X211474525Y-81447313D01*
X211645784Y-81536771D01*
X211831538Y-81589920D01*
X211831541Y-81589921D01*
X211944903Y-81599999D01*
X212349999Y-81599999D01*
X212350000Y-81599998D01*
X212350000Y-80957106D01*
X212442993Y-81050099D01*
X212557007Y-81115925D01*
X212684174Y-81150000D01*
X212815826Y-81150000D01*
X212942993Y-81115925D01*
X213057007Y-81050099D01*
X213150000Y-80957106D01*
X213150000Y-81599999D01*
X213555092Y-81599999D01*
X213555098Y-81599998D01*
X213668460Y-81589921D01*
X213854215Y-81536771D01*
X214025474Y-81447313D01*
X214175215Y-81325215D01*
X214297313Y-81175474D01*
X214386771Y-81004215D01*
X214439920Y-80818461D01*
X214439921Y-80818458D01*
X214449999Y-80705097D01*
X214450000Y-80705095D01*
X214450000Y-80050000D01*
X213250000Y-80050000D01*
X213250000Y-79250000D01*
X214449999Y-79250000D01*
X214449999Y-78594907D01*
X214449998Y-78594901D01*
X214439921Y-78481539D01*
X214386771Y-78295784D01*
X214297313Y-78124525D01*
X214175215Y-77974784D01*
X214025474Y-77852686D01*
X213854215Y-77763228D01*
X213668461Y-77710079D01*
X213668458Y-77710078D01*
X213555097Y-77700000D01*
X213150000Y-77700000D01*
X213150000Y-78342894D01*
X213057007Y-78249901D01*
X212942993Y-78184075D01*
X212815826Y-78150000D01*
X212684174Y-78150000D01*
X212557007Y-78184075D01*
X212442993Y-78249901D01*
X212350000Y-78342894D01*
X212350000Y-77700000D01*
X211944907Y-77700000D01*
X211944901Y-77700001D01*
X211831539Y-77710078D01*
X211645784Y-77763228D01*
X211474525Y-77852686D01*
X211324784Y-77974784D01*
X211202686Y-78124525D01*
X211113228Y-78295784D01*
X211060079Y-78481538D01*
X211060078Y-78481541D01*
X211050000Y-78594902D01*
X209000499Y-78594902D01*
X209000499Y-77852128D01*
X208994091Y-77792517D01*
X208963343Y-77710078D01*
X208943797Y-77657671D01*
X208943793Y-77657664D01*
X208857547Y-77542455D01*
X208857544Y-77542452D01*
X208742335Y-77456206D01*
X208742328Y-77456202D01*
X208607482Y-77405908D01*
X208607483Y-77405908D01*
X208547883Y-77399501D01*
X208547881Y-77399500D01*
X208547873Y-77399500D01*
X208547864Y-77399500D01*
X204952129Y-77399500D01*
X204952123Y-77399501D01*
X204892516Y-77405908D01*
X204757671Y-77456202D01*
X204757664Y-77456206D01*
X204642455Y-77542452D01*
X204642452Y-77542455D01*
X204556206Y-77657664D01*
X204556202Y-77657671D01*
X204505908Y-77792517D01*
X204499501Y-77852116D01*
X204499501Y-77852123D01*
X204499500Y-77852135D01*
X82300000Y-77852135D01*
X82300000Y-73992922D01*
X207800000Y-73992922D01*
X207800000Y-74550000D01*
X208442894Y-74550000D01*
X208349901Y-74642993D01*
X208284075Y-74757007D01*
X208250000Y-74884174D01*
X208250000Y-75015826D01*
X208284075Y-75142993D01*
X208349901Y-75257007D01*
X208442894Y-75350000D01*
X207800000Y-75350000D01*
X207800000Y-75907077D01*
X207802748Y-75953209D01*
X207846385Y-76153808D01*
X207846387Y-76153816D01*
X207927202Y-76342534D01*
X208042277Y-76512557D01*
X208187442Y-76657722D01*
X208357465Y-76772797D01*
X208546183Y-76853612D01*
X208546191Y-76853614D01*
X208746790Y-76897251D01*
X208792922Y-76900000D01*
X209350000Y-76900000D01*
X209350000Y-75450000D01*
X210150000Y-75450000D01*
X210150000Y-76900000D01*
X210707078Y-76900000D01*
X210753209Y-76897251D01*
X210953808Y-76853614D01*
X210953816Y-76853612D01*
X211142534Y-76772797D01*
X211312557Y-76657722D01*
X211457722Y-76512557D01*
X211572797Y-76342534D01*
X211653612Y-76153816D01*
X211653614Y-76153808D01*
X211697251Y-75953209D01*
X211700000Y-75907077D01*
X211700000Y-75350000D01*
X211057106Y-75350000D01*
X211150099Y-75257007D01*
X211215925Y-75142993D01*
X211250000Y-75015826D01*
X211250000Y-74884174D01*
X211215925Y-74757007D01*
X211150099Y-74642993D01*
X211057106Y-74550000D01*
X211700000Y-74550000D01*
X211700000Y-73992922D01*
X211697251Y-73946790D01*
X211653614Y-73746191D01*
X211653612Y-73746183D01*
X211572797Y-73557465D01*
X211457722Y-73387442D01*
X211312557Y-73242277D01*
X211142534Y-73127202D01*
X210953816Y-73046387D01*
X210953808Y-73046385D01*
X210753209Y-73002748D01*
X210707078Y-73000000D01*
X210150000Y-73000000D01*
X210150000Y-74450000D01*
X209350000Y-74450000D01*
X209350000Y-73000000D01*
X208792922Y-73000000D01*
X208746790Y-73002748D01*
X208546191Y-73046385D01*
X208546183Y-73046387D01*
X208357465Y-73127202D01*
X208187442Y-73242277D01*
X208042277Y-73387442D01*
X207927202Y-73557465D01*
X207846387Y-73746183D01*
X207846385Y-73746191D01*
X207802748Y-73946790D01*
X207800000Y-73992922D01*
X82300000Y-73992922D01*
X82300000Y-71824500D01*
X82319685Y-71757461D01*
X82372489Y-71711706D01*
X82424000Y-71700500D01*
X220376000Y-71700500D01*
X220443039Y-71720185D01*
G37*
%TD.AperFunction*%
%TD*%
M02*
