M48
; DRILL file KiCad 10.0.0 date 2026-07-01T16:55:09
; FORMAT={-:-/ absolute / metric / decimal}
; #@! TF.CreationDate,2026-07-01T16:55:09+02:00
; #@! TF.GenerationSoftware,Kicad,Pcbnew,10.0.0
; #@! TF.FileFunction,Plated,1,2,PTH
FMAT,2
METRIC
; #@! TA.AperFunction,Plated,PTH,ViaDrill
T1C0.500
; #@! TA.AperFunction,Plated,PTH,ComponentDrill
T2C0.600
; #@! TA.AperFunction,Plated,PTH,ComponentDrill
T3C0.800
; #@! TA.AperFunction,Plated,PTH,ComponentDrill
T4C0.920
; #@! TA.AperFunction,Plated,PTH,ComponentDrill
T5C1.000
; #@! TA.AperFunction,Plated,PTH,ComponentDrill
T6C1.100
; #@! TA.AperFunction,Plated,PTH,ComponentDrill
T7C1.500
; #@! TA.AperFunction,Plated,PTH,ComponentDrill
T8C2.330
%
G90
G05
T1
X88.3Y-101.4
X99.15Y-121.7
X114.1Y-99.43
X130.7Y-149.15
X130.77Y-109.45
X135.55Y-95.25
X136.3Y-128.05
X143.8Y-136.35
X152.24Y-103.16
X158.37Y-101.854
X161.9Y-119.75
X162.81Y-144.22
X163.6Y-88.45
X168.1Y-102.6
X172.25Y-134.1
X187.45Y-105.4
X194.0Y-74.2
X194.0Y-82.95
T2
X129.21Y-114.22
X129.21Y-115.72
X140.7Y-120.15
X142.2Y-120.15
T3
X107.3Y-102.48
X107.3Y-110.1
X109.84Y-102.48
X109.84Y-110.1
X112.38Y-102.48
X112.38Y-110.1
X114.45Y-118.305
X114.45Y-120.305
X114.92Y-102.48
X114.92Y-110.1
X121.34Y-123.84
X121.34Y-131.46
X123.88Y-123.84
X123.88Y-131.46
X126.42Y-123.84
X126.42Y-131.46
X128.96Y-123.84
X128.96Y-131.46
X138.05Y-132.3
X138.05Y-139.92
X140.59Y-132.3
X140.59Y-139.92
X143.13Y-132.3
X143.13Y-139.92
X145.67Y-132.3
X145.67Y-139.92
X179.184Y-99.507
X181.184Y-99.507
X183.789Y-81.207
X187.289Y-81.207
T4
X160.5Y-147.65
X160.5Y-149.65
X163.0Y-147.65
X163.0Y-149.65
T5
X123.55Y-104.885
X123.55Y-107.425
X132.485Y-123.65
X135.025Y-123.65
X148.6Y-105.2
X148.6Y-107.74
X148.6Y-110.28
X148.6Y-112.82
X148.6Y-115.36
X154.26Y-129.79
X156.8Y-129.79
X159.34Y-129.79
X173.035Y-99.65
X175.575Y-99.65
X188.895Y-136.445
X188.895Y-150.945
X191.395Y-150.945
X193.895Y-136.445
X193.895Y-150.945
X200.95Y-79.96
X200.95Y-82.5
T6
X204.22Y-86.05
X206.76Y-86.05
X209.3Y-86.05
T8
X155.73Y-152.36
X167.77Y-152.36
T5
G00X98.35Y-132.05
M15
G01X99.55Y-132.05
M16
G05
G00X98.35Y-150.55
M15
G01X99.55Y-150.55
M16
G05
G00X106.05Y-134.55
M15
G01X107.25Y-134.55
M16
G05
G00X106.05Y-153.05
M15
G01X107.25Y-153.05
M16
G05
G00X113.25Y-129.55
M15
G01X114.45Y-129.55
M16
G05
G00X113.25Y-134.55
M15
G01X114.45Y-134.55
M16
G05
G00X113.25Y-148.05
M15
G01X114.45Y-148.05
M16
G05
G00X113.25Y-153.05
M15
G01X114.45Y-153.05
M16
G05
G00X206.75Y-80.65
M15
G01X206.75Y-78.65
M16
G05
G00X210.75Y-74.95
M15
G01X208.75Y-74.95
M16
G05
G00X212.75Y-80.65
M15
G01X212.75Y-78.65
M16
G05
T7
G00X185.795Y-144.095
M15
G01X185.795Y-142.795
M16
G05
G00X196.995Y-144.095
M15
G01X196.995Y-142.795
M16
G05
M30
